{
.appVersion = "1352";
classes = (
{
automatic = 1;

glyphs = (
{
color = 8;
glyphname = A;
lastChange = "2021-05-03 12:17:03 +0000";
layers = (
{
anchors = (
{
name = bottom;
position = "{845, 0}";
},
{
name = ogonek;
position = "{1590, 0}";
},
{
name = top;
position = "{845, 1500}";
}
);
layerId = "CA54B7DC-FBBB-40FE-ACF3-AABDD76D6A7B";
paths = (
{
closed = 1;
nodes = (
"520 0 LINE",
"520 42 LINE",
"250 42 LINE",
"851 1453 LINE",
"834 1453 LINE",
"1436 42 LINE",
"1166 42 LINE",
"1166 0 LINE",
"1662 0 LINE",
"1662 42 LINE",
"1488 42 LINE",
"864 1500 LINE",
"826 1500 LINE",
"202 42 LINE",
"28 42 LINE",
"28 0 LINE"
);
},
{
closed = 1;
nodes = (
"1252 516 LINE",
"1252 560 LINE",
"436 560 LINE",
"436 516 LINE"
);
}
);
width = 1690;
},
{
anchors = (
{
name = bottom;
position = "{827, 0}";
},
{
name = ogonek;
position = "{1543, 0}";
},
{
name = top;
position = "{827, 1500}";
}
);
layerId = "1E61A082-F045-49A7-AB52-DD1B03FD9B54";
paths = (
{
closed = 1;
nodes = (
"546 0 LINE",
"546 36 LINE",
"255 36 LINE",
"831 1453 LINE",
"814 1453 LINE",
"1390 36 LINE",
"1099 36 LINE",
"1099 0 LINE",
"1625 0 LINE",
"1625 36 LINE",
"1442 36 LINE",
"845 1500 LINE",
"809 1500 LINE",
"212 36 LINE",
"29 36 LINE",
"29 0 LINE"
);
},
{
closed = 1;
nodes = (
"1213 520 LINE",
"1213 558 LINE",
"437 558 LINE",
"437 520 LINE"
);
}
);
width = 1654;
},
{
anchors = (
{
name = bottom;
position = "{912, 0}";
},
{
name = ogonek;
position = "{1642, 0}";
},
{
name = top;
position = "{912, 1500}";
}
);
layerId = "219068EA-2B9B-40DC-949E-B60449C01B8A";
paths = (
{
closed = 1;
nodes = (
"660 0 LINE",
"660 214 LINE",
"454 214 LINE",
"895 1269 LINE",
"764 1270 LINE",
"1194 214 LINE",
"986 214 LINE",
"986 0 LINE",
"1790 0 LINE",
"1790 214 LINE",
"1651 214 LINE",
"1106 1500 LINE",
"718 1500 LINE",
"173 214 LINE",
"34 214 LINE",
"34 0 LINE"
);
},
{
closed = 1;
nodes = (
"1184 425 LINE",
"1184 649 LINE",
"486 649 LINE",
"486 425 LINE"
);
}
);
width = 1824;
},
{
anchors = (
{
name = bottom;
position = "{903, 0}";
},
{
name = ogonek;
position = "{1619, 0}";
},
{
name = top;
position = "{903, 1500}";
}
);
layerId = "0C29AA02-E021-4BD1-A2C4-87F681D64C35";
paths = (
{
closed = 1;
nodes = (
"656 0 LINE",
"656 196 LINE",
"433 196 LINE",
"870 1275 LINE",
"731 1276 LINE",
"1159 196 LINE",
"936 196 LINE",
"936 0 LINE",
"1759 0 LINE",
"1759 196 LINE",
"1613 196 LINE",
"1077 1506 LINE",
"728 1506 LINE",
"192 196 LINE",
"46 196 LINE",
"46 0 LINE"
);
},
{
closed = 1;
nodes = (
"1155 433 LINE",
"1155 633 LINE",
"457 633 LINE",
"457 433 LINE"
);
}
);
width = 1805;
}
);
leftKerningGroup = A;
rightKerningGroup = A;
unicode = 0041;
},
{
glyphname = Aacute;
lastChange = "2021-05-03 12:17:03 +0000";
layers = (
{
anchors = (
{
name = bottom;
position = "{845, 0}";
},
{
name = ogonek;
position = "{1590, 0}";
},
{
name = top;
position = "{845, 1500}";
}
);
layerId = "CA54B7DC-FBBB-40FE-ACF3-AABDD76D6A7B";
paths = (
{
closed = 1;
nodes = (
"520 0 LINE",
"520 42 LINE",
"250 42 LINE",
"851 1453 LINE",
"834 1453 LINE",
"1436 42 LINE",
"1166 42 LINE",
"1166 0 LINE",
"1662 0 LINE",
"1662 42 LINE",
"1488 42 LINE",
"864 1500 LINE",
"826 1500 LINE",
"202 42 LINE",
"28 42 LINE",
"28 0 LINE"
);
},
{
closed = 1;
nodes = (
"1252 516 LINE",
"1252 560 LINE",
"436 560 LINE",
"436 516 LINE"
);
},
{
closed = 1;
nodes = (
"839 1650 LINE",
"1092 1960 LINE",
"1032 1960 LINE",
"788 1650 LINE"
);
}
);
width = 1690;
},
{
anchors = (
{
name = bottom;
position = "{827, 0}";
},
{
name = ogonek;
position = "{1543, 0}";
},
{
name = top;
position = "{827, 1500}";
}
);
layerId = "1E61A082-F045-49A7-AB52-DD1B03FD9B54";
paths = (
{
closed = 1;
nodes = (
"546 0 LINE",
"546 36 LINE",
"255 36 LINE",
"831 1453 LINE",
"814 1453 LINE",
"1390 36 LINE",
"1099 36 LINE",
"1099 0 LINE",
"1625 0 LINE",
"1625 36 LINE",
"1442 36 LINE",
"845 1500 LINE",
"809 1500 LINE",
"212 36 LINE",
"29 36 LINE",
"29 0 LINE"
);
},
{
closed = 1;
nodes = (
"1213 520 LINE",
"1213 558 LINE",
"437 558 LINE",
"437 520 LINE"
);
},
{
closed = 1;
nodes = (
"822 1650 LINE",
"1058 1960 LINE",
"1002 1960 LINE",
"775 1650 LINE"
);
}
);
width = 1654;
},
{
anchors = (
{
name = bottom;
position = "{912, 0}";
},
{
name = ogonek;
position = "{1642, 0}";
},
{
name = top;
position = "{912, 1500}";
}
);
layerId = "219068EA-2B9B-40DC-949E-B60449C01B8A";
paths = (
{
closed = 1;
nodes = (
"660 0 LINE",
"660 214 LINE",
"454 214 LINE",
"895 1269 LINE",
"764 1270 LINE",
"1194 214 LINE",
"986 214 LINE",
"986 0 LINE",
"1790 0 LINE",
"1790 214 LINE",
"1651 214 LINE",
"1106 1500 LINE",
"718 1500 LINE",
"173 214 LINE",
"34 214 LINE",
"34 0 LINE"
);
},
{
closed = 1;
nodes = (
"1184 425 LINE",
"1184 649 LINE",
"486 649 LINE",
"486 425 LINE"
);
},
{
closed = 1;
nodes = (
"1005 1630 LINE",
"1283 1930 LINE",
"875 1930 LINE",
"743 1630 LINE"
);
}
);
width = 1824;
},
{
anchors = (
{
name = bottom;
position = "{903, 0}";
},
{
name = ogonek;
position = "{1619, 0}";
},
{
name = top;
position = "{903, 1500}";
}
);
layerId = "0C29AA02-E021-4BD1-A2C4-87F681D64C35";
paths = (
{
closed = 1;
nodes = (
"656 0 LINE",
"656 196 LINE",
"433 196 LINE",
"870 1275 LINE",
"731 1276 LINE",
"1159 196 LINE",
"936 196 LINE",
"936 0 LINE",
"1759 0 LINE",
"1759 196 LINE",
"1613 196 LINE",
"1077 1506 LINE",
"728 1506 LINE",
"192 196 LINE",
"46 196 LINE",
"46 0 LINE"
);
},
{
closed = 1;
nodes = (
"1155 433 LINE",
"1155 633 LINE",
"457 633 LINE",
"457 433 LINE"
);
},
{
closed = 1;
nodes = (
"988 1610 LINE",
"1288 1910 LINE",
"880 1910 LINE",
"750 1610 LINE"
);
}
);
width = 1805;
}
);
leftKerningGroup = A;
rightKerningGroup = A;
unicode = 00C1;
},
{
glyphname = Abreve;
lastChange = "2021-05-03 12:17:03 +0000";
layers = (
{
anchors = (
{
name = bottom;
position = "{845, 0}";
},
{
name = ogonek;
position = "{1590, 0}";
},
{
name = side;
position = "{845, 1900}";
},
{
name = top;
position = "{845, 1940}";
}
);
layerId = "CA54B7DC-FBBB-40FE-ACF3-AABDD76D6A7B";
paths = (
{
closed = 1;
nodes = (
"520 0 LINE",
"520 42 LINE",
"250 42 LINE",
"851 1453 LINE",
"834 1453 LINE",
"1436 42 LINE",
"1166 42 LINE",
"1166 0 LINE",
"1662 0 LINE",
"1662 42 LINE",
"1488 42 LINE",
"864 1500 LINE",
"826 1500 LINE",
"202 42 LINE",
"28 42 LINE",
"28 0 LINE"
);
},
{
closed = 1;
nodes = (
"1252 516 LINE",
"1252 560 LINE",
"436 560 LINE",
"436 516 LINE"
);
},
{
closed = 1;
nodes = (
"1027 1640 OFFCURVE",
"1115 1774 OFFCURVE",
"1115 1960 CURVE",
"1075 1960 LINE",
"1075 1806 OFFCURVE",
"999 1678 OFFCURVE",
"845 1678 CURVE SMOOTH",
"691 1678 OFFCURVE",
"625 1806 OFFCURVE",
"625 1960 CURVE",
"585 1960 LINE",
"585 1774 OFFCURVE",
"663 1640 OFFCURVE",
"845 1640 CURVE SMOOTH"
);
}
);
width = 1690;
},
{
anchors = (
{
name = bottom;
position = "{827, 0}";
},
{
name = ogonek;
position = "{1543, 0}";
},
{
name = side;
position = "{827, 1900}";
},
{
name = top;
position = "{827, 1940}";
}
);
layerId = "1E61A082-F045-49A7-AB52-DD1B03FD9B54";
paths = (
{
closed = 1;
nodes = (
"546 0 LINE",
"546 36 LINE",
"255 36 LINE",
"831 1453 LINE",
"814 1453 LINE",
"1390 36 LINE",
"1099 36 LINE",
"1099 0 LINE",
"1625 0 LINE",
"1625 36 LINE",
"1442 36 LINE",
"845 1500 LINE",
"809 1500 LINE",
"212 36 LINE",
"29 36 LINE",
"29 0 LINE"
);
},
{
closed = 1;
nodes = (
"1213 520 LINE",
"1213 558 LINE",
"437 558 LINE",
"437 520 LINE"
);
},
{
closed = 1;
nodes = (
"1009 1640 OFFCURVE",
"1097 1774 OFFCURVE",
"1097 1960 CURVE",
"1059 1960 LINE",
"1059 1806 OFFCURVE",
"981 1678 OFFCURVE",
"827 1678 CURVE SMOOTH",
"673 1678 OFFCURVE",
"605 1806 OFFCURVE",
"605 1960 CURVE",
"567 1960 LINE",
"567 1774 OFFCURVE",
"645 1640 OFFCURVE",
"827 1640 CURVE SMOOTH"
);
}
);
width = 1654;
},
{
anchors = (
{
name = bottom;
position = "{912, 0}";
},
{
name = ogonek;
position = "{1642, 0}";
},
{
name = side;
position = "{912, 1874}";
},
{
name = top;
position = "{912, 1910}";
}
);
layerId = "219068EA-2B9B-40DC-949E-B60449C01B8A";
paths = (
{
closed = 1;
nodes = (
"660 0 LINE",
"660 214 LINE",
"454 214 LINE",
"895 1269 LINE",
"764 1270 LINE",
"1194 214 LINE",
"986 214 LINE",
"986 0 LINE",
"1790 0 LINE",
"1790 214 LINE",
"1651 214 LINE",
"1106 1500 LINE",
"718 1500 LINE",
"173 214 LINE",
"34 214 LINE",
"34 0 LINE"
);
},
{
closed = 1;
nodes = (
"1184 425 LINE",
"1184 649 LINE",
"486 649 LINE",
"486 425 LINE"
);
},
{
closed = 1;
nodes = (
"1151 1600 OFFCURVE",
"1280 1744 OFFCURVE",
"1286 1930 CURVE",
"1106 1930 LINE",
"1094 1868 OFFCURVE",
"1042 1808 OFFCURVE",
"912 1808 CURVE SMOOTH",
"782 1808 OFFCURVE",
"730 1868 OFFCURVE",
"718 1930 CURVE",
"538 1930 LINE",
"544 1744 OFFCURVE",
"673 1600 OFFCURVE",
"912 1600 CURVE SMOOTH"
);
}
);
width = 1824;
},
{
anchors = (
{
name = bottom;
position = "{903, 0}";
},
{
name = ogonek;
position = "{1619, 0}";
},
{
name = side;
position = "{903, 1860}";
},
{
name = top;
position = "{903, 1890}";
}
);
layerId = "0C29AA02-E021-4BD1-A2C4-87F681D64C35";
paths = (
{
closed = 1;
nodes = (
"656 0 LINE",
"656 196 LINE",
"433 196 LINE",
"870 1275 LINE",
"731 1276 LINE",
"1159 196 LINE",
"936 196 LINE",
"936 0 LINE",
"1759 0 LINE",
"1759 196 LINE",
"1613 196 LINE",
"1077 1506 LINE",
"728 1506 LINE",
"192 196 LINE",
"46 196 LINE",
"46 0 LINE"
);
},
{
closed = 1;
nodes = (
"1155 433 LINE",
"1155 633 LINE",
"457 633 LINE",
"457 433 LINE"
);
},
{
closed = 1;
nodes = (
"1142 1580 OFFCURVE",
"1277 1724 OFFCURVE",
"1277 1910 CURVE",
"1103 1910 LINE",
"1091 1852 OFFCURVE",
"1034 1788 OFFCURVE",
"903 1788 CURVE SMOOTH",
"772 1788 OFFCURVE",
"715 1852 OFFCURVE",
"703 1910 CURVE",
"529 1910 LINE",
"529 1724 OFFCURVE",
"664 1580 OFFCURVE",
"903 1580 CURVE SMOOTH"
);
}
);
width = 1805;
}
);
leftKerningGroup = A;
rightKerningGroup = A;
unicode = 0102;
},
{
glyphname = Abreveacute;
lastChange = "2021-05-03 12:17:03 +0000";
layers = (
{
anchors = (
{
name = bottom;
position = "{845, 0}";
},
{
name = ogonek;
position = "{1590, 0}";
},
{
name = side;
position = "{845, 1900}";
},
{
name = top;
position = "{845, 1940}";
}
);
layerId = "CA54B7DC-FBBB-40FE-ACF3-AABDD76D6A7B";
paths = (
{
closed = 1;
nodes = (
"520 0 LINE",
"520 42 LINE",
"250 42 LINE",
"851 1453 LINE",
"834 1453 LINE",
"1436 42 LINE",
"1166 42 LINE",
"1166 0 LINE",
"1662 0 LINE",
"1662 42 LINE",
"1488 42 LINE",
"864 1500 LINE",
"826 1500 LINE",
"202 42 LINE",
"28 42 LINE",
"28 0 LINE"
);
},
{
closed = 1;
nodes = (
"1252 516 LINE",
"1252 560 LINE",
"436 560 LINE",
"436 516 LINE"
);
},
{
closed = 1;
nodes = (
"1027 1640 OFFCURVE",
"1115 1774 OFFCURVE",
"1115 1960 CURVE",
"1075 1960 LINE",
"1075 1806 OFFCURVE",
"999 1678 OFFCURVE",
"845 1678 CURVE SMOOTH",
"691 1678 OFFCURVE",
"625 1806 OFFCURVE",
"625 1960 CURVE",
"585 1960 LINE",
"585 1774 OFFCURVE",
"663 1640 OFFCURVE",
"845 1640 CURVE SMOOTH"
);
},
{
closed = 1;
nodes = (
"836 2050 LINE",
"992 2340 LINE",
"942 2340 LINE",
"793 2050 LINE"
);
}
);
width = 1690;
},
{
anchors = (
{
name = bottom;
position = "{827, 0}";
},
{
name = ogonek;
position = "{1543, 0}";
},
{
name = side;
position = "{827, 1900}";
},
{
name = top;
position = "{827, 1940}";
}
);
layerId = "1E61A082-F045-49A7-AB52-DD1B03FD9B54";
paths = (
{
closed = 1;
nodes = (
"546 0 LINE",
"546 36 LINE",
"255 36 LINE",
"831 1453 LINE",
"814 1453 LINE",
"1390 36 LINE",
"1099 36 LINE",
"1099 0 LINE",
"1625 0 LINE",
"1625 36 LINE",
"1442 36 LINE",
"845 1500 LINE",
"809 1500 LINE",
"212 36 LINE",
"29 36 LINE",
"29 0 LINE"
);
},
{
closed = 1;
nodes = (
"1213 520 LINE",
"1213 558 LINE",
"437 558 LINE",
"437 520 LINE"
);
},
{
closed = 1;
nodes = (
"1009 1640 OFFCURVE",
"1097 1774 OFFCURVE",
"1097 1960 CURVE",
"1059 1960 LINE",
"1059 1806 OFFCURVE",
"981 1678 OFFCURVE",
"827 1678 CURVE SMOOTH",
"673 1678 OFFCURVE",
"605 1806 OFFCURVE",
"605 1960 CURVE",
"567 1960 LINE",
"567 1774 OFFCURVE",
"645 1640 OFFCURVE",
"827 1640 CURVE SMOOTH"
);
},
{
closed = 1;
nodes = (
"817 2050 LINE",
"972 2340 LINE",
"924 2340 LINE",
"775 2050 LINE"
);
}
);
width = 1654;
},
{
anchors = (
{
name = bottom;
position = "{912, 0}";
},
{
name = ogonek;
position = "{1642, 0}";
},
{
name = side;
position = "{912, 1874}";
},
{
name = top;
position = "{912, 1910}";
}
);
layerId = "219068EA-2B9B-40DC-949E-B60449C01B8A";
paths = (
{
closed = 1;
nodes = (
"660 0 LINE",
"660 214 LINE",
"454 214 LINE",
"895 1269 LINE",
"764 1270 LINE",
"1194 214 LINE",
"986 214 LINE",
"986 0 LINE",
"1790 0 LINE",
"1790 214 LINE",
"1651 214 LINE",
"1106 1500 LINE",
"718 1500 LINE",
"173 214 LINE",
"34 214 LINE",
"34 0 LINE"
);
},
{
closed = 1;
nodes = (
"1184 425 LINE",
"1184 649 LINE",
"486 649 LINE",
"486 425 LINE"
);
},
{
closed = 1;
nodes = (
"1151 1600 OFFCURVE",
"1280 1744 OFFCURVE",
"1286 1930 CURVE",
"1106 1930 LINE",
"1094 1868 OFFCURVE",
"1042 1808 OFFCURVE",
"912 1808 CURVE SMOOTH",
"782 1808 OFFCURVE",
"730 1868 OFFCURVE",
"718 1930 CURVE",
"538 1930 LINE",
"544 1744 OFFCURVE",
"673 1600 OFFCURVE",
"912 1600 CURVE SMOOTH"
);
},
{
closed = 1;
nodes = (
"1027 1984 LINE",
"1189 2274 LINE",
"869 2274 LINE",
"789 1984 LINE"
);
}
);
width = 1824;
},
{
anchors = (
{
name = bottom;
position = "{903, 0}";
},
{
name = ogonek;
position = "{1619, 0}";
},
{
name = side;
position = "{903, 1860}";
},
{
name = top;
position = "{903, 1890}";
}
);
layerId = "0C29AA02-E021-4BD1-A2C4-87F681D64C35";
paths = (
{
closed = 1;
nodes = (
"656 0 LINE",
"656 196 LINE",
"433 196 LINE",
"870 1275 LINE",
"731 1276 LINE",
"1159 196 LINE",
"936 196 LINE",
"936 0 LINE",
"1759 0 LINE",
"1759 196 LINE",
"1613 196 LINE",
"1077 1506 LINE",
"728 1506 LINE",
"192 196 LINE",
"46 196 LINE",
"46 0 LINE"
);
},
{
closed = 1;
nodes = (
"1155 433 LINE",
"1155 633 LINE",
"457 633 LINE",
"457 433 LINE"
);
},
{
closed = 1;
nodes = (
"1142 1580 OFFCURVE",
"1277 1724 OFFCURVE",
"1277 1910 CURVE",
"1103 1910 LINE",
"1091 1852 OFFCURVE",
"1034 1788 OFFCURVE",
"903 1788 CURVE SMOOTH",
"772 1788 OFFCURVE",
"715 1852 OFFCURVE",
"703 1910 CURVE",
"529 1910 LINE",
"529 1724 OFFCURVE",
"664 1580 OFFCURVE",
"903 1580 CURVE SMOOTH"
);
},
{
closed = 1;
nodes = (
"998 1970 LINE",
"1160 2260 LINE",
"860 2260 LINE",
"780 1970 LINE"
);
}
);
width = 1805;
}
);
leftKerningGroup = A;
rightKerningGroup = A;
unicode = 1EAE;
},
{
glyphname = Abrevedotbelow;
lastChange = "2021-05-03 12:17:03 +0000";
layers = (
{
anchors = (
{
name = bottom;
position = "{845, 0}";
},
{
name = ogonek;
position = "{1590, 0}";
},
{
name = side;
position = "{845, 1900}";
},
{
name = top;
position = "{845, 1940}";
}
);
layerId = "CA54B7DC-FBBB-40FE-ACF3-AABDD76D6A7B";
paths = (
{
closed = 1;
nodes = (
"520 0 LINE",
"520 42 LINE",
"250 42 LINE",
"851 1453 LINE",
"834 1453 LINE",
"1436 42 LINE",
"1166 42 LINE",
"1166 0 LINE",
"1662 0 LINE",
"1662 42 LINE",
"1488 42 LINE",
"864 1500 LINE",
"826 1500 LINE",
"202 42 LINE",
"28 42 LINE",
"28 0 LINE"
);
},
{
closed = 1;
nodes = (
"1252 516 LINE",
"1252 560 LINE",
"436 560 LINE",
"436 516 LINE"
);
},
{
closed = 1;
nodes = (
"881 -326 OFFCURVE",
"904 -300 OFFCURVE",
"904 -264 CURVE SMOOTH",
"904 -228 OFFCURVE",
"881 -202 OFFCURVE",
"845 -202 CURVE SMOOTH",
"809 -202 OFFCURVE",
"786 -228 OFFCURVE",
"786 -264 CURVE SMOOTH",
"786 -300 OFFCURVE",
"809 -326 OFFCURVE",
"845 -326 CURVE SMOOTH"
);
},
{
closed = 1;
nodes = (
"1027 1640 OFFCURVE",
"1115 1774 OFFCURVE",
"1115 1960 CURVE",
"1075 1960 LINE",
"1075 1806 OFFCURVE",
"999 1678 OFFCURVE",
"845 1678 CURVE SMOOTH",
"691 1678 OFFCURVE",
"625 1806 OFFCURVE",
"625 1960 CURVE",
"585 1960 LINE",
"585 1774 OFFCURVE",
"663 1640 OFFCURVE",
"845 1640 CURVE SMOOTH"
);
}
);
width = 1690;
},
{
anchors = (
{
name = bottom;
position = "{827, 0}";
},
{
name = ogonek;
position = "{1543, 0}";
},
{
name = side;
position = "{827, 1900}";
},
{
name = top;
position = "{827, 1940}";
}
);
layerId = "1E61A082-F045-49A7-AB52-DD1B03FD9B54";
paths = (
{
closed = 1;
nodes = (
"546 0 LINE",
"546 36 LINE",
"255 36 LINE",
"831 1453 LINE",
"814 1453 LINE",
"1390 36 LINE",
"1099 36 LINE",
"1099 0 LINE",
"1625 0 LINE",
"1625 36 LINE",
"1442 36 LINE",
"845 1500 LINE",
"809 1500 LINE",
"212 36 LINE",
"29 36 LINE",
"29 0 LINE"
);
},
{
closed = 1;
nodes = (
"1213 520 LINE",
"1213 558 LINE",
"437 558 LINE",
"437 520 LINE"
);
},
{
closed = 1;
nodes = (
"863 -346 OFFCURVE",
"886 -320 OFFCURVE",
"886 -284 CURVE SMOOTH",
"886 -248 OFFCURVE",
"863 -222 OFFCURVE",
"827 -222 CURVE SMOOTH",
"791 -222 OFFCURVE",
"768 -248 OFFCURVE",
"768 -284 CURVE SMOOTH",
"768 -320 OFFCURVE",
"791 -346 OFFCURVE",
"827 -346 CURVE SMOOTH"
);
},
{
closed = 1;
nodes = (
"1009 1640 OFFCURVE",
"1097 1774 OFFCURVE",
"1097 1960 CURVE",
"1059 1960 LINE",
"1059 1806 OFFCURVE",
"981 1678 OFFCURVE",
"827 1678 CURVE SMOOTH",
"673 1678 OFFCURVE",
"605 1806 OFFCURVE",
"605 1960 CURVE",
"567 1960 LINE",
"567 1774 OFFCURVE",
"645 1640 OFFCURVE",
"827 1640 CURVE SMOOTH"
);
}
);
width = 1654;
},
{
anchors = (
{
name = bottom;
position = "{912, 0}";
},
{
name = ogonek;
position = "{1642, 0}";
},
{
name = side;
position = "{912, 1874}";
},
{
name = top;
position = "{912, 1910}";
}
);
layerId = "219068EA-2B9B-40DC-949E-B60449C01B8A";
paths = (
{
closed = 1;
nodes = (
"660 0 LINE",
"660 214 LINE",
"454 214 LINE",
"895 1269 LINE",
"764 1270 LINE",
"1194 214 LINE",
"986 214 LINE",
"986 0 LINE",
"1790 0 LINE",
"1790 214 LINE",
"1651 214 LINE",
"1106 1500 LINE",
"718 1500 LINE",
"173 214 LINE",
"34 214 LINE",
"34 0 LINE"
);
},
{
closed = 1;
nodes = (
"1184 425 LINE",
"1184 649 LINE",
"486 649 LINE",
"486 425 LINE"
);
},
{
closed = 1;
nodes = (
"1056 -512 OFFCURVE",
"1156 -431 OFFCURVE",
"1156 -298 CURVE SMOOTH",
"1156 -166 OFFCURVE",
"1056 -84 OFFCURVE",
"912 -84 CURVE SMOOTH",
"768 -84 OFFCURVE",
"668 -166 OFFCURVE",
"668 -298 CURVE SMOOTH",
"668 -431 OFFCURVE",
"768 -512 OFFCURVE",
"912 -512 CURVE SMOOTH"
);
},
{
closed = 1;
nodes = (
"1151 1600 OFFCURVE",
"1280 1744 OFFCURVE",
"1286 1930 CURVE",
"1106 1930 LINE",
"1094 1868 OFFCURVE",
"1042 1808 OFFCURVE",
"912 1808 CURVE SMOOTH",
"782 1808 OFFCURVE",
"730 1868 OFFCURVE",
"718 1930 CURVE",
"538 1930 LINE",
"544 1744 OFFCURVE",
"673 1600 OFFCURVE",
"912 1600 CURVE SMOOTH"
);
}
);
width = 1824;
},
{
anchors = (
{
name = bottom;
position = "{903, 0}";
},
{
name = ogonek;
position = "{1619, 0}";
},
{
name = side;
position = "{903, 1860}";
},
{
name = top;
position = "{903, 1890}";
}
);
layerId = "0C29AA02-E021-4BD1-A2C4-87F681D64C35";
paths = (
{
closed = 1;
nodes = (
"656 0 LINE",
"656 196 LINE",
"433 196 LINE",
"870 1275 LINE",
"731 1276 LINE",
"1159 196 LINE",
"936 196 LINE",
"936 0 LINE",
"1759 0 LINE",
"1759 196 LINE",
"1613 196 LINE",
"1077 1506 LINE",
"728 1506 LINE",
"192 196 LINE",
"46 196 LINE",
"46 0 LINE"
);
},
{
closed = 1;
nodes = (
"1155 433 LINE",
"1155 633 LINE",
"457 633 LINE",
"457 433 LINE"
);
},
{
closed = 1;
nodes = (
"1038 -498 OFFCURVE",
"1131 -419 OFFCURVE",
"1131 -288 CURVE SMOOTH",
"1131 -158 OFFCURVE",
"1038 -78 OFFCURVE",
"903 -78 CURVE SMOOTH",
"768 -78 OFFCURVE",
"675 -158 OFFCURVE",
"675 -288 CURVE SMOOTH",
"675 -419 OFFCURVE",
"768 -498 OFFCURVE",
"903 -498 CURVE SMOOTH"
);
},
{
closed = 1;
nodes = (
"1142 1580 OFFCURVE",
"1277 1724 OFFCURVE",
"1277 1910 CURVE",
"1103 1910 LINE",
"1091 1852 OFFCURVE",
"1034 1788 OFFCURVE",
"903 1788 CURVE SMOOTH",
"772 1788 OFFCURVE",
"715 1852 OFFCURVE",
"703 1910 CURVE",
"529 1910 LINE",
"529 1724 OFFCURVE",
"664 1580 OFFCURVE",
"903 1580 CURVE SMOOTH"
);
}
);
width = 1805;
}
);
leftKerningGroup = A;
rightKerningGroup = A;
unicode = 1EB6;
},
{
glyphname = Abrevegrave;
lastChange = "2021-05-03 12:17:03 +0000";
layers = (
{
anchors = (
{
name = bottom;
position = "{845, 0}";
},
{
name = ogonek;
position = "{1590, 0}";
},
{
name = side;
position = "{845, 1900}";
},
{
name = top;
position = "{845, 1940}";
}
);
layerId = "CA54B7DC-FBBB-40FE-ACF3-AABDD76D6A7B";
paths = (
{
closed = 1;
nodes = (
"520 0 LINE",
"520 42 LINE",
"250 42 LINE",
"851 1453 LINE",
"834 1453 LINE",
"1436 42 LINE",
"1166 42 LINE",
"1166 0 LINE",
"1662 0 LINE",
"1662 42 LINE",
"1488 42 LINE",
"864 1500 LINE",
"826 1500 LINE",
"202 42 LINE",
"28 42 LINE",
"28 0 LINE"
);
},
{
closed = 1;
nodes = (
"1252 516 LINE",
"1252 560 LINE",
"436 560 LINE",
"436 516 LINE"
);
},
{
closed = 1;
nodes = (
"1027 1640 OFFCURVE",
"1115 1774 OFFCURVE",
"1115 1960 CURVE",
"1075 1960 LINE",
"1075 1806 OFFCURVE",
"999 1678 OFFCURVE",
"845 1678 CURVE SMOOTH",
"691 1678 OFFCURVE",
"625 1806 OFFCURVE",
"625 1960 CURVE",
"585 1960 LINE",
"585 1774 OFFCURVE",
"663 1640 OFFCURVE",
"845 1640 CURVE SMOOTH"
);
},
{
closed = 1;
nodes = (
"897 2050 LINE",
"748 2340 LINE",
"698 2340 LINE",
"854 2050 LINE"
);
}
);
width = 1690;
},
{
anchors = (
{
name = bottom;
position = "{827, 0}";
},
{
name = ogonek;
position = "{1543, 0}";
},
{
name = side;
position = "{827, 1900}";
},
{
name = top;
position = "{827, 1940}";
}
);
layerId = "1E61A082-F045-49A7-AB52-DD1B03FD9B54";
paths = (
{
closed = 1;
nodes = (
"546 0 LINE",
"546 36 LINE",
"255 36 LINE",
"831 1453 LINE",
"814 1453 LINE",
"1390 36 LINE",
"1099 36 LINE",
"1099 0 LINE",
"1625 0 LINE",
"1625 36 LINE",
"1442 36 LINE",
"845 1500 LINE",
"809 1500 LINE",
"212 36 LINE",
"29 36 LINE",
"29 0 LINE"
);
},
{
closed = 1;
nodes = (
"1213 520 LINE",
"1213 558 LINE",
"437 558 LINE",
"437 520 LINE"
);
},
{
closed = 1;
nodes = (
"1009 1640 OFFCURVE",
"1097 1774 OFFCURVE",
"1097 1960 CURVE",
"1059 1960 LINE",
"1059 1806 OFFCURVE",
"981 1678 OFFCURVE",
"827 1678 CURVE SMOOTH",
"673 1678 OFFCURVE",
"605 1806 OFFCURVE",
"605 1960 CURVE",
"567 1960 LINE",
"567 1774 OFFCURVE",
"645 1640 OFFCURVE",
"827 1640 CURVE SMOOTH"
);
},
{
closed = 1;
nodes = (
"879 2050 LINE",
"730 2340 LINE",
"682 2340 LINE",
"837 2050 LINE"
);
}
);
width = 1654;
},
{
anchors = (
{
name = bottom;
position = "{912, 0}";
},
{
name = ogonek;
position = "{1642, 0}";
},
{
name = side;
position = "{912, 1874}";
},
{
name = top;
position = "{912, 1910}";
}
);
layerId = "219068EA-2B9B-40DC-949E-B60449C01B8A";
paths = (
{
closed = 1;
nodes = (
"660 0 LINE",
"660 214 LINE",
"454 214 LINE",
"895 1269 LINE",
"764 1270 LINE",
"1194 214 LINE",
"986 214 LINE",
"986 0 LINE",
"1790 0 LINE",
"1790 214 LINE",
"1651 214 LINE",
"1106 1500 LINE",
"718 1500 LINE",
"173 214 LINE",
"34 214 LINE",
"34 0 LINE"
);
},
{
closed = 1;
nodes = (
"1184 425 LINE",
"1184 649 LINE",
"486 649 LINE",
"486 425 LINE"
);
},
{
closed = 1;
nodes = (
"1151 1600 OFFCURVE",
"1280 1744 OFFCURVE",
"1286 1930 CURVE",
"1106 1930 LINE",
"1094 1868 OFFCURVE",
"1042 1808 OFFCURVE",
"912 1808 CURVE SMOOTH",
"782 1808 OFFCURVE",
"730 1868 OFFCURVE",
"718 1930 CURVE",
"538 1930 LINE",
"544 1744 OFFCURVE",
"673 1600 OFFCURVE",
"912 1600 CURVE SMOOTH"
);
},
{
closed = 1;
nodes = (
"1055 1984 LINE",
"975 2274 LINE",
"655 2274 LINE",
"817 1984 LINE"
);
}
);
width = 1824;
},
{
anchors = (
{
name = bottom;
position = "{903, 0}";
},
{
name = ogonek;
position = "{1619, 0}";
},
{
name = side;
position = "{903, 1860}";
},
{
name = top;
position = "{903, 1890}";
}
);
layerId = "0C29AA02-E021-4BD1-A2C4-87F681D64C35";
paths = (
{
closed = 1;
nodes = (
"656 0 LINE",
"656 196 LINE",
"433 196 LINE",
"870 1275 LINE",
"731 1276 LINE",
"1159 196 LINE",
"936 196 LINE",
"936 0 LINE",
"1759 0 LINE",
"1759 196 LINE",
"1613 196 LINE",
"1077 1506 LINE",
"728 1506 LINE",
"192 196 LINE",
"46 196 LINE",
"46 0 LINE"
);
},
{
closed = 1;
nodes = (
"1155 433 LINE",
"1155 633 LINE",
"457 633 LINE",
"457 433 LINE"
);
},
{
closed = 1;
nodes = (
"1142 1580 OFFCURVE",
"1277 1724 OFFCURVE",
"1277 1910 CURVE",
"1103 1910 LINE",
"1091 1852 OFFCURVE",
"1034 1788 OFFCURVE",
"903 1788 CURVE SMOOTH",
"772 1788 OFFCURVE",
"715 1852 OFFCURVE",
"703 1910 CURVE",
"529 1910 LINE",
"529 1724 OFFCURVE",
"664 1580 OFFCURVE",
"903 1580 CURVE SMOOTH"
);
},
{
closed = 1;
nodes = (
"1046 1970 LINE",
"966 2260 LINE",
"666 2260 LINE",
"828 1970 LINE"
);
}
);
width = 1805;
}
);
leftKerningGroup = A;
rightKerningGroup = A;
unicode = 1EB0;
},
{
glyphname = Abrevehookabove;
lastChange = "2021-05-03 12:17:03 +0000";
layers = (
{
anchors = (
{
name = bottom;
position = "{845, 0}";
},
{
name = ogonek;
position = "{1590, 0}";
},
{
name = side;
position = "{845, 1900}";
},
{
name = top;
position = "{845, 1940}";
}
);
layerId = "CA54B7DC-FBBB-40FE-ACF3-AABDD76D6A7B";
paths = (
{
closed = 1;
nodes = (
"520 0 LINE",
"520 42 LINE",
"250 42 LINE",
"851 1453 LINE",
"834 1453 LINE",
"1436 42 LINE",
"1166 42 LINE",
"1166 0 LINE",
"1662 0 LINE",
"1662 42 LINE",
"1488 42 LINE",
"864 1500 LINE",
"826 1500 LINE",
"202 42 LINE",
"28 42 LINE",
"28 0 LINE"
);
},
{
closed = 1;
nodes = (
"1252 516 LINE",
"1252 560 LINE",
"436 560 LINE",
"436 516 LINE"
);
},
{
closed = 1;
nodes = (
"1027 1640 OFFCURVE",
"1115 1774 OFFCURVE",
"1115 1960 CURVE",
"1075 1960 LINE",
"1075 1806 OFFCURVE",
"999 1678 OFFCURVE",
"845 1678 CURVE SMOOTH",
"691 1678 OFFCURVE",
"625 1806 OFFCURVE",
"625 1960 CURVE",
"585 1960 LINE",
"585 1774 OFFCURVE",
"663 1640 OFFCURVE",
"845 1640 CURVE SMOOTH"
);
},
{
closed = 1;
nodes = (
"867 2030 LINE",
"864 2088 OFFCURVE",
"878 2116 OFFCURVE",
"933 2151 CURVE SMOOTH",
"984 2183 OFFCURVE",
"1038 2215 OFFCURVE",
"1038 2296 CURVE SMOOTH",
"1038 2383 OFFCURVE",
"954 2426 OFFCURVE",
"853 2426 CURVE",
"852 2392 LINE",
"934 2392 OFFCURVE",
"994 2353 OFFCURVE",
"994 2296 CURVE SMOOTH",
"994 2242 OFFCURVE",
"957 2213 OFFCURVE",
"910 2184 CURVE SMOOTH",
"858 2152 OFFCURVE",
"821 2117 OFFCURVE",
"827 2030 CURVE"
);
},
{
closed = 1;
nodes = (
"752 2250 OFFCURVE",
"770 2269 OFFCURVE",
"770 2296 CURVE SMOOTH",
"770 2326 OFFCURVE",
"748 2343 OFFCURVE",
"706 2343 CURVE",
"705 2319 LINE",
"720 2360 OFFCURVE",
"774 2392 OFFCURVE",
"852 2392 CURVE",
"853 2426 LINE",
"745 2426 OFFCURVE",
"664 2372 OFFCURVE",
"664 2309 CURVE SMOOTH",
"664 2272 OFFCURVE",
"688 2250 OFFCURVE",
"721 2250 CURVE SMOOTH"
);
}
);
width = 1690;
},
{
anchors = (
{
name = bottom;
position = "{827, 0}";
},
{
name = ogonek;
position = "{1543, 0}";
},
{
name = side;
position = "{827, 1900}";
},
{
name = top;
position = "{827, 1940}";
}
);
layerId = "1E61A082-F045-49A7-AB52-DD1B03FD9B54";
paths = (
{
closed = 1;
nodes = (
"546 0 LINE",
"546 36 LINE",
"255 36 LINE",
"831 1453 LINE",
"814 1453 LINE",
"1390 36 LINE",
"1099 36 LINE",
"1099 0 LINE",
"1625 0 LINE",
"1625 36 LINE",
"1442 36 LINE",
"845 1500 LINE",
"809 1500 LINE",
"212 36 LINE",
"29 36 LINE",
"29 0 LINE"
);
},
{
closed = 1;
nodes = (
"1213 520 LINE",
"1213 558 LINE",
"437 558 LINE",
"437 520 LINE"
);
},
{
closed = 1;
nodes = (
"1009 1640 OFFCURVE",
"1097 1774 OFFCURVE",
"1097 1960 CURVE",
"1059 1960 LINE",
"1059 1806 OFFCURVE",
"981 1678 OFFCURVE",
"827 1678 CURVE SMOOTH",
"673 1678 OFFCURVE",
"605 1806 OFFCURVE",
"605 1960 CURVE",
"567 1960 LINE",
"567 1774 OFFCURVE",
"645 1640 OFFCURVE",
"827 1640 CURVE SMOOTH"
);
},
{
closed = 1;
nodes = (
"849 2030 LINE",
"846 2088 OFFCURVE",
"860 2116 OFFCURVE",
"915 2151 CURVE SMOOTH",
"966 2183 OFFCURVE",
"1020 2215 OFFCURVE",
"1020 2296 CURVE SMOOTH",
"1020 2383 OFFCURVE",
"936 2426 OFFCURVE",
"835 2426 CURVE",
"834 2392 LINE",
"916 2392 OFFCURVE",
"976 2353 OFFCURVE",
"976 2296 CURVE SMOOTH",
"976 2242 OFFCURVE",
"939 2213 OFFCURVE",
"892 2184 CURVE SMOOTH",
"840 2152 OFFCURVE",
"803 2117 OFFCURVE",
"809 2030 CURVE"
);
},
{
closed = 1;
nodes = (
"734 2250 OFFCURVE",
"752 2269 OFFCURVE",
"752 2296 CURVE SMOOTH",
"752 2326 OFFCURVE",
"730 2343 OFFCURVE",
"688 2343 CURVE",
"687 2319 LINE",
"702 2360 OFFCURVE",
"756 2392 OFFCURVE",
"834 2392 CURVE",
"835 2426 LINE",
"727 2426 OFFCURVE",
"646 2372 OFFCURVE",
"646 2309 CURVE SMOOTH",
"646 2272 OFFCURVE",
"670 2250 OFFCURVE",
"703 2250 CURVE SMOOTH"
);
}
);
width = 1654;
},
{
anchors = (
{
name = bottom;
position = "{912, 0}";
},
{
name = ogonek;
position = "{1642, 0}";
},
{
name = side;
position = "{912, 1874}";
},
{
name = top;
position = "{912, 1910}";
}
);
layerId = "219068EA-2B9B-40DC-949E-B60449C01B8A";
paths = (
{
closed = 1;
nodes = (
"660 0 LINE",
"660 214 LINE",
"454 214 LINE",
"895 1269 LINE",
"764 1270 LINE",
"1194 214 LINE",
"986 214 LINE",
"986 0 LINE",
"1790 0 LINE",
"1790 214 LINE",
"1651 214 LINE",
"1106 1500 LINE",
"718 1500 LINE",
"173 214 LINE",
"34 214 LINE",
"34 0 LINE"
);
},
{
closed = 1;
nodes = (
"1184 425 LINE",
"1184 649 LINE",
"486 649 LINE",
"486 425 LINE"
);
},
{
closed = 1;
nodes = (
"1151 1600 OFFCURVE",
"1280 1744 OFFCURVE",
"1286 1930 CURVE",
"1106 1930 LINE",
"1094 1868 OFFCURVE",
"1042 1808 OFFCURVE",
"912 1808 CURVE SMOOTH",
"782 1808 OFFCURVE",
"730 1868 OFFCURVE",
"718 1930 CURVE",
"538 1930 LINE",
"544 1744 OFFCURVE",
"673 1600 OFFCURVE",
"912 1600 CURVE SMOOTH"
);
},
{
closed = 1;
nodes = (
"965 1994 LINE",
"965 2028 OFFCURVE",
"977 2055 OFFCURVE",
"1021 2075 CURVE SMOOTH",
"1114 2118 OFFCURVE",
"1215 2171 OFFCURVE",
"1215 2293 CURVE SMOOTH",
"1215 2435 OFFCURVE",
"1082 2500 OFFCURVE",
"923 2500 CURVE",
"916 2380 LINE",
"965 2380 OFFCURVE",
"998 2357 OFFCURVE",
"998 2320 CURVE SMOOTH",
"998 2276 OFFCURVE",
"962 2246 OFFCURVE",
"911 2209 CURVE SMOOTH",
"839 2157 OFFCURVE",
"794 2085 OFFCURVE",
"829 1994 CURVE"
);
},
{
closed = 1;
nodes = (
"842 2242 OFFCURVE",
"890 2274 OFFCURVE",
"890 2322 CURVE SMOOTH",
"890 2377 OFFCURVE",
"837 2394 OFFCURVE",
"757 2394 CURVE",
"793 2334 LINE",
"824 2361 OFFCURVE",
"864 2380 OFFCURVE",
"916 2380 CURVE",
"923 2500 LINE",
"756 2500 OFFCURVE",
"629 2438 OFFCURVE",
"629 2343 CURVE SMOOTH",
"629 2282 OFFCURVE",
"685 2242 OFFCURVE",
"770 2242 CURVE SMOOTH"
);
}
);
width = 1824;
},
{
anchors = (
{
name = bottom;
position = "{903, 0}";
},
{
name = ogonek;
position = "{1619, 0}";
},
{
name = side;
position = "{903, 1860}";
},
{
name = top;
position = "{903, 1890}";
}
);
layerId = "0C29AA02-E021-4BD1-A2C4-87F681D64C35";
paths = (
{
closed = 1;
nodes = (
"656 0 LINE",
"656 196 LINE",
"433 196 LINE",
"870 1275 LINE",
"731 1276 LINE",
"1159 196 LINE",
"936 196 LINE",
"936 0 LINE",
"1759 0 LINE",
"1759 196 LINE",
"1613 196 LINE",
"1077 1506 LINE",
"728 1506 LINE",
"192 196 LINE",
"46 196 LINE",
"46 0 LINE"
);
},
{
closed = 1;
nodes = (
"1155 433 LINE",
"1155 633 LINE",
"457 633 LINE",
"457 433 LINE"
);
},
{
closed = 1;
nodes = (
"1142 1580 OFFCURVE",
"1277 1724 OFFCURVE",
"1277 1910 CURVE",
"1103 1910 LINE",
"1091 1852 OFFCURVE",
"1034 1788 OFFCURVE",
"903 1788 CURVE SMOOTH",
"772 1788 OFFCURVE",
"715 1852 OFFCURVE",
"703 1910 CURVE",
"529 1910 LINE",
"529 1724 OFFCURVE",
"664 1580 OFFCURVE",
"903 1580 CURVE SMOOTH"
);
},
{
closed = 1;
nodes = (
"954 1960 LINE",
"954 1994 OFFCURVE",
"968 2021 OFFCURVE",
"1012 2041 CURVE SMOOTH",
"1105 2084 OFFCURVE",
"1206 2137 OFFCURVE",
"1206 2259 CURVE SMOOTH",
"1206 2401 OFFCURVE",
"1073 2466 OFFCURVE",
"914 2466 CURVE",
"907 2354 LINE",
"956 2354 OFFCURVE",
"989 2329 OFFCURVE",
"989 2288 CURVE SMOOTH",
"989 2245 OFFCURVE",
"954 2211 OFFCURVE",
"903 2174 CURVE SMOOTH",
"831 2122 OFFCURVE",
"787 2051 OFFCURVE",
"824 1960 CURVE"
);
},
{
closed = 1;
nodes = (
"833 2196 OFFCURVE",
"881 2230 OFFCURVE",
"881 2282 CURVE SMOOTH",
"881 2342 OFFCURVE",
"828 2360 OFFCURVE",
"748 2360 CURVE",
"784 2308 LINE",
"815 2335 OFFCURVE",
"855 2354 OFFCURVE",
"907 2354 CURVE",
"914 2466 LINE",
"747 2466 OFFCURVE",
"620 2402 OFFCURVE",
"620 2303 CURVE SMOOTH",
"620 2238 OFFCURVE",
"676 2196 OFFCURVE",
"761 2196 CURVE SMOOTH"
);
}
);
width = 1805;
}
);
leftKerningGroup = A;
rightKerningGroup = A;
unicode = 1EB2;
},
{
glyphname = Abrevetilde;
lastChange = "2021-05-03 12:17:03 +0000";
layers = (
{
anchors = (
{
name = bottom;
position = "{845, 0}";
},
{
name = ogonek;
position = "{1590, 0}";
},
{
name = side;
position = "{845, 1900}";
},
{
name = top;
position = "{845, 2264}";
}
);
layerId = "CA54B7DC-FBBB-40FE-ACF3-AABDD76D6A7B";
paths = (
{
closed = 1;
nodes = (
"520 0 LINE",
"520 42 LINE",
"250 42 LINE",
"851 1453 LINE",
"834 1453 LINE",
"1436 42 LINE",
"1166 42 LINE",
"1166 0 LINE",
"1662 0 LINE",
"1662 42 LINE",
"1488 42 LINE",
"864 1500 LINE",
"826 1500 LINE",
"202 42 LINE",
"28 42 LINE",
"28 0 LINE"
);
},
{
closed = 1;
nodes = (
"1252 516 LINE",
"1252 560 LINE",
"436 560 LINE",
"436 516 LINE"
);
},
{
closed = 1;
nodes = (
"1027 1640 OFFCURVE",
"1115 1774 OFFCURVE",
"1115 1960 CURVE",
"1075 1960 LINE",
"1075 1806 OFFCURVE",
"999 1678 OFFCURVE",
"845 1678 CURVE SMOOTH",
"691 1678 OFFCURVE",
"625 1806 OFFCURVE",
"625 1960 CURVE",
"585 1960 LINE",
"585 1774 OFFCURVE",
"663 1640 OFFCURVE",
"845 1640 CURVE SMOOTH"
);
},
{
closed = 1;
nodes = (
"1068 2078 OFFCURVE",
"1103 2140 OFFCURVE",
"1103 2245 CURVE SMOOTH",
"1103 2320 LINE",
"1063 2320 LINE",
"1063 2249 LINE SMOOTH",
"1063 2158 OFFCURVE",
"1040 2118 OFFCURVE",
"983 2118 CURVE SMOOTH",
"930 2118 OFFCURVE",
"903 2163 OFFCURVE",
"873 2203 CURVE SMOOTH",
"852 2231 LINE",
"817 2207 LINE",
"838 2179 LINE SMOOTH",
"872 2133 OFFCURVE",
"908 2078 OFFCURVE",
"983 2078 CURVE SMOOTH"
);
},
{
closed = 1;
nodes = (
"587 2090 LINE",
"627 2090 LINE",
"627 2161 LINE SMOOTH",
"627 2252 OFFCURVE",
"650 2292 OFFCURVE",
"707 2292 CURVE SMOOTH",
"760 2292 OFFCURVE",
"787 2247 OFFCURVE",
"817 2207 CURVE SMOOTH",
"838 2179 LINE",
"873 2203 LINE",
"852 2231 LINE SMOOTH",
"818 2277 OFFCURVE",
"782 2332 OFFCURVE",
"707 2332 CURVE SMOOTH",
"622 2332 OFFCURVE",
"587 2270 OFFCURVE",
"587 2165 CURVE SMOOTH"
);
}
);
width = 1690;
},
{
anchors = (
{
name = bottom;
position = "{827, 0}";
},
{
name = ogonek;
position = "{1543, 0}";
},
{
name = side;
position = "{827, 1900}";
},
{
name = top;
position = "{827, 2318}";
}
);
layerId = "1E61A082-F045-49A7-AB52-DD1B03FD9B54";
paths = (
{
closed = 1;
nodes = (
"546 0 LINE",
"546 36 LINE",
"255 36 LINE",
"831 1453 LINE",
"814 1453 LINE",
"1390 36 LINE",
"1099 36 LINE",
"1099 0 LINE",
"1625 0 LINE",
"1625 36 LINE",
"1442 36 LINE",
"845 1500 LINE",
"809 1500 LINE",
"212 36 LINE",
"29 36 LINE",
"29 0 LINE"
);
},
{
closed = 1;
nodes = (
"1213 520 LINE",
"1213 558 LINE",
"437 558 LINE",
"437 520 LINE"
);
},
{
closed = 1;
nodes = (
"1009 1640 OFFCURVE",
"1097 1774 OFFCURVE",
"1097 1960 CURVE",
"1059 1960 LINE",
"1059 1806 OFFCURVE",
"981 1678 OFFCURVE",
"827 1678 CURVE SMOOTH",
"673 1678 OFFCURVE",
"605 1806 OFFCURVE",
"605 1960 CURVE",
"567 1960 LINE",
"567 1774 OFFCURVE",
"645 1640 OFFCURVE",
"827 1640 CURVE SMOOTH"
);
},
{
closed = 1;
nodes = (
"1050 2098 OFFCURVE",
"1089 2160 OFFCURVE",
"1089 2265 CURVE SMOOTH",
"1089 2340 LINE",
"1051 2340 LINE",
"1051 2269 LINE SMOOTH",
"1051 2178 OFFCURVE",
"1022 2138 OFFCURVE",
"965 2138 CURVE SMOOTH",
"914 2138 OFFCURVE",
"882 2182 OFFCURVE",
"853 2224 CURVE SMOOTH",
"834 2252 LINE",
"801 2226 LINE",
"820 2198 LINE SMOOTH",
"852 2150 OFFCURVE",
"894 2098 OFFCURVE",
"965 2098 CURVE SMOOTH"
);
},
{
closed = 1;
nodes = (
"565 2110 LINE",
"603 2110 LINE",
"603 2181 LINE SMOOTH",
"603 2272 OFFCURVE",
"632 2312 OFFCURVE",
"689 2312 CURVE SMOOTH",
"740 2312 OFFCURVE",
"772 2268 OFFCURVE",
"801 2226 CURVE SMOOTH",
"820 2198 LINE",
"853 2224 LINE",
"834 2252 LINE SMOOTH",
"802 2300 OFFCURVE",
"760 2352 OFFCURVE",
"689 2352 CURVE SMOOTH",
"604 2352 OFFCURVE",
"565 2290 OFFCURVE",
"565 2185 CURVE SMOOTH"
);
}
);
width = 1654;
},
{
anchors = (
{
name = bottom;
position = "{912, 0}";
},
{
name = ogonek;
position = "{1642, 0}";
},
{
name = side;
position = "{912, 1874}";
},
{
name = top;
position = "{912, 2310}";
}
);
layerId = "219068EA-2B9B-40DC-949E-B60449C01B8A";
paths = (
{
closed = 1;
nodes = (
"660 0 LINE",
"660 214 LINE",
"454 214 LINE",
"895 1269 LINE",
"764 1270 LINE",
"1194 214 LINE",
"986 214 LINE",
"986 0 LINE",
"1790 0 LINE",
"1790 214 LINE",
"1651 214 LINE",
"1106 1500 LINE",
"718 1500 LINE",
"173 214 LINE",
"34 214 LINE",
"34 0 LINE"
);
},
{
closed = 1;
nodes = (
"1184 425 LINE",
"1184 649 LINE",
"486 649 LINE",
"486 425 LINE"
);
},
{
closed = 1;
nodes = (
"1151 1600 OFFCURVE",
"1280 1744 OFFCURVE",
"1286 1930 CURVE",
"1106 1930 LINE",
"1094 1868 OFFCURVE",
"1042 1808 OFFCURVE",
"912 1808 CURVE SMOOTH",
"782 1808 OFFCURVE",
"730 1868 OFFCURVE",
"718 1930 CURVE",
"538 1930 LINE",
"544 1744 OFFCURVE",
"673 1600 OFFCURVE",
"912 1600 CURVE SMOOTH"
);
},
{
closed = 1;
nodes = (
"1200 2018 OFFCURVE",
"1268 2103 OFFCURVE",
"1268 2254 CURVE SMOOTH",
"1268 2340 LINE",
"1102 2340 LINE",
"1102 2304 LINE SMOOTH",
"1102 2255 OFFCURVE",
"1087 2228 OFFCURVE",
"1050 2228 CURVE SMOOTH",
"1021 2228 OFFCURVE",
"1002 2239 OFFCURVE",
"973 2260 CURVE SMOOTH",
"939 2285 LINE",
"851 2120 LINE",
"885 2095 LINE SMOOTH",
"943 2052 OFFCURVE",
"997 2018 OFFCURVE",
"1076 2018 CURVE SMOOTH"
);
},
{
closed = 1;
nodes = (
"556 2040 LINE",
"722 2040 LINE",
"722 2076 LINE SMOOTH",
"722 2125 OFFCURVE",
"737 2152 OFFCURVE",
"774 2152 CURVE SMOOTH",
"803 2152 OFFCURVE",
"822 2141 OFFCURVE",
"851 2120 CURVE SMOOTH",
"885 2095 LINE",
"973 2260 LINE",
"939 2285 LINE SMOOTH",
"881 2328 OFFCURVE",
"827 2362 OFFCURVE",
"748 2362 CURVE SMOOTH",
"624 2362 OFFCURVE",
"556 2277 OFFCURVE",
"556 2126 CURVE SMOOTH"
);
}
);
width = 1824;
},
{
anchors = (
{
name = bottom;
position = "{903, 0}";
},
{
name = ogonek;
position = "{1619, 0}";
},
{
name = side;
position = "{903, 1860}";
},
{
name = top;
position = "{903, 2268}";
}
);
layerId = "0C29AA02-E021-4BD1-A2C4-87F681D64C35";
paths = (
{
closed = 1;
nodes = (
"656 0 LINE",
"656 196 LINE",
"433 196 LINE",
"870 1275 LINE",
"731 1276 LINE",
"1159 196 LINE",
"936 196 LINE",
"936 0 LINE",
"1759 0 LINE",
"1759 196 LINE",
"1613 196 LINE",
"1077 1506 LINE",
"728 1506 LINE",
"192 196 LINE",
"46 196 LINE",
"46 0 LINE"
);
},
{
closed = 1;
nodes = (
"1155 433 LINE",
"1155 633 LINE",
"457 633 LINE",
"457 433 LINE"
);
},
{
closed = 1;
nodes = (
"1142 1580 OFFCURVE",
"1277 1724 OFFCURVE",
"1277 1910 CURVE",
"1103 1910 LINE",
"1091 1852 OFFCURVE",
"1034 1788 OFFCURVE",
"903 1788 CURVE SMOOTH",
"772 1788 OFFCURVE",
"715 1852 OFFCURVE",
"703 1910 CURVE",
"529 1910 LINE",
"529 1724 OFFCURVE",
"664 1580 OFFCURVE",
"903 1580 CURVE SMOOTH"
);
},
{
closed = 1;
nodes = (
"1195 1978 OFFCURVE",
"1259 2059 OFFCURVE",
"1259 2204 CURVE SMOOTH",
"1259 2300 LINE",
"1101 2300 LINE",
"1101 2264 LINE SMOOTH",
"1101 2214 OFFCURVE",
"1083 2186 OFFCURVE",
"1049 2186 CURVE SMOOTH",
"1019 2186 OFFCURVE",
"995 2199 OFFCURVE",
"965 2220 CURVE SMOOTH",
"929 2245 LINE",
"841 2080 LINE",
"877 2055 LINE SMOOTH",
"937 2013 OFFCURVE",
"992 1978 OFFCURVE",
"1071 1978 CURVE SMOOTH"
);
},
{
closed = 1;
nodes = (
"547 2000 LINE",
"705 2000 LINE",
"705 2036 LINE SMOOTH",
"705 2086 OFFCURVE",
"723 2114 OFFCURVE",
"757 2114 CURVE SMOOTH",
"787 2114 OFFCURVE",
"811 2101 OFFCURVE",
"841 2080 CURVE SMOOTH",
"877 2055 LINE",
"965 2220 LINE",
"929 2245 LINE SMOOTH",
"869 2287 OFFCURVE",
"814 2322 OFFCURVE",
"735 2322 CURVE SMOOTH",
"611 2322 OFFCURVE",
"547 2241 OFFCURVE",
"547 2096 CURVE SMOOTH"
);
}
);
width = 1805;
}
);
leftKerningGroup = A;
rightKerningGroup = A;
unicode = 1EB4;
},
{
glyphname = Acircumflex;
lastChange = "2021-05-03 12:17:03 +0000";
layers = (
{
anchors = (
{
name = bottom;
position = "{845, 0}";
},
{
name = ogonek;
position = "{1590, 0}";
},
{
name = side;
position = "{1141, 1730}";
},
{
name = top;
position = "{845, 1940}";
}
);
layerId = "CA54B7DC-FBBB-40FE-ACF3-AABDD76D6A7B";
paths = (
{
closed = 1;
nodes = (
"520 0 LINE",
"520 42 LINE",
"250 42 LINE",
"851 1453 LINE",
"834 1453 LINE",
"1436 42 LINE",
"1166 42 LINE",
"1166 0 LINE",
"1662 0 LINE",
"1662 42 LINE",
"1488 42 LINE",
"864 1500 LINE",
"826 1500 LINE",
"202 42 LINE",
"28 42 LINE",
"28 0 LINE"
);
},
{
closed = 1;
nodes = (
"1252 516 LINE",
"1252 560 LINE",
"436 560 LINE",
"436 516 LINE"
);
},
{
closed = 1;
nodes = (
"629 1650 LINE",
"856 1933 LINE",
"831 1933 LINE",
"1060 1650 LINE",
"1111 1650 LINE",
"865 1960 LINE",
"825 1960 LINE",
"579 1650 LINE"
);
}
);
width = 1690;
},
{
anchors = (
{
name = bottom;
position = "{827, 0}";
},
{
name = ogonek;
position = "{1543, 0}";
},
{
name = side;
position = "{1120, 1730}";
},
{
name = top;
position = "{827, 1940}";
}
);
layerId = "1E61A082-F045-49A7-AB52-DD1B03FD9B54";
paths = (
{
closed = 1;
nodes = (
"546 0 LINE",
"546 36 LINE",
"255 36 LINE",
"831 1453 LINE",
"814 1453 LINE",
"1390 36 LINE",
"1099 36 LINE",
"1099 0 LINE",
"1625 0 LINE",
"1625 36 LINE",
"1442 36 LINE",
"845 1500 LINE",
"809 1500 LINE",
"212 36 LINE",
"29 36 LINE",
"29 0 LINE"
);
},
{
closed = 1;
nodes = (
"1213 520 LINE",
"1213 558 LINE",
"437 558 LINE",
"437 520 LINE"
);
},
{
closed = 1;
nodes = (
"611 1650 LINE",
"838 1933 LINE",
"813 1933 LINE",
"1041 1650 LINE",
"1090 1650 LINE",
"844 1960 LINE",
"810 1960 LINE",
"564 1650 LINE"
);
}
);
width = 1654;
},
{
anchors = (
{
name = bottom;
position = "{912, 0}";
},
{
name = ogonek;
position = "{1642, 0}";
},
{
name = side;
position = "{1386, 1700}";
},
{
name = top;
position = "{912, 1910}";
}
);
layerId = "219068EA-2B9B-40DC-949E-B60449C01B8A";
paths = (
{
closed = 1;
nodes = (
"660 0 LINE",
"660 214 LINE",
"454 214 LINE",
"895 1269 LINE",
"764 1270 LINE",
"1194 214 LINE",
"986 214 LINE",
"986 0 LINE",
"1790 0 LINE",
"1790 214 LINE",
"1651 214 LINE",
"1106 1500 LINE",
"718 1500 LINE",
"173 214 LINE",
"34 214 LINE",
"34 0 LINE"
);
},
{
closed = 1;
nodes = (
"1184 425 LINE",
"1184 649 LINE",
"486 649 LINE",
"486 425 LINE"
);
},
{
closed = 1;
nodes = (
"728 1630 LINE",
"972 1843 LINE",
"802 1843 LINE",
"1042 1630 LINE",
"1326 1630 LINE",
"1120 1930 LINE",
"704 1930 LINE",
"498 1630 LINE"
);
}
);
width = 1824;
},
{
anchors = (
{
name = bottom;
position = "{903, 0}";
},
{
name = ogonek;
position = "{1619, 0}";
},
{
name = side;
position = "{1352, 1680}";
},
{
name = top;
position = "{903, 1890}";
}
);
layerId = "0C29AA02-E021-4BD1-A2C4-87F681D64C35";
paths = (
{
closed = 1;
nodes = (
"656 0 LINE",
"656 196 LINE",
"433 196 LINE",
"870 1275 LINE",
"731 1276 LINE",
"1159 196 LINE",
"936 196 LINE",
"936 0 LINE",
"1759 0 LINE",
"1759 196 LINE",
"1613 196 LINE",
"1077 1506 LINE",
"728 1506 LINE",
"192 196 LINE",
"46 196 LINE",
"46 0 LINE"
);
},
{
closed = 1;
nodes = (
"1155 433 LINE",
"1155 633 LINE",
"457 633 LINE",
"457 433 LINE"
);
},
{
closed = 1;
nodes = (
"714 1610 LINE",
"958 1823 LINE",
"788 1823 LINE",
"1028 1610 LINE",
"1292 1610 LINE",
"1106 1910 LINE",
"700 1910 LINE",
"514 1610 LINE"
);
}
);
width = 1805;
}
);
leftKerningGroup = A;
rightKerningGroup = A;
unicode = 00C2;
},
{
glyphname = Acircumflexacute;
lastChange = "2021-05-03 12:17:03 +0000";
layers = (
{
anchors = (
{
name = bottom;
position = "{845, 0}";
},
{
name = ogonek;
position = "{1590, 0}";
},
{
name = side;
position = "{1141, 1730}";
},
{
name = top;
position = "{845, 1940}";
}
);
layerId = "CA54B7DC-FBBB-40FE-ACF3-AABDD76D6A7B";
paths = (
{
closed = 1;
nodes = (
"520 0 LINE",
"520 42 LINE",
"250 42 LINE",
"851 1453 LINE",
"834 1453 LINE",
"1436 42 LINE",
"1166 42 LINE",
"1166 0 LINE",
"1662 0 LINE",
"1662 42 LINE",
"1488 42 LINE",
"864 1500 LINE",
"826 1500 LINE",
"202 42 LINE",
"28 42 LINE",
"28 0 LINE"
);
},
{
closed = 1;
nodes = (
"1252 516 LINE",
"1252 560 LINE",
"436 560 LINE",
"436 516 LINE"
);
},
{
closed = 1;
nodes = (
"629 1650 LINE",
"856 1933 LINE",
"831 1933 LINE",
"1060 1650 LINE",
"1111 1650 LINE",
"865 1960 LINE",
"825 1960 LINE",
"579 1650 LINE"
);
},
{
closed = 1;
nodes = (
"1132 1880 LINE",
"1288 2170 LINE",
"1238 2170 LINE",
"1089 1880 LINE"
);
}
);
width = 1690;
},
{
anchors = (
{
name = bottom;
position = "{827, 0}";
},
{
name = ogonek;
position = "{1543, 0}";
},
{
name = side;
position = "{1120, 1730}";
},
{
name = top;
position = "{827, 1940}";
}
);
layerId = "1E61A082-F045-49A7-AB52-DD1B03FD9B54";
paths = (
{
closed = 1;
nodes = (
"546 0 LINE",
"546 36 LINE",
"255 36 LINE",
"831 1453 LINE",
"814 1453 LINE",
"1390 36 LINE",
"1099 36 LINE",
"1099 0 LINE",
"1625 0 LINE",
"1625 36 LINE",
"1442 36 LINE",
"845 1500 LINE",
"809 1500 LINE",
"212 36 LINE",
"29 36 LINE",
"29 0 LINE"
);
},
{
closed = 1;
nodes = (
"1213 520 LINE",
"1213 558 LINE",
"437 558 LINE",
"437 520 LINE"
);
},
{
closed = 1;
nodes = (
"611 1650 LINE",
"838 1933 LINE",
"813 1933 LINE",
"1041 1650 LINE",
"1090 1650 LINE",
"844 1960 LINE",
"810 1960 LINE",
"564 1650 LINE"
);
},
{
closed = 1;
nodes = (
"1110 1880 LINE",
"1265 2170 LINE",
"1217 2170 LINE",
"1068 1880 LINE"
);
}
);
width = 1654;
},
{
anchors = (
{
name = bottom;
position = "{912, 0}";
},
{
name = ogonek;
position = "{1642, 0}";
},
{
name = side;
position = "{1386, 1700}";
},
{
name = top;
position = "{912, 1910}";
}
);
layerId = "219068EA-2B9B-40DC-949E-B60449C01B8A";
paths = (
{
closed = 1;
nodes = (
"660 0 LINE",
"660 214 LINE",
"454 214 LINE",
"895 1269 LINE",
"764 1270 LINE",
"1194 214 LINE",
"986 214 LINE",
"986 0 LINE",
"1790 0 LINE",
"1790 214 LINE",
"1651 214 LINE",
"1106 1500 LINE",
"718 1500 LINE",
"173 214 LINE",
"34 214 LINE",
"34 0 LINE"
);
},
{
closed = 1;
nodes = (
"1184 425 LINE",
"1184 649 LINE",
"486 649 LINE",
"486 425 LINE"
);
},
{
closed = 1;
nodes = (
"728 1630 LINE",
"972 1843 LINE",
"802 1843 LINE",
"1042 1630 LINE",
"1326 1630 LINE",
"1120 1930 LINE",
"704 1930 LINE",
"498 1630 LINE"
);
},
{
closed = 1;
nodes = (
"1501 1810 LINE",
"1663 2100 LINE",
"1343 2100 LINE",
"1263 1810 LINE"
);
}
);
width = 1824;
},
{
anchors = (
{
name = bottom;
position = "{903, 0}";
},
{
name = ogonek;
position = "{1619, 0}";
},
{
name = side;
position = "{1352, 1680}";
},
{
name = top;
position = "{903, 1890}";
}
);
layerId = "0C29AA02-E021-4BD1-A2C4-87F681D64C35";
paths = (
{
closed = 1;
nodes = (
"656 0 LINE",
"656 196 LINE",
"433 196 LINE",
"870 1275 LINE",
"731 1276 LINE",
"1159 196 LINE",
"936 196 LINE",
"936 0 LINE",
"1759 0 LINE",
"1759 196 LINE",
"1613 196 LINE",
"1077 1506 LINE",
"728 1506 LINE",
"192 196 LINE",
"46 196 LINE",
"46 0 LINE"
);
},
{
closed = 1;
nodes = (
"1155 433 LINE",
"1155 633 LINE",
"457 633 LINE",
"457 433 LINE"
);
},
{
closed = 1;
nodes = (
"714 1610 LINE",
"958 1823 LINE",
"788 1823 LINE",
"1028 1610 LINE",
"1292 1610 LINE",
"1106 1910 LINE",
"700 1910 LINE",
"514 1610 LINE"
);
},
{
closed = 1;
nodes = (
"1447 1790 LINE",
"1609 2080 LINE",
"1309 2080 LINE",
"1229 1790 LINE"
);
}
);
width = 1805;
}
);
leftKerningGroup = A;
rightKerningGroup = A;
unicode = 1EA4;
},
{
glyphname = Acircumflexdotbelow;
lastChange = "2021-05-03 12:17:03 +0000";
layers = (
{
anchors = (
{
name = bottom;
position = "{845, 0}";
},
{
name = ogonek;
position = "{1590, 0}";
},
{
name = side;
position = "{1141, 1730}";
},
{
name = top;
position = "{845, 1940}";
}
);
layerId = "CA54B7DC-FBBB-40FE-ACF3-AABDD76D6A7B";
paths = (
{
closed = 1;
nodes = (
"520 0 LINE",
"520 42 LINE",
"250 42 LINE",
"851 1453 LINE",
"834 1453 LINE",
"1436 42 LINE",
"1166 42 LINE",
"1166 0 LINE",
"1662 0 LINE",
"1662 42 LINE",
"1488 42 LINE",
"864 1500 LINE",
"826 1500 LINE",
"202 42 LINE",
"28 42 LINE",
"28 0 LINE"
);
},
{
closed = 1;
nodes = (
"1252 516 LINE",
"1252 560 LINE",
"436 560 LINE",
"436 516 LINE"
);
},
{
closed = 1;
nodes = (
"881 -326 OFFCURVE",
"904 -300 OFFCURVE",
"904 -264 CURVE SMOOTH",
"904 -228 OFFCURVE",
"881 -202 OFFCURVE",
"845 -202 CURVE SMOOTH",
"809 -202 OFFCURVE",
"786 -228 OFFCURVE",
"786 -264 CURVE SMOOTH",
"786 -300 OFFCURVE",
"809 -326 OFFCURVE",
"845 -326 CURVE SMOOTH"
);
},
{
closed = 1;
nodes = (
"629 1650 LINE",
"856 1933 LINE",
"831 1933 LINE",
"1060 1650 LINE",
"1111 1650 LINE",
"865 1960 LINE",
"825 1960 LINE",
"579 1650 LINE"
);
}
);
width = 1690;
},
{
anchors = (
{
name = bottom;
position = "{827, 0}";
},
{
name = ogonek;
position = "{1543, 0}";
},
{
name = side;
position = "{1120, 1730}";
},
{
name = top;
position = "{827, 1940}";
}
);
layerId = "1E61A082-F045-49A7-AB52-DD1B03FD9B54";
paths = (
{
closed = 1;
nodes = (
"546 0 LINE",
"546 36 LINE",
"255 36 LINE",
"831 1453 LINE",
"814 1453 LINE",
"1390 36 LINE",
"1099 36 LINE",
"1099 0 LINE",
"1625 0 LINE",
"1625 36 LINE",
"1442 36 LINE",
"845 1500 LINE",
"809 1500 LINE",
"212 36 LINE",
"29 36 LINE",
"29 0 LINE"
);
},
{
closed = 1;
nodes = (
"1213 520 LINE",
"1213 558 LINE",
"437 558 LINE",
"437 520 LINE"
);
},
{
closed = 1;
nodes = (
"863 -346 OFFCURVE",
"886 -320 OFFCURVE",
"886 -284 CURVE SMOOTH",
"886 -248 OFFCURVE",
"863 -222 OFFCURVE",
"827 -222 CURVE SMOOTH",
"791 -222 OFFCURVE",
"768 -248 OFFCURVE",
"768 -284 CURVE SMOOTH",
"768 -320 OFFCURVE",
"791 -346 OFFCURVE",
"827 -346 CURVE SMOOTH"
);
},
{
closed = 1;
nodes = (
"611 1650 LINE",
"838 1933 LINE",
"813 1933 LINE",
"1041 1650 LINE",
"1090 1650 LINE",
"844 1960 LINE",
"810 1960 LINE",
"564 1650 LINE"
);
}
);
width = 1654;
},
{
anchors = (
{
name = bottom;
position = "{912, 0}";
},
{
name = ogonek;
position = "{1642, 0}";
},
{
name = side;
position = "{1386, 1700}";
},
{
name = top;
position = "{912, 1910}";
}
);
layerId = "219068EA-2B9B-40DC-949E-B60449C01B8A";
paths = (
{
closed = 1;
nodes = (
"660 0 LINE",
"660 214 LINE",
"454 214 LINE",
"895 1269 LINE",
"764 1270 LINE",
"1194 214 LINE",
"986 214 LINE",
"986 0 LINE",
"1790 0 LINE",
"1790 214 LINE",
"1651 214 LINE",
"1106 1500 LINE",
"718 1500 LINE",
"173 214 LINE",
"34 214 LINE",
"34 0 LINE"
);
},
{
closed = 1;
nodes = (
"1184 425 LINE",
"1184 649 LINE",
"486 649 LINE",
"486 425 LINE"
);
},
{
closed = 1;
nodes = (
"1056 -512 OFFCURVE",
"1156 -431 OFFCURVE",
"1156 -298 CURVE SMOOTH",
"1156 -166 OFFCURVE",
"1056 -84 OFFCURVE",
"912 -84 CURVE SMOOTH",
"768 -84 OFFCURVE",
"668 -166 OFFCURVE",
"668 -298 CURVE SMOOTH",
"668 -431 OFFCURVE",
"768 -512 OFFCURVE",
"912 -512 CURVE SMOOTH"
);
},
{
closed = 1;
nodes = (
"728 1630 LINE",
"972 1843 LINE",
"802 1843 LINE",
"1042 1630 LINE",
"1326 1630 LINE",
"1120 1930 LINE",
"704 1930 LINE",
"498 1630 LINE"
);
}
);
width = 1824;
},
{
anchors = (
{
name = bottom;
position = "{903, 0}";
},
{
name = ogonek;
position = "{1619, 0}";
},
{
name = side;
position = "{1352, 1680}";
},
{
name = top;
position = "{903, 1890}";
}
);
layerId = "0C29AA02-E021-4BD1-A2C4-87F681D64C35";
paths = (
{
closed = 1;
nodes = (
"656 0 LINE",
"656 196 LINE",
"433 196 LINE",
"870 1275 LINE",
"731 1276 LINE",
"1159 196 LINE",
"936 196 LINE",
"936 0 LINE",
"1759 0 LINE",
"1759 196 LINE",
"1613 196 LINE",
"1077 1506 LINE",
"728 1506 LINE",
"192 196 LINE",
"46 196 LINE",
"46 0 LINE"
);
},
{
closed = 1;
nodes = (
"1155 433 LINE",
"1155 633 LINE",
"457 633 LINE",
"457 433 LINE"
);
},
{
closed = 1;
nodes = (
"1038 -498 OFFCURVE",
"1131 -419 OFFCURVE",
"1131 -288 CURVE SMOOTH",
"1131 -158 OFFCURVE",
"1038 -78 OFFCURVE",
"903 -78 CURVE SMOOTH",
"768 -78 OFFCURVE",
"675 -158 OFFCURVE",
"675 -288 CURVE SMOOTH",
"675 -419 OFFCURVE",
"768 -498 OFFCURVE",
"903 -498 CURVE SMOOTH"
);
},
{
closed = 1;
nodes = (
"714 1610 LINE",
"958 1823 LINE",
"788 1823 LINE",
"1028 1610 LINE",
"1292 1610 LINE",
"1106 1910 LINE",
"700 1910 LINE",
"514 1610 LINE"
);
}
);
width = 1805;
}
);
leftKerningGroup = A;
rightKerningGroup = A;
unicode = 1EAC;
},
{
glyphname = Acircumflexgrave;
lastChange = "2021-05-03 12:17:03 +0000";
layers = (
{
anchors = (
{
name = bottom;
position = "{845, 0}";
},
{
name = ogonek;
position = "{1590, 0}";
},
{
name = side;
position = "{1141, 1730}";
},
{
name = top;
position = "{845, 1940}";
}
);
layerId = "CA54B7DC-FBBB-40FE-ACF3-AABDD76D6A7B";
paths = (
{
closed = 1;
nodes = (
"520 0 LINE",
"520 42 LINE",
"250 42 LINE",
"851 1453 LINE",
"834 1453 LINE",
"1436 42 LINE",
"1166 42 LINE",
"1166 0 LINE",
"1662 0 LINE",
"1662 42 LINE",
"1488 42 LINE",
"864 1500 LINE",
"826 1500 LINE",
"202 42 LINE",
"28 42 LINE",
"28 0 LINE"
);
},
{
closed = 1;
nodes = (
"1252 516 LINE",
"1252 560 LINE",
"436 560 LINE",
"436 516 LINE"
);
},
{
closed = 1;
nodes = (
"629 1650 LINE",
"856 1933 LINE",
"831 1933 LINE",
"1060 1650 LINE",
"1111 1650 LINE",
"865 1960 LINE",
"825 1960 LINE",
"579 1650 LINE"
);
},
{
closed = 1;
nodes = (
"1193 1880 LINE",
"1044 2170 LINE",
"994 2170 LINE",
"1150 1880 LINE"
);
}
);
width = 1690;
},
{
anchors = (
{
name = bottom;
position = "{827, 0}";
},
{
name = ogonek;
position = "{1543, 0}";
},
{
name = side;
position = "{1120, 1730}";
},
{
name = top;
position = "{827, 1940}";
}
);
layerId = "1E61A082-F045-49A7-AB52-DD1B03FD9B54";
paths = (
{
closed = 1;
nodes = (
"546 0 LINE",
"546 36 LINE",
"255 36 LINE",
"831 1453 LINE",
"814 1453 LINE",
"1390 36 LINE",
"1099 36 LINE",
"1099 0 LINE",
"1625 0 LINE",
"1625 36 LINE",
"1442 36 LINE",
"845 1500 LINE",
"809 1500 LINE",
"212 36 LINE",
"29 36 LINE",
"29 0 LINE"
);
},
{
closed = 1;
nodes = (
"1213 520 LINE",
"1213 558 LINE",
"437 558 LINE",
"437 520 LINE"
);
},
{
closed = 1;
nodes = (
"611 1650 LINE",
"838 1933 LINE",
"813 1933 LINE",
"1041 1650 LINE",
"1090 1650 LINE",
"844 1960 LINE",
"810 1960 LINE",
"564 1650 LINE"
);
},
{
closed = 1;
nodes = (
"1172 1880 LINE",
"1023 2170 LINE",
"975 2170 LINE",
"1130 1880 LINE"
);
}
);
width = 1654;
},
{
anchors = (
{
name = bottom;
position = "{912, 0}";
},
{
name = ogonek;
position = "{1642, 0}";
},
{
name = side;
position = "{1386, 1700}";
},
{
name = top;
position = "{912, 1910}";
}
);
layerId = "219068EA-2B9B-40DC-949E-B60449C01B8A";
paths = (
{
closed = 1;
nodes = (
"660 0 LINE",
"660 214 LINE",
"454 214 LINE",
"895 1269 LINE",
"764 1270 LINE",
"1194 214 LINE",
"986 214 LINE",
"986 0 LINE",
"1790 0 LINE",
"1790 214 LINE",
"1651 214 LINE",
"1106 1500 LINE",
"718 1500 LINE",
"173 214 LINE",
"34 214 LINE",
"34 0 LINE"
);
},
{
closed = 1;
nodes = (
"1184 425 LINE",
"1184 649 LINE",
"486 649 LINE",
"486 425 LINE"
);
},
{
closed = 1;
nodes = (
"728 1630 LINE",
"972 1843 LINE",
"802 1843 LINE",
"1042 1630 LINE",
"1326 1630 LINE",
"1120 1930 LINE",
"704 1930 LINE",
"498 1630 LINE"
);
},
{
closed = 1;
nodes = (
"1529 1810 LINE",
"1449 2100 LINE",
"1129 2100 LINE",
"1291 1810 LINE"
);
}
);
width = 1824;
},
{
anchors = (
{
name = bottom;
position = "{903, 0}";
},
{
name = ogonek;
position = "{1619, 0}";
},
{
name = side;
position = "{1352, 1680}";
},
{
name = top;
position = "{903, 1890}";
}
);
layerId = "0C29AA02-E021-4BD1-A2C4-87F681D64C35";
paths = (
{
closed = 1;
nodes = (
"656 0 LINE",
"656 196 LINE",
"433 196 LINE",
"870 1275 LINE",
"731 1276 LINE",
"1159 196 LINE",
"936 196 LINE",
"936 0 LINE",
"1759 0 LINE",
"1759 196 LINE",
"1613 196 LINE",
"1077 1506 LINE",
"728 1506 LINE",
"192 196 LINE",
"46 196 LINE",
"46 0 LINE"
);
},
{
closed = 1;
nodes = (
"1155 433 LINE",
"1155 633 LINE",
"457 633 LINE",
"457 433 LINE"
);
},
{
closed = 1;
nodes = (
"714 1610 LINE",
"958 1823 LINE",
"788 1823 LINE",
"1028 1610 LINE",
"1292 1610 LINE",
"1106 1910 LINE",
"700 1910 LINE",
"514 1610 LINE"
);
},
{
closed = 1;
nodes = (
"1495 1790 LINE",
"1415 2080 LINE",
"1115 2080 LINE",
"1277 1790 LINE"
);
}
);
width = 1805;
}
);
leftKerningGroup = A;
rightKerningGroup = A;
unicode = 1EA6;
},
{
glyphname = Acircumflexhookabove;
lastChange = "2021-05-03 12:17:03 +0000";
layers = (
{
anchors = (
{
name = bottom;
position = "{845, 0}";
},
{
name = ogonek;
position = "{1590, 0}";
},
{
name = side;
position = "{1141, 1730}";
},
{
name = top;
position = "{845, 1940}";
}
);
layerId = "CA54B7DC-FBBB-40FE-ACF3-AABDD76D6A7B";
paths = (
{
closed = 1;
nodes = (
"520 0 LINE",
"520 42 LINE",
"250 42 LINE",
"851 1453 LINE",
"834 1453 LINE",
"1436 42 LINE",
"1166 42 LINE",
"1166 0 LINE",
"1662 0 LINE",
"1662 42 LINE",
"1488 42 LINE",
"864 1500 LINE",
"826 1500 LINE",
"202 42 LINE",
"28 42 LINE",
"28 0 LINE"
);
},
{
closed = 1;
nodes = (
"1252 516 LINE",
"1252 560 LINE",
"436 560 LINE",
"436 516 LINE"
);
},
{
closed = 1;
nodes = (
"629 1650 LINE",
"856 1933 LINE",
"831 1933 LINE",
"1060 1650 LINE",
"1111 1650 LINE",
"865 1960 LINE",
"825 1960 LINE",
"579 1650 LINE"
);
},
{
closed = 1;
nodes = (
"1163 1860 LINE",
"1160 1918 OFFCURVE",
"1174 1946 OFFCURVE",
"1229 1981 CURVE SMOOTH",
"1280 2013 OFFCURVE",
"1334 2045 OFFCURVE",
"1334 2126 CURVE SMOOTH",
"1334 2213 OFFCURVE",
"1250 2256 OFFCURVE",
"1149 2256 CURVE",
"1148 2222 LINE",
"1230 2222 OFFCURVE",
"1290 2183 OFFCURVE",
"1290 2126 CURVE SMOOTH",
"1290 2072 OFFCURVE",
"1253 2043 OFFCURVE",
"1206 2014 CURVE SMOOTH",
"1154 1982 OFFCURVE",
"1117 1947 OFFCURVE",
"1123 1860 CURVE"
);
},
{
closed = 1;
nodes = (
"1048 2080 OFFCURVE",
"1066 2099 OFFCURVE",
"1066 2126 CURVE SMOOTH",
"1066 2156 OFFCURVE",
"1044 2173 OFFCURVE",
"1002 2173 CURVE",
"1001 2149 LINE",
"1016 2190 OFFCURVE",
"1070 2222 OFFCURVE",
"1148 2222 CURVE",
"1149 2256 LINE",
"1041 2256 OFFCURVE",
"960 2202 OFFCURVE",
"960 2139 CURVE SMOOTH",
"960 2102 OFFCURVE",
"984 2080 OFFCURVE",
"1017 2080 CURVE SMOOTH"
);
}
);
width = 1690;
},
{
anchors = (
{
name = bottom;
position = "{827, 0}";
},
{
name = ogonek;
position = "{1543, 0}";
},
{
name = side;
position = "{1120, 1730}";
},
{
name = top;
position = "{827, 1940}";
}
);
layerId = "1E61A082-F045-49A7-AB52-DD1B03FD9B54";
paths = (
{
closed = 1;
nodes = (
"546 0 LINE",
"546 36 LINE",
"255 36 LINE",
"831 1453 LINE",
"814 1453 LINE",
"1390 36 LINE",
"1099 36 LINE",
"1099 0 LINE",
"1625 0 LINE",
"1625 36 LINE",
"1442 36 LINE",
"845 1500 LINE",
"809 1500 LINE",
"212 36 LINE",
"29 36 LINE",
"29 0 LINE"
);
},
{
closed = 1;
nodes = (
"1213 520 LINE",
"1213 558 LINE",
"437 558 LINE",
"437 520 LINE"
);
},
{
closed = 1;
nodes = (
"611 1650 LINE",
"838 1933 LINE",
"813 1933 LINE",
"1041 1650 LINE",
"1090 1650 LINE",
"844 1960 LINE",
"810 1960 LINE",
"564 1650 LINE"
);
},
{
closed = 1;
nodes = (
"1142 1860 LINE",
"1139 1918 OFFCURVE",
"1153 1946 OFFCURVE",
"1208 1981 CURVE SMOOTH",
"1259 2013 OFFCURVE",
"1313 2045 OFFCURVE",
"1313 2126 CURVE SMOOTH",
"1313 2213 OFFCURVE",
"1229 2256 OFFCURVE",
"1128 2256 CURVE",
"1127 2222 LINE",
"1209 2222 OFFCURVE",
"1269 2183 OFFCURVE",
"1269 2126 CURVE SMOOTH",
"1269 2072 OFFCURVE",
"1232 2043 OFFCURVE",
"1185 2014 CURVE SMOOTH",
"1133 1982 OFFCURVE",
"1096 1947 OFFCURVE",
"1102 1860 CURVE"
);
},
{
closed = 1;
nodes = (
"1027 2080 OFFCURVE",
"1045 2099 OFFCURVE",
"1045 2126 CURVE SMOOTH",
"1045 2156 OFFCURVE",
"1023 2173 OFFCURVE",
"981 2173 CURVE",
"980 2149 LINE",
"995 2190 OFFCURVE",
"1049 2222 OFFCURVE",
"1127 2222 CURVE",
"1128 2256 LINE",
"1020 2256 OFFCURVE",
"939 2202 OFFCURVE",
"939 2139 CURVE SMOOTH",
"939 2102 OFFCURVE",
"963 2080 OFFCURVE",
"996 2080 CURVE SMOOTH"
);
}
);
width = 1654;
},
{
anchors = (
{
name = bottom;
position = "{912, 0}";
},
{
name = ogonek;
position = "{1642, 0}";
},
{
name = side;
position = "{1386, 1700}";
},
{
name = top;
position = "{912, 1910}";
}
);
layerId = "219068EA-2B9B-40DC-949E-B60449C01B8A";
paths = (
{
closed = 1;
nodes = (
"660 0 LINE",
"660 214 LINE",
"454 214 LINE",
"895 1269 LINE",
"764 1270 LINE",
"1194 214 LINE",
"986 214 LINE",
"986 0 LINE",
"1790 0 LINE",
"1790 214 LINE",
"1651 214 LINE",
"1106 1500 LINE",
"718 1500 LINE",
"173 214 LINE",
"34 214 LINE",
"34 0 LINE"
);
},
{
closed = 1;
nodes = (
"1184 425 LINE",
"1184 649 LINE",
"486 649 LINE",
"486 425 LINE"
);
},
{
closed = 1;
nodes = (
"728 1630 LINE",
"972 1843 LINE",
"802 1843 LINE",
"1042 1630 LINE",
"1326 1630 LINE",
"1120 1930 LINE",
"704 1930 LINE",
"498 1630 LINE"
);
},
{
closed = 1;
nodes = (
"1439 1820 LINE",
"1439 1854 OFFCURVE",
"1451 1881 OFFCURVE",
"1495 1901 CURVE SMOOTH",
"1588 1944 OFFCURVE",
"1689 1997 OFFCURVE",
"1689 2119 CURVE SMOOTH",
"1689 2261 OFFCURVE",
"1556 2326 OFFCURVE",
"1397 2326 CURVE",
"1390 2206 LINE",
"1439 2206 OFFCURVE",
"1472 2183 OFFCURVE",
"1472 2146 CURVE SMOOTH",
"1472 2102 OFFCURVE",
"1436 2072 OFFCURVE",
"1385 2035 CURVE SMOOTH",
"1313 1983 OFFCURVE",
"1268 1911 OFFCURVE",
"1303 1820 CURVE"
);
},
{
closed = 1;
nodes = (
"1316 2068 OFFCURVE",
"1364 2100 OFFCURVE",
"1364 2148 CURVE SMOOTH",
"1364 2203 OFFCURVE",
"1311 2220 OFFCURVE",
"1231 2220 CURVE",
"1267 2160 LINE",
"1298 2187 OFFCURVE",
"1338 2206 OFFCURVE",
"1390 2206 CURVE",
"1397 2326 LINE",
"1230 2326 OFFCURVE",
"1103 2264 OFFCURVE",
"1103 2169 CURVE SMOOTH",
"1103 2108 OFFCURVE",
"1159 2068 OFFCURVE",
"1244 2068 CURVE SMOOTH"
);
}
);
width = 1824;
},
{
anchors = (
{
name = bottom;
position = "{903, 0}";
},
{
name = ogonek;
position = "{1619, 0}";
},
{
name = side;
position = "{1352, 1680}";
},
{
name = top;
position = "{903, 1890}";
}
);
layerId = "0C29AA02-E021-4BD1-A2C4-87F681D64C35";
paths = (
{
closed = 1;
nodes = (
"656 0 LINE",
"656 196 LINE",
"433 196 LINE",
"870 1275 LINE",
"731 1276 LINE",
"1159 196 LINE",
"936 196 LINE",
"936 0 LINE",
"1759 0 LINE",
"1759 196 LINE",
"1613 196 LINE",
"1077 1506 LINE",
"728 1506 LINE",
"192 196 LINE",
"46 196 LINE",
"46 0 LINE"
);
},
{
closed = 1;
nodes = (
"1155 433 LINE",
"1155 633 LINE",
"457 633 LINE",
"457 433 LINE"
);
},
{
closed = 1;
nodes = (
"714 1610 LINE",
"958 1823 LINE",
"788 1823 LINE",
"1028 1610 LINE",
"1292 1610 LINE",
"1106 1910 LINE",
"700 1910 LINE",
"514 1610 LINE"
);
},
{
closed = 1;
nodes = (
"1403 1780 LINE",
"1403 1814 OFFCURVE",
"1417 1841 OFFCURVE",
"1461 1861 CURVE SMOOTH",
"1554 1904 OFFCURVE",
"1655 1957 OFFCURVE",
"1655 2079 CURVE SMOOTH",
"1655 2221 OFFCURVE",
"1522 2286 OFFCURVE",
"1363 2286 CURVE",
"1356 2174 LINE",
"1405 2174 OFFCURVE",
"1438 2149 OFFCURVE",
"1438 2108 CURVE SMOOTH",
"1438 2065 OFFCURVE",
"1403 2031 OFFCURVE",
"1352 1994 CURVE SMOOTH",
"1280 1942 OFFCURVE",
"1236 1871 OFFCURVE",
"1273 1780 CURVE"
);
},
{
closed = 1;
nodes = (
"1282 2016 OFFCURVE",
"1330 2050 OFFCURVE",
"1330 2102 CURVE SMOOTH",
"1330 2162 OFFCURVE",
"1277 2180 OFFCURVE",
"1197 2180 CURVE",
"1233 2128 LINE",
"1264 2155 OFFCURVE",
"1304 2174 OFFCURVE",
"1356 2174 CURVE",
"1363 2286 LINE",
"1196 2286 OFFCURVE",
"1069 2222 OFFCURVE",
"1069 2123 CURVE SMOOTH",
"1069 2058 OFFCURVE",
"1125 2016 OFFCURVE",
"1210 2016 CURVE SMOOTH"
);
}
);
width = 1805;
}
);
leftKerningGroup = A;
rightKerningGroup = A;
unicode = 1EA8;
},
{
glyphname = Acircumflextilde;
lastChange = "2021-05-03 12:17:03 +0000";
layers = (
{
anchors = (
{
name = bottom;
position = "{845, 0}";
},
{
name = ogonek;
position = "{1590, 0}";
},
{
name = side;
position = "{1141, 1730}";
},
{
name = top;
position = "{845, 2264}";
}
);
layerId = "CA54B7DC-FBBB-40FE-ACF3-AABDD76D6A7B";
paths = (
{
closed = 1;
nodes = (
"520 0 LINE",
"520 42 LINE",
"250 42 LINE",
"851 1453 LINE",
"834 1453 LINE",
"1436 42 LINE",
"1166 42 LINE",
"1166 0 LINE",
"1662 0 LINE",
"1662 42 LINE",
"1488 42 LINE",
"864 1500 LINE",
"826 1500 LINE",
"202 42 LINE",
"28 42 LINE",
"28 0 LINE"
);
},
{
closed = 1;
nodes = (
"1252 516 LINE",
"1252 560 LINE",
"436 560 LINE",
"436 516 LINE"
);
},
{
closed = 1;
nodes = (
"629 1650 LINE",
"856 1933 LINE",
"831 1933 LINE",
"1060 1650 LINE",
"1111 1650 LINE",
"865 1960 LINE",
"825 1960 LINE",
"579 1650 LINE"
);
},
{
closed = 1;
nodes = (
"1068 2078 OFFCURVE",
"1103 2140 OFFCURVE",
"1103 2245 CURVE SMOOTH",
"1103 2320 LINE",
"1063 2320 LINE",
"1063 2249 LINE SMOOTH",
"1063 2158 OFFCURVE",
"1040 2118 OFFCURVE",
"983 2118 CURVE SMOOTH",
"930 2118 OFFCURVE",
"903 2163 OFFCURVE",
"873 2203 CURVE SMOOTH",
"852 2231 LINE",
"817 2207 LINE",
"838 2179 LINE SMOOTH",
"872 2133 OFFCURVE",
"908 2078 OFFCURVE",
"983 2078 CURVE SMOOTH"
);
},
{
closed = 1;
nodes = (
"587 2090 LINE",
"627 2090 LINE",
"627 2161 LINE SMOOTH",
"627 2252 OFFCURVE",
"650 2292 OFFCURVE",
"707 2292 CURVE SMOOTH",
"760 2292 OFFCURVE",
"787 2247 OFFCURVE",
"817 2207 CURVE SMOOTH",
"838 2179 LINE",
"873 2203 LINE",
"852 2231 LINE SMOOTH",
"818 2277 OFFCURVE",
"782 2332 OFFCURVE",
"707 2332 CURVE SMOOTH",
"622 2332 OFFCURVE",
"587 2270 OFFCURVE",
"587 2165 CURVE SMOOTH"
);
}
);
width = 1690;
},
{
anchors = (
{
name = bottom;
position = "{827, 0}";
},
{
name = ogonek;
position = "{1543, 0}";
},
{
name = side;
position = "{1120, 1730}";
},
{
name = top;
position = "{827, 2318}";
}
);
layerId = "1E61A082-F045-49A7-AB52-DD1B03FD9B54";
paths = (
{
closed = 1;
nodes = (
"546 0 LINE",
"546 36 LINE",
"255 36 LINE",
"831 1453 LINE",
"814 1453 LINE",
"1390 36 LINE",
"1099 36 LINE",
"1099 0 LINE",
"1625 0 LINE",
"1625 36 LINE",
"1442 36 LINE",
"845 1500 LINE",
"809 1500 LINE",
"212 36 LINE",
"29 36 LINE",
"29 0 LINE"
);
},
{
closed = 1;
nodes = (
"1213 520 LINE",
"1213 558 LINE",
"437 558 LINE",
"437 520 LINE"
);
},
{
closed = 1;
nodes = (
"611 1650 LINE",
"838 1933 LINE",
"813 1933 LINE",
"1041 1650 LINE",
"1090 1650 LINE",
"844 1960 LINE",
"810 1960 LINE",
"564 1650 LINE"
);
},
{
closed = 1;
nodes = (
"1050 2098 OFFCURVE",
"1089 2160 OFFCURVE",
"1089 2265 CURVE SMOOTH",
"1089 2340 LINE",
"1051 2340 LINE",
"1051 2269 LINE SMOOTH",
"1051 2178 OFFCURVE",
"1022 2138 OFFCURVE",
"965 2138 CURVE SMOOTH",
"914 2138 OFFCURVE",
"882 2182 OFFCURVE",
"853 2224 CURVE SMOOTH",
"834 2252 LINE",
"801 2226 LINE",
"820 2198 LINE SMOOTH",
"852 2150 OFFCURVE",
"894 2098 OFFCURVE",
"965 2098 CURVE SMOOTH"
);
},
{
closed = 1;
nodes = (
"565 2110 LINE",
"603 2110 LINE",
"603 2181 LINE SMOOTH",
"603 2272 OFFCURVE",
"632 2312 OFFCURVE",
"689 2312 CURVE SMOOTH",
"740 2312 OFFCURVE",
"772 2268 OFFCURVE",
"801 2226 CURVE SMOOTH",
"820 2198 LINE",
"853 2224 LINE",
"834 2252 LINE SMOOTH",
"802 2300 OFFCURVE",
"760 2352 OFFCURVE",
"689 2352 CURVE SMOOTH",
"604 2352 OFFCURVE",
"565 2290 OFFCURVE",
"565 2185 CURVE SMOOTH"
);
}
);
width = 1654;
},
{
anchors = (
{
name = bottom;
position = "{912, 0}";
},
{
name = ogonek;
position = "{1642, 0}";
},
{
name = side;
position = "{1386, 1700}";
},
{
name = top;
position = "{912, 2310}";
}
);
layerId = "219068EA-2B9B-40DC-949E-B60449C01B8A";
paths = (
{
closed = 1;
nodes = (
"660 0 LINE",
"660 214 LINE",
"454 214 LINE",
"895 1269 LINE",
"764 1270 LINE",
"1194 214 LINE",
"986 214 LINE",
"986 0 LINE",
"1790 0 LINE",
"1790 214 LINE",
"1651 214 LINE",
"1106 1500 LINE",
"718 1500 LINE",
"173 214 LINE",
"34 214 LINE",
"34 0 LINE"
);
},
{
closed = 1;
nodes = (
"1184 425 LINE",
"1184 649 LINE",
"486 649 LINE",
"486 425 LINE"
);
},
{
closed = 1;
nodes = (
"728 1630 LINE",
"972 1843 LINE",
"802 1843 LINE",
"1042 1630 LINE",
"1326 1630 LINE",
"1120 1930 LINE",
"704 1930 LINE",
"498 1630 LINE"
);
},
{
closed = 1;
nodes = (
"1200 2018 OFFCURVE",
"1268 2103 OFFCURVE",
"1268 2254 CURVE SMOOTH",
"1268 2340 LINE",
"1102 2340 LINE",
"1102 2304 LINE SMOOTH",
"1102 2255 OFFCURVE",
"1087 2228 OFFCURVE",
"1050 2228 CURVE SMOOTH",
"1021 2228 OFFCURVE",
"1002 2239 OFFCURVE",
"973 2260 CURVE SMOOTH",
"939 2285 LINE",
"851 2120 LINE",
"885 2095 LINE SMOOTH",
"943 2052 OFFCURVE",
"997 2018 OFFCURVE",
"1076 2018 CURVE SMOOTH"
);
},
{
closed = 1;
nodes = (
"556 2040 LINE",
"722 2040 LINE",
"722 2076 LINE SMOOTH",
"722 2125 OFFCURVE",
"737 2152 OFFCURVE",
"774 2152 CURVE SMOOTH",
"803 2152 OFFCURVE",
"822 2141 OFFCURVE",
"851 2120 CURVE SMOOTH",
"885 2095 LINE",
"973 2260 LINE",
"939 2285 LINE SMOOTH",
"881 2328 OFFCURVE",
"827 2362 OFFCURVE",
"748 2362 CURVE SMOOTH",
"624 2362 OFFCURVE",
"556 2277 OFFCURVE",
"556 2126 CURVE SMOOTH"
);
}
);
width = 1824;
},
{
anchors = (
{
name = bottom;
position = "{903, 0}";
},
{
name = ogonek;
position = "{1619, 0}";
},
{
name = side;
position = "{1352, 1680}";
},
{
name = top;
position = "{903, 2268}";
}
);
layerId = "0C29AA02-E021-4BD1-A2C4-87F681D64C35";
paths = (
{
closed = 1;
nodes = (
"656 0 LINE",
"656 196 LINE",
"433 196 LINE",
"870 1275 LINE",
"731 1276 LINE",
"1159 196 LINE",
"936 196 LINE",
"936 0 LINE",
"1759 0 LINE",
"1759 196 LINE",
"1613 196 LINE",
"1077 1506 LINE",
"728 1506 LINE",
"192 196 LINE",
"46 196 LINE",
"46 0 LINE"
);
},
{
closed = 1;
nodes = (
"1155 433 LINE",
"1155 633 LINE",
"457 633 LINE",
"457 433 LINE"
);
},
{
closed = 1;
nodes = (
"714 1610 LINE",
"958 1823 LINE",
"788 1823 LINE",
"1028 1610 LINE",
"1292 1610 LINE",
"1106 1910 LINE",
"700 1910 LINE",
"514 1610 LINE"
);
},
{
closed = 1;
nodes = (
"1195 1978 OFFCURVE",
"1259 2059 OFFCURVE",
"1259 2204 CURVE SMOOTH",
"1259 2300 LINE",
"1101 2300 LINE",
"1101 2264 LINE SMOOTH",
"1101 2214 OFFCURVE",
"1083 2186 OFFCURVE",
"1049 2186 CURVE SMOOTH",
"1019 2186 OFFCURVE",
"995 2199 OFFCURVE",
"965 2220 CURVE SMOOTH",
"929 2245 LINE",
"841 2080 LINE",
"877 2055 LINE SMOOTH",
"937 2013 OFFCURVE",
"992 1978 OFFCURVE",
"1071 1978 CURVE SMOOTH"
);
},
{
closed = 1;
nodes = (
"547 2000 LINE",
"705 2000 LINE",
"705 2036 LINE SMOOTH",
"705 2086 OFFCURVE",
"723 2114 OFFCURVE",
"757 2114 CURVE SMOOTH",
"787 2114 OFFCURVE",
"811 2101 OFFCURVE",
"841 2080 CURVE SMOOTH",
"877 2055 LINE",
"965 2220 LINE",
"929 2245 LINE SMOOTH",
"869 2287 OFFCURVE",
"814 2322 OFFCURVE",
"735 2322 CURVE SMOOTH",
"611 2322 OFFCURVE",
"547 2241 OFFCURVE",
"547 2096 CURVE SMOOTH"
);
}
);
width = 1805;
}
);
leftKerningGroup = A;
rightKerningGroup = A;
unicode = 1EAA;
},
{
glyphname = Adblgrave;
lastChange = "2021-05-03 12:17:03 +0000";
layers = (
{
anchors = (
{
name = bottom;
position = "{845, 0}";
},
{
name = ogonek;
position = "{1590, 0}";
},
{
name = top;
position = "{845, 1500}";
}
);
layerId = "CA54B7DC-FBBB-40FE-ACF3-AABDD76D6A7B";
paths = (
{
closed = 1;
nodes = (
"520 0 LINE",
"520 42 LINE",
"250 42 LINE",
"851 1453 LINE",
"834 1453 LINE",
"1436 42 LINE",
"1166 42 LINE",
"1166 0 LINE",
"1662 0 LINE",
"1662 42 LINE",
"1488 42 LINE",
"864 1500 LINE",
"826 1500 LINE",
"202 42 LINE",
"28 42 LINE",
"28 0 LINE"
);
},
{
closed = 1;
nodes = (
"1252 516 LINE",
"1252 560 LINE",
"436 560 LINE",
"436 516 LINE"
);
},
{
closed = 1;
nodes = (
"738 1650 LINE",
"488 1960 LINE",
"428 1960 LINE",
"687 1650 LINE"
);
},
{
closed = 1;
nodes = (
"1017 1650 LINE",
"780 1960 LINE",
"721 1960 LINE",
"967 1650 LINE"
);
}
);
width = 1690;
},
{
anchors = (
{
name = bottom;
position = "{827, 0}";
},
{
name = ogonek;
position = "{1543, 0}";
},
{
name = top;
position = "{827, 1500}";
}
);
layerId = "1E61A082-F045-49A7-AB52-DD1B03FD9B54";
paths = (
{
closed = 1;
nodes = (
"546 0 LINE",
"546 36 LINE",
"255 36 LINE",
"831 1453 LINE",
"814 1453 LINE",
"1390 36 LINE",
"1099 36 LINE",
"1099 0 LINE",
"1625 0 LINE",
"1625 36 LINE",
"1442 36 LINE",
"845 1500 LINE",
"809 1500 LINE",
"212 36 LINE",
"29 36 LINE",
"29 0 LINE"
);
},
{
closed = 1;
nodes = (
"1213 520 LINE",
"1213 558 LINE",
"437 558 LINE",
"437 520 LINE"
);
},
{
closed = 1;
nodes = (
"719 1650 LINE",
"469 1960 LINE",
"411 1960 LINE",
"670 1650 LINE"
);
},
{
closed = 1;
nodes = (
"998 1650 LINE",
"760 1960 LINE",
"704 1960 LINE",
"950 1650 LINE"
);
}
);
width = 1654;
},
{
anchors = (
{
name = bottom;
position = "{912, 0}";
},
{
name = ogonek;
position = "{1642, 0}";
},
{
name = top;
position = "{912, 1500}";
}
);
layerId = "219068EA-2B9B-40DC-949E-B60449C01B8A";
paths = (
{
closed = 1;
nodes = (
"660 0 LINE",
"660 214 LINE",
"454 214 LINE",
"895 1269 LINE",
"764 1270 LINE",
"1194 214 LINE",
"986 214 LINE",
"986 0 LINE",
"1790 0 LINE",
"1790 214 LINE",
"1651 214 LINE",
"1106 1500 LINE",
"718 1500 LINE",
"173 214 LINE",
"34 214 LINE",
"34 0 LINE"
);
},
{
closed = 1;
nodes = (
"1184 425 LINE",
"1184 649 LINE",
"486 649 LINE",
"486 425 LINE"
);
},
{
closed = 1;
nodes = (
"853 1630 LINE",
"681 1930 LINE",
"293 1930 LINE",
"607 1630 LINE"
);
},
{
closed = 1;
nodes = (
"1251 1630 LINE",
"1149 1930 LINE",
"801 1930 LINE",
"1017 1630 LINE"
);
}
);
width = 1824;
},
{
anchors = (
{
name = bottom;
position = "{903, 0}";
},
{
name = ogonek;
position = "{1619, 0}";
},
{
name = top;
position = "{903, 1500}";
}
);
layerId = "0C29AA02-E021-4BD1-A2C4-87F681D64C35";
paths = (
{
closed = 1;
nodes = (
"656 0 LINE",
"656 196 LINE",
"433 196 LINE",
"870 1275 LINE",
"731 1276 LINE",
"1159 196 LINE",
"936 196 LINE",
"936 0 LINE",
"1759 0 LINE",
"1759 196 LINE",
"1613 196 LINE",
"1077 1506 LINE",
"728 1506 LINE",
"192 196 LINE",
"46 196 LINE",
"46 0 LINE"
);
},
{
closed = 1;
nodes = (
"1155 433 LINE",
"1155 633 LINE",
"457 633 LINE",
"457 433 LINE"
);
},
{
closed = 1;
nodes = (
"854 1610 LINE",
"682 1910 LINE",
"292 1910 LINE",
"620 1610 LINE"
);
},
{
closed = 1;
nodes = (
"1222 1610 LINE",
"1122 1910 LINE",
"780 1910 LINE",
"1014 1610 LINE"
);
}
);
width = 1805;
}
);
leftKerningGroup = A;
rightKerningGroup = A;
unicode = 0200;
},
{
glyphname = Adieresis;
lastChange = "2021-05-03 12:17:03 +0000";
layers = (
{
anchors = (
{
name = bottom;
position = "{845, 0}";
},
{
name = ogonek;
position = "{1590, 0}";
},
{
name = top;
position = "{845, 1834}";
}
);
layerId = "CA54B7DC-FBBB-40FE-ACF3-AABDD76D6A7B";
paths = (
{
closed = 1;
nodes = (
"520 0 LINE",
"520 42 LINE",
"250 42 LINE",
"851 1453 LINE",
"834 1453 LINE",
"1436 42 LINE",
"1166 42 LINE",
"1166 0 LINE",
"1662 0 LINE",
"1662 42 LINE",
"1488 42 LINE",
"864 1500 LINE",
"826 1500 LINE",
"202 42 LINE",
"28 42 LINE",
"28 0 LINE"
);
},
{
closed = 1;
nodes = (
"1252 516 LINE",
"1252 560 LINE",
"436 560 LINE",
"436 516 LINE"
);
},
{
closed = 1;
nodes = (
"1090 1702 OFFCURVE",
"1113 1728 OFFCURVE",
"1113 1764 CURVE SMOOTH",
"1113 1800 OFFCURVE",
"1090 1826 OFFCURVE",
"1054 1826 CURVE SMOOTH",
"1018 1826 OFFCURVE",
"995 1800 OFFCURVE",
"995 1764 CURVE SMOOTH",
"995 1728 OFFCURVE",
"1018 1702 OFFCURVE",
"1054 1702 CURVE SMOOTH"
);
},
{
closed = 1;
nodes = (
"672 1702 OFFCURVE",
"695 1728 OFFCURVE",
"695 1764 CURVE SMOOTH",
"695 1800 OFFCURVE",
"672 1826 OFFCURVE",
"636 1826 CURVE SMOOTH",
"600 1826 OFFCURVE",
"577 1800 OFFCURVE",
"577 1764 CURVE SMOOTH",
"577 1728 OFFCURVE",
"600 1702 OFFCURVE",
"636 1702 CURVE SMOOTH"
);
}
);
width = 1690;
},
{
anchors = (
{
name = bottom;
position = "{827, 0}";
},
{
name = ogonek;
position = "{1543, 0}";
},
{
name = top;
position = "{827, 1870}";
}
);
layerId = "1E61A082-F045-49A7-AB52-DD1B03FD9B54";
paths = (
{
closed = 1;
nodes = (
"546 0 LINE",
"546 36 LINE",
"255 36 LINE",
"831 1453 LINE",
"814 1453 LINE",
"1390 36 LINE",
"1099 36 LINE",
"1099 0 LINE",
"1625 0 LINE",
"1625 36 LINE",
"1442 36 LINE",
"845 1500 LINE",
"809 1500 LINE",
"212 36 LINE",
"29 36 LINE",
"29 0 LINE"
);
},
{
closed = 1;
nodes = (
"1213 520 LINE",
"1213 558 LINE",
"437 558 LINE",
"437 520 LINE"
);
},
{
closed = 1;
nodes = (
"1052 1722 OFFCURVE",
"1075 1748 OFFCURVE",
"1075 1784 CURVE SMOOTH",
"1075 1820 OFFCURVE",
"1052 1846 OFFCURVE",
"1016 1846 CURVE SMOOTH",
"980 1846 OFFCURVE",
"957 1820 OFFCURVE",
"957 1784 CURVE SMOOTH",
"957 1748 OFFCURVE",
"980 1722 OFFCURVE",
"1016 1722 CURVE SMOOTH"
);
},
{
closed = 1;
nodes = (
"674 1722 OFFCURVE",
"697 1748 OFFCURVE",
"697 1784 CURVE SMOOTH",
"697 1820 OFFCURVE",
"674 1846 OFFCURVE",
"638 1846 CURVE SMOOTH",
"602 1846 OFFCURVE",
"579 1820 OFFCURVE",
"579 1784 CURVE SMOOTH",
"579 1748 OFFCURVE",
"602 1722 OFFCURVE",
"638 1722 CURVE SMOOTH"
);
}
);
width = 1654;
},
{
anchors = (
{
name = bottom;
position = "{912, 0}";
},
{
name = ogonek;
position = "{1642, 0}";
},
{
name = top;
position = "{912, 1924}";
}
);
layerId = "219068EA-2B9B-40DC-949E-B60449C01B8A";
paths = (
{
closed = 1;
nodes = (
"660 0 LINE",
"660 214 LINE",
"454 214 LINE",
"895 1269 LINE",
"764 1270 LINE",
"1194 214 LINE",
"986 214 LINE",
"986 0 LINE",
"1790 0 LINE",
"1790 214 LINE",
"1651 214 LINE",
"1106 1500 LINE",
"718 1500 LINE",
"173 214 LINE",
"34 214 LINE",
"34 0 LINE"
);
},
{
closed = 1;
nodes = (
"1184 425 LINE",
"1184 649 LINE",
"486 649 LINE",
"486 425 LINE"
);
},
{
closed = 1;
nodes = (
"1273 1592 OFFCURVE",
"1352 1668 OFFCURVE",
"1352 1792 CURVE SMOOTH",
"1352 1915 OFFCURVE",
"1273 1991 OFFCURVE",
"1157 1991 CURVE SMOOTH",
"1041 1991 OFFCURVE",
"962 1915 OFFCURVE",
"962 1792 CURVE SMOOTH",
"962 1668 OFFCURVE",
"1041 1592 OFFCURVE",
"1157 1592 CURVE SMOOTH"
);
},
{
closed = 1;
nodes = (
"783 1592 OFFCURVE",
"862 1668 OFFCURVE",
"862 1792 CURVE SMOOTH",
"862 1915 OFFCURVE",
"783 1991 OFFCURVE",
"667 1991 CURVE SMOOTH",
"551 1991 OFFCURVE",
"472 1915 OFFCURVE",
"472 1792 CURVE SMOOTH",
"472 1668 OFFCURVE",
"551 1592 OFFCURVE",
"667 1592 CURVE SMOOTH"
);
}
);
width = 1824;
},
{
anchors = (
{
name = bottom;
position = "{903, 0}";
},
{
name = ogonek;
position = "{1619, 0}";
},
{
name = top;
position = "{903, 1934}";
}
);
layerId = "0C29AA02-E021-4BD1-A2C4-87F681D64C35";
paths = (
{
closed = 1;
nodes = (
"656 0 LINE",
"656 196 LINE",
"433 196 LINE",
"870 1275 LINE",
"731 1276 LINE",
"1159 196 LINE",
"936 196 LINE",
"936 0 LINE",
"1759 0 LINE",
"1759 196 LINE",
"1613 196 LINE",
"1077 1506 LINE",
"728 1506 LINE",
"192 196 LINE",
"46 196 LINE",
"46 0 LINE"
);
},
{
closed = 1;
nodes = (
"1155 433 LINE",
"1155 633 LINE",
"457 633 LINE",
"457 433 LINE"
);
},
{
closed = 1;
nodes = (
"1245 1586 OFFCURVE",
"1321 1660 OFFCURVE",
"1321 1782 CURVE SMOOTH",
"1321 1903 OFFCURVE",
"1245 1977 OFFCURVE",
"1132 1977 CURVE SMOOTH",
"1019 1977 OFFCURVE",
"943 1903 OFFCURVE",
"943 1782 CURVE SMOOTH",
"943 1660 OFFCURVE",
"1019 1586 OFFCURVE",
"1132 1586 CURVE SMOOTH"
);
},
{
closed = 1;
nodes = (
"787 1586 OFFCURVE",
"863 1660 OFFCURVE",
"863 1782 CURVE SMOOTH",
"863 1903 OFFCURVE",
"787 1977 OFFCURVE",
"674 1977 CURVE SMOOTH",
"561 1977 OFFCURVE",
"485 1903 OFFCURVE",
"485 1782 CURVE SMOOTH",
"485 1660 OFFCURVE",
"561 1586 OFFCURVE",
"674 1586 CURVE SMOOTH"
);
}
);
width = 1805;
}
);
leftKerningGroup = A;
rightKerningGroup = A;
unicode = 00C4;
},
{
glyphname = Adotbelow;
lastChange = "2021-05-03 12:17:03 +0000";
layers = (
{
anchors = (
{
name = bottom;
position = "{845, 0}";
},
{
name = ogonek;
position = "{1590, 0}";
},
{
name = top;
position = "{845, 1500}";
}
);
layerId = "CA54B7DC-FBBB-40FE-ACF3-AABDD76D6A7B";
paths = (
{
closed = 1;
nodes = (
"520 0 LINE",
"520 42 LINE",
"250 42 LINE",
"851 1453 LINE",
"834 1453 LINE",
"1436 42 LINE",
"1166 42 LINE",
"1166 0 LINE",
"1662 0 LINE",
"1662 42 LINE",
"1488 42 LINE",
"864 1500 LINE",
"826 1500 LINE",
"202 42 LINE",
"28 42 LINE",
"28 0 LINE"
);
},
{
closed = 1;
nodes = (
"1252 516 LINE",
"1252 560 LINE",
"436 560 LINE",
"436 516 LINE"
);
},
{
closed = 1;
nodes = (
"881 -326 OFFCURVE",
"904 -300 OFFCURVE",
"904 -264 CURVE SMOOTH",
"904 -228 OFFCURVE",
"881 -202 OFFCURVE",
"845 -202 CURVE SMOOTH",
"809 -202 OFFCURVE",
"786 -228 OFFCURVE",
"786 -264 CURVE SMOOTH",
"786 -300 OFFCURVE",
"809 -326 OFFCURVE",
"845 -326 CURVE SMOOTH"
);
}
);
width = 1690;
},
{
anchors = (
{
name = bottom;
position = "{827, 0}";
},
{
name = ogonek;
position = "{1543, 0}";
},
{
name = top;
position = "{827, 1500}";
}
);
layerId = "1E61A082-F045-49A7-AB52-DD1B03FD9B54";
paths = (
{
closed = 1;
nodes = (
"546 0 LINE",
"546 36 LINE",
"255 36 LINE",
"831 1453 LINE",
"814 1453 LINE",
"1390 36 LINE",
"1099 36 LINE",
"1099 0 LINE",
"1625 0 LINE",
"1625 36 LINE",
"1442 36 LINE",
"845 1500 LINE",
"809 1500 LINE",
"212 36 LINE",
"29 36 LINE",
"29 0 LINE"
);
},
{
closed = 1;
nodes = (
"1213 520 LINE",
"1213 558 LINE",
"437 558 LINE",
"437 520 LINE"
);
},
{
closed = 1;
nodes = (
"863 -346 OFFCURVE",
"886 -320 OFFCURVE",
"886 -284 CURVE SMOOTH",
"886 -248 OFFCURVE",
"863 -222 OFFCURVE",
"827 -222 CURVE SMOOTH",
"791 -222 OFFCURVE",
"768 -248 OFFCURVE",
"768 -284 CURVE SMOOTH",
"768 -320 OFFCURVE",
"791 -346 OFFCURVE",
"827 -346 CURVE SMOOTH"
);
}
);
width = 1654;
},
{
anchors = (
{
name = bottom;
position = "{912, 0}";
},
{
name = ogonek;
position = "{1642, 0}";
},
{
name = top;
position = "{912, 1500}";
}
);
layerId = "219068EA-2B9B-40DC-949E-B60449C01B8A";
paths = (
{
closed = 1;
nodes = (
"660 0 LINE",
"660 214 LINE",
"454 214 LINE",
"895 1269 LINE",
"764 1270 LINE",
"1194 214 LINE",
"986 214 LINE",
"986 0 LINE",
"1790 0 LINE",
"1790 214 LINE",
"1651 214 LINE",
"1106 1500 LINE",
"718 1500 LINE",
"173 214 LINE",
"34 214 LINE",
"34 0 LINE"
);
},
{
closed = 1;
nodes = (
"1184 425 LINE",
"1184 649 LINE",
"486 649 LINE",
"486 425 LINE"
);
},
{
closed = 1;
nodes = (
"1056 -512 OFFCURVE",
"1156 -431 OFFCURVE",
"1156 -298 CURVE SMOOTH",
"1156 -166 OFFCURVE",
"1056 -84 OFFCURVE",
"912 -84 CURVE SMOOTH",
"768 -84 OFFCURVE",
"668 -166 OFFCURVE",
"668 -298 CURVE SMOOTH",
"668 -431 OFFCURVE",
"768 -512 OFFCURVE",
"912 -512 CURVE SMOOTH"
);
}
);
width = 1824;
},
{
anchors = (
{
name = bottom;
position = "{903, 0}";
},
{
name = ogonek;
position = "{1619, 0}";
},
{
name = top;
position = "{903, 1500}";
}
);
layerId = "0C29AA02-E021-4BD1-A2C4-87F681D64C35";
paths = (
{
closed = 1;
nodes = (
"656 0 LINE",
"656 196 LINE",
"433 196 LINE",
"870 1275 LINE",
"731 1276 LINE",
"1159 196 LINE",
"936 196 LINE",
"936 0 LINE",
"1759 0 LINE",
"1759 196 LINE",
"1613 196 LINE",
"1077 1506 LINE",
"728 1506 LINE",
"192 196 LINE",
"46 196 LINE",
"46 0 LINE"
);
},
{
closed = 1;
nodes = (
"1155 433 LINE",
"1155 633 LINE",
"457 633 LINE",
"457 433 LINE"
);
},
{
closed = 1;
nodes = (
"1038 -498 OFFCURVE",
"1131 -419 OFFCURVE",
"1131 -288 CURVE SMOOTH",
"1131 -158 OFFCURVE",
"1038 -78 OFFCURVE",
"903 -78 CURVE SMOOTH",
"768 -78 OFFCURVE",
"675 -158 OFFCURVE",
"675 -288 CURVE SMOOTH",
"675 -419 OFFCURVE",
"768 -498 OFFCURVE",
"903 -498 CURVE SMOOTH"
);
}
);
width = 1805;
}
);
leftKerningGroup = A;
rightKerningGroup = A;
unicode = 1EA0;
},
{
glyphname = Agrave;
lastChange = "2021-05-03 12:17:03 +0000";
layers = (
{
anchors = (
{
name = bottom;
position = "{845, 0}";
},
{
name = ogonek;
position = "{1590, 0}";
},
{
name = top;
position = "{845, 1500}";
}
);
layerId = "CA54B7DC-FBBB-40FE-ACF3-AABDD76D6A7B";
paths = (
{
closed = 1;
nodes = (
"520 0 LINE",
"520 42 LINE",
"250 42 LINE",
"851 1453 LINE",
"834 1453 LINE",
"1436 42 LINE",
"1166 42 LINE",
"1166 0 LINE",
"1662 0 LINE",
"1662 42 LINE",
"1488 42 LINE",
"864 1500 LINE",
"826 1500 LINE",
"202 42 LINE",
"28 42 LINE",
"28 0 LINE"
);
},
{
closed = 1;
nodes = (
"1252 516 LINE",
"1252 560 LINE",
"436 560 LINE",
"436 516 LINE"
);
},
{
closed = 1;
nodes = (
"902 1650 LINE",
"658 1960 LINE",
"598 1960 LINE",
"851 1650 LINE"
);
}
);
width = 1690;
},
{
anchors = (
{
name = bottom;
position = "{827, 0}";
},
{
name = ogonek;
position = "{1543, 0}";
},
{
name = top;
position = "{827, 1500}";
}
);
layerId = "1E61A082-F045-49A7-AB52-DD1B03FD9B54";
paths = (
{
closed = 1;
nodes = (
"546 0 LINE",
"546 36 LINE",
"255 36 LINE",
"831 1453 LINE",
"814 1453 LINE",
"1390 36 LINE",
"1099 36 LINE",
"1099 0 LINE",
"1625 0 LINE",
"1625 36 LINE",
"1442 36 LINE",
"845 1500 LINE",
"809 1500 LINE",
"212 36 LINE",
"29 36 LINE",
"29 0 LINE"
);
},
{
closed = 1;
nodes = (
"1213 520 LINE",
"1213 558 LINE",
"437 558 LINE",
"437 520 LINE"
);
},
{
closed = 1;
nodes = (
"879 1650 LINE",
"652 1960 LINE",
"596 1960 LINE",
"832 1650 LINE"
);
}
);
width = 1654;
},
{
anchors = (
{
name = bottom;
position = "{912, 0}";
},
{
name = ogonek;
position = "{1642, 0}";
},
{
name = top;
position = "{912, 1500}";
}
);
layerId = "219068EA-2B9B-40DC-949E-B60449C01B8A";
paths = (
{
closed = 1;
nodes = (
"660 0 LINE",
"660 214 LINE",
"454 214 LINE",
"895 1269 LINE",
"764 1270 LINE",
"1194 214 LINE",
"986 214 LINE",
"986 0 LINE",
"1790 0 LINE",
"1790 214 LINE",
"1651 214 LINE",
"1106 1500 LINE",
"718 1500 LINE",
"173 214 LINE",
"34 214 LINE",
"34 0 LINE"
);
},
{
closed = 1;
nodes = (
"1184 425 LINE",
"1184 649 LINE",
"486 649 LINE",
"486 425 LINE"
);
},
{
closed = 1;
nodes = (
"1075 1630 LINE",
"943 1930 LINE",
"535 1930 LINE",
"813 1630 LINE"
);
}
);
width = 1824;
},
{
anchors = (
{
name = bottom;
position = "{903, 0}";
},
{
name = ogonek;
position = "{1619, 0}";
},
{
name = top;
position = "{903, 1500}";
}
);
layerId = "0C29AA02-E021-4BD1-A2C4-87F681D64C35";
paths = (
{
closed = 1;
nodes = (
"656 0 LINE",
"656 196 LINE",
"433 196 LINE",
"870 1275 LINE",
"731 1276 LINE",
"1159 196 LINE",
"936 196 LINE",
"936 0 LINE",
"1759 0 LINE",
"1759 196 LINE",
"1613 196 LINE",
"1077 1506 LINE",
"728 1506 LINE",
"192 196 LINE",
"46 196 LINE",
"46 0 LINE"
);
},
{
closed = 1;
nodes = (
"1155 433 LINE",
"1155 633 LINE",
"457 633 LINE",
"457 433 LINE"
);
},
{
closed = 1;
nodes = (
"1056 1610 LINE",
"926 1910 LINE",
"518 1910 LINE",
"818 1610 LINE"
);
}
);
width = 1805;
}
);
leftKerningGroup = A;
rightKerningGroup = A;
unicode = 00C0;
},
{
glyphname = Ahookabove;
lastChange = "2021-05-03 12:17:03 +0000";
layers = (
{
anchors = (
{
name = bottom;
position = "{845, 0}";
},
{
name = ogonek;
position = "{1590, 0}";
},
{
name = top;
position = "{845, 1500}";
}
);
layerId = "CA54B7DC-FBBB-40FE-ACF3-AABDD76D6A7B";
paths = (
{
closed = 1;
nodes = (
"520 0 LINE",
"520 42 LINE",
"250 42 LINE",
"851 1453 LINE",
"834 1453 LINE",
"1436 42 LINE",
"1166 42 LINE",
"1166 0 LINE",
"1662 0 LINE",
"1662 42 LINE",
"1488 42 LINE",
"864 1500 LINE",
"826 1500 LINE",
"202 42 LINE",
"28 42 LINE",
"28 0 LINE"
);
},
{
closed = 1;
nodes = (
"1252 516 LINE",
"1252 560 LINE",
"436 560 LINE",
"436 516 LINE"
);
},
{
closed = 1;
nodes = (
"867 1630 LINE",
"864 1688 OFFCURVE",
"878 1716 OFFCURVE",
"933 1751 CURVE SMOOTH",
"984 1783 OFFCURVE",
"1038 1815 OFFCURVE",
"1038 1896 CURVE SMOOTH",
"1038 1983 OFFCURVE",
"954 2026 OFFCURVE",
"853 2026 CURVE",
"852 1992 LINE",
"934 1992 OFFCURVE",
"994 1953 OFFCURVE",
"994 1896 CURVE SMOOTH",
"994 1842 OFFCURVE",
"957 1813 OFFCURVE",
"910 1784 CURVE SMOOTH",
"858 1752 OFFCURVE",
"821 1717 OFFCURVE",
"827 1630 CURVE"
);
},
{
closed = 1;
nodes = (
"752 1850 OFFCURVE",
"770 1869 OFFCURVE",
"770 1896 CURVE SMOOTH",
"770 1926 OFFCURVE",
"748 1943 OFFCURVE",
"706 1943 CURVE",
"705 1919 LINE",
"720 1960 OFFCURVE",
"774 1992 OFFCURVE",
"852 1992 CURVE",
"853 2026 LINE",
"745 2026 OFFCURVE",
"664 1972 OFFCURVE",
"664 1909 CURVE SMOOTH",
"664 1872 OFFCURVE",
"688 1850 OFFCURVE",
"721 1850 CURVE SMOOTH"
);
}
);
width = 1690;
},
{
anchors = (
{
name = bottom;
position = "{827, 0}";
},
{
name = ogonek;
position = "{1543, 0}";
},
{
name = top;
position = "{827, 1500}";
}
);
layerId = "1E61A082-F045-49A7-AB52-DD1B03FD9B54";
paths = (
{
closed = 1;
nodes = (
"546 0 LINE",
"546 36 LINE",
"255 36 LINE",
"831 1453 LINE",
"814 1453 LINE",
"1390 36 LINE",
"1099 36 LINE",
"1099 0 LINE",
"1625 0 LINE",
"1625 36 LINE",
"1442 36 LINE",
"845 1500 LINE",
"809 1500 LINE",
"212 36 LINE",
"29 36 LINE",
"29 0 LINE"
);
},
{
closed = 1;
nodes = (
"1213 520 LINE",
"1213 558 LINE",
"437 558 LINE",
"437 520 LINE"
);
},
{
closed = 1;
nodes = (
"849 1630 LINE",
"846 1688 OFFCURVE",
"860 1716 OFFCURVE",
"915 1751 CURVE SMOOTH",
"966 1783 OFFCURVE",
"1020 1815 OFFCURVE",
"1020 1896 CURVE SMOOTH",
"1020 1983 OFFCURVE",
"936 2026 OFFCURVE",
"835 2026 CURVE",
"834 1992 LINE",
"916 1992 OFFCURVE",
"976 1953 OFFCURVE",
"976 1896 CURVE SMOOTH",
"976 1842 OFFCURVE",
"939 1813 OFFCURVE",
"892 1784 CURVE SMOOTH",
"840 1752 OFFCURVE",
"803 1717 OFFCURVE",
"809 1630 CURVE"
);
},
{
closed = 1;
nodes = (
"734 1850 OFFCURVE",
"752 1869 OFFCURVE",
"752 1896 CURVE SMOOTH",
"752 1926 OFFCURVE",
"730 1943 OFFCURVE",
"688 1943 CURVE",
"687 1919 LINE",
"702 1960 OFFCURVE",
"756 1992 OFFCURVE",
"834 1992 CURVE",
"835 2026 LINE",
"727 2026 OFFCURVE",
"646 1972 OFFCURVE",
"646 1909 CURVE SMOOTH",
"646 1872 OFFCURVE",
"670 1850 OFFCURVE",
"703 1850 CURVE SMOOTH"
);
}
);
width = 1654;
},
{
anchors = (
{
name = bottom;
position = "{912, 0}";
},
{
name = ogonek;
position = "{1642, 0}";
},
{
name = top;
position = "{912, 1500}";
}
);
layerId = "219068EA-2B9B-40DC-949E-B60449C01B8A";
paths = (
{
closed = 1;
nodes = (
"660 0 LINE",
"660 214 LINE",
"454 214 LINE",
"895 1269 LINE",
"764 1270 LINE",
"1194 214 LINE",
"986 214 LINE",
"986 0 LINE",
"1790 0 LINE",
"1790 214 LINE",
"1651 214 LINE",
"1106 1500 LINE",
"718 1500 LINE",
"173 214 LINE",
"34 214 LINE",
"34 0 LINE"
);
},
{
closed = 1;
nodes = (
"1184 425 LINE",
"1184 649 LINE",
"486 649 LINE",
"486 425 LINE"
);
},
{
closed = 1;
nodes = (
"967 1620 LINE",
"967 1654 OFFCURVE",
"979 1681 OFFCURVE",
"1023 1701 CURVE SMOOTH",
"1116 1744 OFFCURVE",
"1217 1797 OFFCURVE",
"1217 1919 CURVE SMOOTH",
"1217 2061 OFFCURVE",
"1084 2126 OFFCURVE",
"925 2126 CURVE",
"918 2006 LINE",
"967 2006 OFFCURVE",
"1000 1983 OFFCURVE",
"1000 1946 CURVE SMOOTH",
"1000 1902 OFFCURVE",
"964 1872 OFFCURVE",
"913 1835 CURVE SMOOTH",
"841 1783 OFFCURVE",
"796 1711 OFFCURVE",
"831 1620 CURVE"
);
},
{
closed = 1;
nodes = (
"844 1868 OFFCURVE",
"892 1900 OFFCURVE",
"892 1948 CURVE SMOOTH",
"892 2003 OFFCURVE",
"839 2020 OFFCURVE",
"759 2020 CURVE",
"795 1960 LINE",
"826 1987 OFFCURVE",
"866 2006 OFFCURVE",
"918 2006 CURVE",
"925 2126 LINE",
"758 2126 OFFCURVE",
"631 2064 OFFCURVE",
"631 1969 CURVE SMOOTH",
"631 1908 OFFCURVE",
"687 1868 OFFCURVE",
"772 1868 CURVE SMOOTH"
);
}
);
width = 1824;
},
{
anchors = (
{
name = bottom;
position = "{903, 0}";
},
{
name = ogonek;
position = "{1619, 0}";
},
{
name = top;
position = "{903, 1500}";
}
);
layerId = "0C29AA02-E021-4BD1-A2C4-87F681D64C35";
paths = (
{
closed = 1;
nodes = (
"656 0 LINE",
"656 196 LINE",
"433 196 LINE",
"870 1275 LINE",
"731 1276 LINE",
"1159 196 LINE",
"936 196 LINE",
"936 0 LINE",
"1759 0 LINE",
"1759 196 LINE",
"1613 196 LINE",
"1077 1506 LINE",
"728 1506 LINE",
"192 196 LINE",
"46 196 LINE",
"46 0 LINE"
);
},
{
closed = 1;
nodes = (
"1155 433 LINE",
"1155 633 LINE",
"457 633 LINE",
"457 433 LINE"
);
},
{
closed = 1;
nodes = (
"956 1600 LINE",
"956 1634 OFFCURVE",
"970 1661 OFFCURVE",
"1014 1681 CURVE SMOOTH",
"1107 1724 OFFCURVE",
"1208 1777 OFFCURVE",
"1208 1899 CURVE SMOOTH",
"1208 2041 OFFCURVE",
"1075 2106 OFFCURVE",
"916 2106 CURVE",
"909 1994 LINE",
"958 1994 OFFCURVE",
"991 1969 OFFCURVE",
"991 1928 CURVE SMOOTH",
"991 1885 OFFCURVE",
"956 1851 OFFCURVE",
"905 1814 CURVE SMOOTH",
"833 1762 OFFCURVE",
"789 1691 OFFCURVE",
"826 1600 CURVE"
);
},
{
closed = 1;
nodes = (
"835 1836 OFFCURVE",
"883 1870 OFFCURVE",
"883 1922 CURVE SMOOTH",
"883 1982 OFFCURVE",
"830 2000 OFFCURVE",
"750 2000 CURVE",
"786 1948 LINE",
"817 1975 OFFCURVE",
"857 1994 OFFCURVE",
"909 1994 CURVE",
"916 2106 LINE",
"749 2106 OFFCURVE",
"622 2042 OFFCURVE",
"622 1943 CURVE SMOOTH",
"622 1878 OFFCURVE",
"678 1836 OFFCURVE",
"763 1836 CURVE SMOOTH"
);
}
);
width = 1805;
}
);
leftKerningGroup = A;
rightKerningGroup = A;
unicode = 1EA2;
},
{
glyphname = Ainvertedbreve;
lastChange = "2021-05-03 12:17:03 +0000";
layers = (
{
anchors = (
{
name = bottom;
position = "{845, 0}";
},
{
name = ogonek;
position = "{1590, 0}";
},
{
name = top;
position = "{845, 1500}";
}
);
layerId = "CA54B7DC-FBBB-40FE-ACF3-AABDD76D6A7B";
paths = (
{
closed = 1;
nodes = (
"520 0 LINE",
"520 42 LINE",
"250 42 LINE",
"851 1453 LINE",
"834 1453 LINE",
"1436 42 LINE",
"1166 42 LINE",
"1166 0 LINE",
"1662 0 LINE",
"1662 42 LINE",
"1488 42 LINE",
"864 1500 LINE",
"826 1500 LINE",
"202 42 LINE",
"28 42 LINE",
"28 0 LINE"
);
},
{
closed = 1;
nodes = (
"1252 516 LINE",
"1252 560 LINE",
"436 560 LINE",
"436 516 LINE"
);
},
{
closed = 1;
nodes = (
"625 1650 LINE",
"625 1804 OFFCURVE",
"691 1932 OFFCURVE",
"845 1932 CURVE SMOOTH",
"999 1932 OFFCURVE",
"1075 1804 OFFCURVE",
"1075 1650 CURVE",
"1115 1650 LINE",
"1115 1836 OFFCURVE",
"1027 1970 OFFCURVE",
"845 1970 CURVE SMOOTH",
"663 1970 OFFCURVE",
"585 1836 OFFCURVE",
"585 1650 CURVE"
);
}
);
width = 1690;
},
{
anchors = (
{
name = bottom;
position = "{827, 0}";
},
{
name = ogonek;
position = "{1543, 0}";
},
{
name = top;
position = "{827, 1500}";
}
);
layerId = "1E61A082-F045-49A7-AB52-DD1B03FD9B54";
paths = (
{
closed = 1;
nodes = (
"546 0 LINE",
"546 36 LINE",
"255 36 LINE",
"831 1453 LINE",
"814 1453 LINE",
"1390 36 LINE",
"1099 36 LINE",
"1099 0 LINE",
"1625 0 LINE",
"1625 36 LINE",
"1442 36 LINE",
"845 1500 LINE",
"809 1500 LINE",
"212 36 LINE",
"29 36 LINE",
"29 0 LINE"
);
},
{
closed = 1;
nodes = (
"1213 520 LINE",
"1213 558 LINE",
"437 558 LINE",
"437 520 LINE"
);
},
{
closed = 1;
nodes = (
"605 1650 LINE",
"605 1804 OFFCURVE",
"673 1932 OFFCURVE",
"827 1932 CURVE SMOOTH",
"981 1932 OFFCURVE",
"1059 1804 OFFCURVE",
"1059 1650 CURVE",
"1097 1650 LINE",
"1097 1836 OFFCURVE",
"1009 1970 OFFCURVE",
"827 1970 CURVE SMOOTH",
"645 1970 OFFCURVE",
"567 1836 OFFCURVE",
"567 1650 CURVE"
);
}
);
width = 1654;
},
{
anchors = (
{
name = bottom;
position = "{912, 0}";
},
{
name = ogonek;
position = "{1642, 0}";
},
{
name = top;
position = "{912, 1500}";
}
);
layerId = "219068EA-2B9B-40DC-949E-B60449C01B8A";
paths = (
{
closed = 1;
nodes = (
"660 0 LINE",
"660 214 LINE",
"454 214 LINE",
"895 1269 LINE",
"764 1270 LINE",
"1194 214 LINE",
"986 214 LINE",
"986 0 LINE",
"1790 0 LINE",
"1790 214 LINE",
"1651 214 LINE",
"1106 1500 LINE",
"718 1500 LINE",
"173 214 LINE",
"34 214 LINE",
"34 0 LINE"
);
},
{
closed = 1;
nodes = (
"1184 425 LINE",
"1184 649 LINE",
"486 649 LINE",
"486 425 LINE"
);
},
{
closed = 1;
nodes = (
"718 1630 LINE",
"730 1692 OFFCURVE",
"782 1752 OFFCURVE",
"912 1752 CURVE SMOOTH",
"1042 1752 OFFCURVE",
"1094 1692 OFFCURVE",
"1106 1630 CURVE",
"1286 1630 LINE",
"1280 1816 OFFCURVE",
"1151 1960 OFFCURVE",
"912 1960 CURVE SMOOTH",
"673 1960 OFFCURVE",
"544 1816 OFFCURVE",
"538 1630 CURVE"
);
}
);
width = 1824;
},
{
anchors = (
{
name = bottom;
position = "{903, 0}";
},
{
name = ogonek;
position = "{1619, 0}";
},
{
name = top;
position = "{903, 1500}";
}
);
layerId = "0C29AA02-E021-4BD1-A2C4-87F681D64C35";
paths = (
{
closed = 1;
nodes = (
"656 0 LINE",
"656 196 LINE",
"433 196 LINE",
"870 1275 LINE",
"731 1276 LINE",
"1159 196 LINE",
"936 196 LINE",
"936 0 LINE",
"1759 0 LINE",
"1759 196 LINE",
"1613 196 LINE",
"1077 1506 LINE",
"728 1506 LINE",
"192 196 LINE",
"46 196 LINE",
"46 0 LINE"
);
},
{
closed = 1;
nodes = (
"1155 433 LINE",
"1155 633 LINE",
"457 633 LINE",
"457 433 LINE"
);
},
{
closed = 1;
nodes = (
"703 1610 LINE",
"715 1668 OFFCURVE",
"772 1732 OFFCURVE",
"903 1732 CURVE SMOOTH",
"1034 1732 OFFCURVE",
"1091 1668 OFFCURVE",
"1103 1610 CURVE",
"1277 1610 LINE",
"1277 1796 OFFCURVE",
"1142 1940 OFFCURVE",
"903 1940 CURVE SMOOTH",
"664 1940 OFFCURVE",
"529 1796 OFFCURVE",
"529 1610 CURVE"
);
}
);
width = 1805;
}
);
leftKerningGroup = A;
rightKerningGroup = A;
unicode = 0202;
},
{
glyphname = Amacron;
lastChange = "2021-05-03 12:17:03 +0000";
layers = (
{
anchors = (
{
name = bottom;
position = "{845, 0}";
},
{
name = ogonek;
position = "{1590, 0}";
},
{
name = top;
position = "{845, 1500}";
}
);
layerId = "CA54B7DC-FBBB-40FE-ACF3-AABDD76D6A7B";
paths = (
{
closed = 1;
nodes = (
"520 0 LINE",
"520 42 LINE",
"250 42 LINE",
"851 1453 LINE",
"834 1453 LINE",
"1436 42 LINE",
"1166 42 LINE",
"1166 0 LINE",
"1662 0 LINE",
"1662 42 LINE",
"1488 42 LINE",
"864 1500 LINE",
"826 1500 LINE",
"202 42 LINE",
"28 42 LINE",
"28 0 LINE"
);
},
{
closed = 1;
nodes = (
"1252 516 LINE",
"1252 560 LINE",
"436 560 LINE",
"436 516 LINE"
);
},
{
closed = 1;
nodes = (
"1135 1700 LINE",
"1135 1742 LINE",
"555 1742 LINE",
"555 1700 LINE"
);
}
);
width = 1690;
},
{
anchors = (
{
name = bottom;
position = "{827, 0}";
},
{
name = ogonek;
position = "{1543, 0}";
},
{
name = top;
position = "{827, 1500}";
}
);
layerId = "1E61A082-F045-49A7-AB52-DD1B03FD9B54";
paths = (
{
closed = 1;
nodes = (
"546 0 LINE",
"546 36 LINE",
"255 36 LINE",
"831 1453 LINE",
"814 1453 LINE",
"1390 36 LINE",
"1099 36 LINE",
"1099 0 LINE",
"1625 0 LINE",
"1625 36 LINE",
"1442 36 LINE",
"845 1500 LINE",
"809 1500 LINE",
"212 36 LINE",
"29 36 LINE",
"29 0 LINE"
);
},
{
closed = 1;
nodes = (
"1213 520 LINE",
"1213 558 LINE",
"437 558 LINE",
"437 520 LINE"
);
},
{
closed = 1;
nodes = (
"1117 1700 LINE",
"1117 1740 LINE",
"537 1740 LINE",
"537 1700 LINE"
);
}
);
width = 1654;
},
{
anchors = (
{
name = bottom;
position = "{912, 0}";
},
{
name = ogonek;
position = "{1642, 0}";
},
{
name = top;
position = "{912, 1500}";
}
);
layerId = "219068EA-2B9B-40DC-949E-B60449C01B8A";
paths = (
{
closed = 1;
nodes = (
"660 0 LINE",
"660 214 LINE",
"454 214 LINE",
"895 1269 LINE",
"764 1270 LINE",
"1194 214 LINE",
"986 214 LINE",
"986 0 LINE",
"1790 0 LINE",
"1790 214 LINE",
"1651 214 LINE",
"1106 1500 LINE",
"718 1500 LINE",
"173 214 LINE",
"34 214 LINE",
"34 0 LINE"
);
},
{
closed = 1;
nodes = (
"1184 425 LINE",
"1184 649 LINE",
"486 649 LINE",
"486 425 LINE"
);
},
{
closed = 1;
nodes = (
"1282 1650 LINE",
"1282 1850 LINE",
"542 1850 LINE",
"542 1650 LINE"
);
}
);
width = 1824;
},
{
anchors = (
{
name = bottom;
position = "{903, 0}";
},
{
name = ogonek;
position = "{1619, 0}";
},
{
name = top;
position = "{903, 1500}";
}
);
layerId = "0C29AA02-E021-4BD1-A2C4-87F681D64C35";
paths = (
{
closed = 1;
nodes = (
"656 0 LINE",
"656 196 LINE",
"433 196 LINE",
"870 1275 LINE",
"731 1276 LINE",
"1159 196 LINE",
"936 196 LINE",
"936 0 LINE",
"1759 0 LINE",
"1759 196 LINE",
"1613 196 LINE",
"1077 1506 LINE",
"728 1506 LINE",
"192 196 LINE",
"46 196 LINE",
"46 0 LINE"
);
},
{
closed = 1;
nodes = (
"1155 433 LINE",
"1155 633 LINE",
"457 633 LINE",
"457 433 LINE"
);
},
{
closed = 1;
nodes = (
"1273 1630 LINE",
"1273 1830 LINE",
"533 1830 LINE",
"533 1630 LINE"
);
}
);
width = 1805;
}
);
leftKerningGroup = A;
rightKerningGroup = A;
unicode = 0100;
},
{
glyphname = Aogonek;
lastChange = "2021-05-03 12:17:03 +0000";
layers = (
{
anchors = (
{
name = bottom;
position = "{845, 0}";
},
{
name = ogonek;
position = "{1590, 0}";
},
{
name = top;
position = "{845, 1500}";
}
);
layerId = "CA54B7DC-FBBB-40FE-ACF3-AABDD76D6A7B";
paths = (
{
closed = 1;
nodes = (
"520 0 LINE",
"520 42 LINE",
"250 42 LINE",
"851 1453 LINE",
"834 1453 LINE",
"1436 42 LINE",
"1166 42 LINE",
"1166 0 LINE",
"1662 0 LINE",
"1662 42 LINE",
"1488 42 LINE",
"864 1500 LINE",
"826 1500 LINE",
"202 42 LINE",
"28 42 LINE",
"28 0 LINE"
);
},
{
closed = 1;
nodes = (
"1252 516 LINE",
"1252 560 LINE",
"436 560 LINE",
"436 516 LINE"
);
},
{
closed = 1;
nodes = (
"1544 -397 OFFCURVE",
"1590 -366 OFFCURVE",
"1619 -340 CURVE",
"1596 -311 LINE",
"1553 -342 OFFCURVE",
"1524 -357 OFFCURVE",
"1472 -357 CURVE SMOOTH",
"1407 -357 OFFCURVE",
"1364 -314 OFFCURVE",
"1364 -244 CURVE SMOOTH",
"1364 -156 OFFCURVE",
"1408 -84 OFFCURVE",
"1480 0 CURVE",
"1451 26 LINE",
"1382 -54 OFFCURVE",
"1318 -141 OFFCURVE",
"1318 -248 CURVE SMOOTH",
"1318 -341 OFFCURVE",
"1384 -397 OFFCURVE",
"1468 -397 CURVE SMOOTH"
);
}
);
width = 1690;
},
{
anchors = (
{
name = bottom;
position = "{827, 0}";
},
{
name = ogonek;
position = "{1543, 0}";
},
{
name = top;
position = "{827, 1500}";
}
);
layerId = "1E61A082-F045-49A7-AB52-DD1B03FD9B54";
paths = (
{
closed = 1;
nodes = (
"546 0 LINE",
"546 36 LINE",
"255 36 LINE",
"831 1453 LINE",
"814 1453 LINE",
"1390 36 LINE",
"1099 36 LINE",
"1099 0 LINE",
"1625 0 LINE",
"1625 36 LINE",
"1442 36 LINE",
"845 1500 LINE",
"809 1500 LINE",
"212 36 LINE",
"29 36 LINE",
"29 0 LINE"
);
},
{
closed = 1;
nodes = (
"1213 520 LINE",
"1213 558 LINE",
"437 558 LINE",
"437 520 LINE"
);
},
{
closed = 1;
nodes = (
"1498 -395 OFFCURVE",
"1543 -365 OFFCURVE",
"1572 -340 CURVE",
"1549 -311 LINE",
"1506 -342 OFFCURVE",
"1477 -357 OFFCURVE",
"1425 -357 CURVE SMOOTH",
"1360 -357 OFFCURVE",
"1317 -314 OFFCURVE",
"1317 -244 CURVE SMOOTH",
"1317 -156 OFFCURVE",
"1361 -84 OFFCURVE",
"1433 0 CURVE",
"1406 24 LINE",
"1337 -56 OFFCURVE",
"1273 -142 OFFCURVE",
"1273 -248 CURVE SMOOTH",
"1273 -338 OFFCURVE",
"1335 -395 OFFCURVE",
"1423 -395 CURVE SMOOTH"
);
}
);
width = 1654;
},
{
anchors = (
{
name = bottom;
position = "{912, 0}";
},
{
name = ogonek;
position = "{1642, 0}";
},
{
name = top;
position = "{912, 1500}";
}
);
layerId = "219068EA-2B9B-40DC-949E-B60449C01B8A";
paths = (
{
closed = 1;
nodes = (
"660 0 LINE",
"660 214 LINE",
"454 214 LINE",
"895 1269 LINE",
"764 1270 LINE",
"1194 214 LINE",
"986 214 LINE",
"986 0 LINE",
"1790 0 LINE",
"1790 214 LINE",
"1651 214 LINE",
"1106 1500 LINE",
"718 1500 LINE",
"173 214 LINE",
"34 214 LINE",
"34 0 LINE"
);
},
{
closed = 1;
nodes = (
"1184 425 LINE",
"1184 649 LINE",
"486 649 LINE",
"486 425 LINE"
);
},
{
closed = 1;
nodes = (
"1553 -440 OFFCURVE",
"1621 -417 OFFCURVE",
"1663 -390 CURVE",
"1611 -251 LINE",
"1590 -261 OFFCURVE",
"1573 -267 OFFCURVE",
"1546 -267 CURVE SMOOTH",
"1493 -267 OFFCURVE",
"1454 -239 OFFCURVE",
"1454 -188 CURVE SMOOTH",
"1454 -113 OFFCURVE",
"1505 -52 OFFCURVE",
"1562 10 CURVE",
"1461 106 LINE",
"1335 20 OFFCURVE",
"1212 -89 OFFCURVE",
"1212 -228 CURVE SMOOTH",
"1212 -360 OFFCURVE",
"1324 -440 OFFCURVE",
"1467 -440 CURVE SMOOTH"
);
}
);
width = 1824;
},
{
anchors = (
{
name = bottom;
position = "{903, 0}";
},
{
name = ogonek;
position = "{1619, 0}";
},
{
name = top;
position = "{903, 1500}";
}
);
layerId = "0C29AA02-E021-4BD1-A2C4-87F681D64C35";
paths = (
{
closed = 1;
nodes = (
"656 0 LINE",
"656 196 LINE",
"433 196 LINE",
"870 1275 LINE",
"731 1276 LINE",
"1159 196 LINE",
"936 196 LINE",
"936 0 LINE",
"1759 0 LINE",
"1759 196 LINE",
"1613 196 LINE",
"1077 1506 LINE",
"728 1506 LINE",
"192 196 LINE",
"46 196 LINE",
"46 0 LINE"
);
},
{
closed = 1;
nodes = (
"1155 433 LINE",
"1155 633 LINE",
"457 633 LINE",
"457 433 LINE"
);
},
{
closed = 1;
nodes = (
"1530 -440 OFFCURVE",
"1598 -417 OFFCURVE",
"1640 -390 CURVE",
"1588 -271 LINE",
"1567 -281 OFFCURVE",
"1550 -287 OFFCURVE",
"1523 -287 CURVE SMOOTH",
"1470 -287 OFFCURVE",
"1431 -256 OFFCURVE",
"1431 -198 CURVE SMOOTH",
"1431 -119 OFFCURVE",
"1482 -55 OFFCURVE",
"1539 10 CURVE",
"1438 106 LINE",
"1312 20 OFFCURVE",
"1189 -89 OFFCURVE",
"1189 -228 CURVE SMOOTH",
"1189 -360 OFFCURVE",
"1301 -440 OFFCURVE",
"1444 -440 CURVE SMOOTH"
);
}
);
width = 1805;
}
);
leftKerningGroup = A;
rightKerningGroup = A;
unicode = 0104;
},
{
glyphname = Aring;
lastChange = "2021-05-03 12:17:03 +0000";
layers = (
{
anchors = (
{
name = bottom;
position = "{845, 0}";
},
{
name = ogonek;
position = "{1590, 0}";
},
{
name = top;
position = "{845, 1952}";
}
);
layerId = "CA54B7DC-FBBB-40FE-ACF3-AABDD76D6A7B";
paths = (
{
closed = 1;
nodes = (
"520 0 LINE",
"520 42 LINE",
"250 42 LINE",
"851 1453 LINE",
"834 1453 LINE",
"1436 42 LINE",
"1166 42 LINE",
"1166 0 LINE",
"1662 0 LINE",
"1662 42 LINE",
"1488 42 LINE",
"864 1500 LINE",
"826 1500 LINE",
"202 42 LINE",
"28 42 LINE",
"28 0 LINE"
);
},
{
closed = 1;
nodes = (
"1252 516 LINE",
"1252 560 LINE",
"436 560 LINE",
"436 516 LINE"
);
},
{
closed = 1;
nodes = (
"946 1640 OFFCURVE",
"1024 1703 OFFCURVE",
"1024 1813 CURVE SMOOTH",
"1024 1923 OFFCURVE",
"946 1986 OFFCURVE",
"845 1986 CURVE SMOOTH",
"744 1986 OFFCURVE",
"666 1923 OFFCURVE",
"666 1813 CURVE SMOOTH",
"666 1703 OFFCURVE",
"744 1640 OFFCURVE",
"845 1640 CURVE SMOOTH"
);
},
{
closed = 1;
nodes = (
"766 1676 OFFCURVE",
"710 1727 OFFCURVE",
"710 1813 CURVE SMOOTH",
"710 1899 OFFCURVE",
"766 1950 OFFCURVE",
"845 1950 CURVE SMOOTH",
"924 1950 OFFCURVE",
"980 1899 OFFCURVE",
"980 1813 CURVE SMOOTH",
"980 1727 OFFCURVE",
"924 1676 OFFCURVE",
"845 1676 CURVE SMOOTH"
);
}
);
width = 1690;
},
{
anchors = (
{
name = bottom;
position = "{827, 0}";
},
{
name = ogonek;
position = "{1543, 0}";
},
{
name = top;
position = "{827, 1930}";
}
);
layerId = "1E61A082-F045-49A7-AB52-DD1B03FD9B54";
paths = (
{
closed = 1;
nodes = (
"546 0 LINE",
"546 36 LINE",
"255 36 LINE",
"831 1453 LINE",
"814 1453 LINE",
"1390 36 LINE",
"1099 36 LINE",
"1099 0 LINE",
"1625 0 LINE",
"1625 36 LINE",
"1442 36 LINE",
"845 1500 LINE",
"809 1500 LINE",
"212 36 LINE",
"29 36 LINE",
"29 0 LINE"
);
},
{
closed = 1;
nodes = (
"1213 520 LINE",
"1213 558 LINE",
"437 558 LINE",
"437 520 LINE"
);
},
{
closed = 1;
nodes = (
"928 1620 OFFCURVE",
"1006 1683 OFFCURVE",
"1006 1793 CURVE SMOOTH",
"1006 1903 OFFCURVE",
"928 1966 OFFCURVE",
"827 1966 CURVE SMOOTH",
"726 1966 OFFCURVE",
"648 1903 OFFCURVE",
"648 1793 CURVE SMOOTH",
"648 1683 OFFCURVE",
"726 1620 OFFCURVE",
"827 1620 CURVE SMOOTH"
);
},
{
closed = 1;
nodes = (
"748 1656 OFFCURVE",
"692 1707 OFFCURVE",
"692 1793 CURVE SMOOTH",
"692 1879 OFFCURVE",
"748 1930 OFFCURVE",
"827 1930 CURVE SMOOTH",
"906 1930 OFFCURVE",
"962 1879 OFFCURVE",
"962 1793 CURVE SMOOTH",
"962 1707 OFFCURVE",
"906 1656 OFFCURVE",
"827 1656 CURVE SMOOTH"
);
}
);
width = 1654;
},
{
anchors = (
{
name = bottom;
position = "{912, 0}";
},
{
name = ogonek;
position = "{1642, 0}";
},
{
name = top;
position = "{912, 2002}";
}
);
layerId = "219068EA-2B9B-40DC-949E-B60449C01B8A";
paths = (
{
closed = 1;
nodes = (
"660 0 LINE",
"660 214 LINE",
"454 214 LINE",
"895 1269 LINE",
"764 1270 LINE",
"1194 214 LINE",
"986 214 LINE",
"986 0 LINE",
"1790 0 LINE",
"1790 214 LINE",
"1651 214 LINE",
"1106 1500 LINE",
"718 1500 LINE",
"173 214 LINE",
"34 214 LINE",
"34 0 LINE"
);
},
{
closed = 1;
nodes = (
"1184 425 LINE",
"1184 649 LINE",
"486 649 LINE",
"486 425 LINE"
);
},
{
closed = 1;
nodes = (
"1095 1594 OFFCURVE",
"1223 1683 OFFCURVE",
"1223 1828 CURVE SMOOTH",
"1223 1972 OFFCURVE",
"1095 2061 OFFCURVE",
"912 2061 CURVE SMOOTH",
"729 2061 OFFCURVE",
"601 1972 OFFCURVE",
"601 1828 CURVE SMOOTH",
"601 1683 OFFCURVE",
"729 1594 OFFCURVE",
"912 1594 CURVE SMOOTH"
);
},
{
closed = 1;
nodes = (
"852 1712 OFFCURVE",
"811 1756 OFFCURVE",
"811 1828 CURVE SMOOTH",
"811 1899 OFFCURVE",
"852 1943 OFFCURVE",
"912 1943 CURVE SMOOTH",
"972 1943 OFFCURVE",
"1013 1899 OFFCURVE",
"1013 1828 CURVE SMOOTH",
"1013 1756 OFFCURVE",
"972 1712 OFFCURVE",
"912 1712 CURVE SMOOTH"
);
}
);
width = 1824;
},
{
anchors = (
{
name = bottom;
position = "{903, 0}";
},
{
name = ogonek;
position = "{1619, 0}";
},
{
name = top;
position = "{903, 1996}";
}
);
layerId = "0C29AA02-E021-4BD1-A2C4-87F681D64C35";
paths = (
{
closed = 1;
nodes = (
"656 0 LINE",
"656 196 LINE",
"433 196 LINE",
"870 1275 LINE",
"731 1276 LINE",
"1159 196 LINE",
"936 196 LINE",
"936 0 LINE",
"1759 0 LINE",
"1759 196 LINE",
"1613 196 LINE",
"1077 1506 LINE",
"728 1506 LINE",
"192 196 LINE",
"46 196 LINE",
"46 0 LINE"
);
},
{
closed = 1;
nodes = (
"1155 433 LINE",
"1155 633 LINE",
"457 633 LINE",
"457 433 LINE"
);
},
{
closed = 1;
nodes = (
"1074 1578 OFFCURVE",
"1194 1667 OFFCURVE",
"1194 1812 CURVE SMOOTH",
"1194 1956 OFFCURVE",
"1074 2045 OFFCURVE",
"903 2045 CURVE SMOOTH",
"732 2045 OFFCURVE",
"612 1956 OFFCURVE",
"612 1812 CURVE SMOOTH",
"612 1667 OFFCURVE",
"732 1578 OFFCURVE",
"903 1578 CURVE SMOOTH"
);
},
{
closed = 1;
nodes = (
"849 1688 OFFCURVE",
"812 1735 OFFCURVE",
"812 1812 CURVE SMOOTH",
"812 1888 OFFCURVE",
"849 1935 OFFCURVE",
"903 1935 CURVE SMOOTH",
"957 1935 OFFCURVE",
"994 1888 OFFCURVE",
"994 1812 CURVE SMOOTH",
"994 1735 OFFCURVE",
"957 1688 OFFCURVE",
"903 1688 CURVE SMOOTH"
);
}
);
width = 1805;
}
);
leftKerningGroup = A;
rightKerningGroup = A;
unicode = 00C5;
},
{
glyphname = Aringacute;
lastChange = "2021-05-03 12:17:03 +0000";
layers = (
{
anchors = (
{
name = bottom;
position = "{845, 0}";
},
{
name = ogonek;
position = "{1590, 0}";
},
{
name = top;
position = "{845, 1952}";
}
);
layerId = "CA54B7DC-FBBB-40FE-ACF3-AABDD76D6A7B";
paths = (
{
closed = 1;
nodes = (
"520 0 LINE",
"520 42 LINE",
"250 42 LINE",
"851 1453 LINE",
"834 1453 LINE",
"1436 42 LINE",
"1166 42 LINE",
"1166 0 LINE",
"1662 0 LINE",
"1662 42 LINE",
"1488 42 LINE",
"864 1500 LINE",
"826 1500 LINE",
"202 42 LINE",
"28 42 LINE",
"28 0 LINE"
);
},
{
closed = 1;
nodes = (
"1252 516 LINE",
"1252 560 LINE",
"436 560 LINE",
"436 516 LINE"
);
},
{
closed = 1;
nodes = (
"946 1640 OFFCURVE",
"1024 1703 OFFCURVE",
"1024 1813 CURVE SMOOTH",
"1024 1923 OFFCURVE",
"946 1986 OFFCURVE",
"845 1986 CURVE SMOOTH",
"744 1986 OFFCURVE",
"666 1923 OFFCURVE",
"666 1813 CURVE SMOOTH",
"666 1703 OFFCURVE",
"744 1640 OFFCURVE",
"845 1640 CURVE SMOOTH"
);
},
{
closed = 1;
nodes = (
"766 1676 OFFCURVE",
"710 1727 OFFCURVE",
"710 1813 CURVE SMOOTH",
"710 1899 OFFCURVE",
"766 1950 OFFCURVE",
"845 1950 CURVE SMOOTH",
"924 1950 OFFCURVE",
"980 1899 OFFCURVE",
"980 1813 CURVE SMOOTH",
"980 1727 OFFCURVE",
"924 1676 OFFCURVE",
"845 1676 CURVE SMOOTH"
);
},
{
closed = 1;
nodes = (
"839 2102 LINE",
"1092 2412 LINE",
"1032 2412 LINE",
"788 2102 LINE"
);
}
);
width = 1690;
},
{
anchors = (
{
name = bottom;
position = "{827, 0}";
},
{
name = ogonek;
position = "{1543, 0}";
},
{
name = top;
position = "{827, 1930}";
}
);
layerId = "1E61A082-F045-49A7-AB52-DD1B03FD9B54";
paths = (
{
closed = 1;
nodes = (
"546 0 LINE",
"546 36 LINE",
"255 36 LINE",
"831 1453 LINE",
"814 1453 LINE",
"1390 36 LINE",
"1099 36 LINE",
"1099 0 LINE",
"1625 0 LINE",
"1625 36 LINE",
"1442 36 LINE",
"845 1500 LINE",
"809 1500 LINE",
"212 36 LINE",
"29 36 LINE",
"29 0 LINE"
);
},
{
closed = 1;
nodes = (
"1213 520 LINE",
"1213 558 LINE",
"437 558 LINE",
"437 520 LINE"
);
},
{
closed = 1;
nodes = (
"928 1620 OFFCURVE",
"1006 1683 OFFCURVE",
"1006 1793 CURVE SMOOTH",
"1006 1903 OFFCURVE",
"928 1966 OFFCURVE",
"827 1966 CURVE SMOOTH",
"726 1966 OFFCURVE",
"648 1903 OFFCURVE",
"648 1793 CURVE SMOOTH",
"648 1683 OFFCURVE",
"726 1620 OFFCURVE",
"827 1620 CURVE SMOOTH"
);
},
{
closed = 1;
nodes = (
"748 1656 OFFCURVE",
"692 1707 OFFCURVE",
"692 1793 CURVE SMOOTH",
"692 1879 OFFCURVE",
"748 1930 OFFCURVE",
"827 1930 CURVE SMOOTH",
"906 1930 OFFCURVE",
"962 1879 OFFCURVE",
"962 1793 CURVE SMOOTH",
"962 1707 OFFCURVE",
"906 1656 OFFCURVE",
"827 1656 CURVE SMOOTH"
);
},
{
closed = 1;
nodes = (
"822 2080 LINE",
"1058 2390 LINE",
"1002 2390 LINE",
"775 2080 LINE"
);
}
);
width = 1654;
},
{
anchors = (
{
name = bottom;
position = "{912, 0}";
},
{
name = ogonek;
position = "{1642, 0}";
},
{
name = top;
position = "{912, 2002}";
}
);
layerId = "219068EA-2B9B-40DC-949E-B60449C01B8A";
paths = (
{
closed = 1;
nodes = (
"660 0 LINE",
"660 214 LINE",
"454 214 LINE",
"895 1269 LINE",
"764 1270 LINE",
"1194 214 LINE",
"986 214 LINE",
"986 0 LINE",
"1790 0 LINE",
"1790 214 LINE",
"1651 214 LINE",
"1106 1500 LINE",
"718 1500 LINE",
"173 214 LINE",
"34 214 LINE",
"34 0 LINE"
);
},
{
closed = 1;
nodes = (
"1184 425 LINE",
"1184 649 LINE",
"486 649 LINE",
"486 425 LINE"
);
},
{
closed = 1;
nodes = (
"1095 1594 OFFCURVE",
"1223 1683 OFFCURVE",
"1223 1828 CURVE SMOOTH",
"1223 1972 OFFCURVE",
"1095 2061 OFFCURVE",
"912 2061 CURVE SMOOTH",
"729 2061 OFFCURVE",
"601 1972 OFFCURVE",
"601 1828 CURVE SMOOTH",
"601 1683 OFFCURVE",
"729 1594 OFFCURVE",
"912 1594 CURVE SMOOTH"
);
},
{
closed = 1;
nodes = (
"852 1712 OFFCURVE",
"811 1756 OFFCURVE",
"811 1828 CURVE SMOOTH",
"811 1899 OFFCURVE",
"852 1943 OFFCURVE",
"912 1943 CURVE SMOOTH",
"972 1943 OFFCURVE",
"1013 1899 OFFCURVE",
"1013 1828 CURVE SMOOTH",
"1013 1756 OFFCURVE",
"972 1712 OFFCURVE",
"912 1712 CURVE SMOOTH"
);
},
{
closed = 1;
nodes = (
"1005 2132 LINE",
"1283 2432 LINE",
"875 2432 LINE",
"743 2132 LINE"
);
}
);
width = 1824;
},
{
anchors = (
{
name = bottom;
position = "{903, 0}";
},
{
name = ogonek;
position = "{1619, 0}";
},
{
name = top;
position = "{903, 1996}";
}
);
layerId = "0C29AA02-E021-4BD1-A2C4-87F681D64C35";
paths = (
{
closed = 1;
nodes = (
"656 0 LINE",
"656 196 LINE",
"433 196 LINE",
"870 1275 LINE",
"731 1276 LINE",
"1159 196 LINE",
"936 196 LINE",
"936 0 LINE",
"1759 0 LINE",
"1759 196 LINE",
"1613 196 LINE",
"1077 1506 LINE",
"728 1506 LINE",
"192 196 LINE",
"46 196 LINE",
"46 0 LINE"
);
},
{
closed = 1;
nodes = (
"1155 433 LINE",
"1155 633 LINE",
"457 633 LINE",
"457 433 LINE"
);
},
{
closed = 1;
nodes = (
"1074 1578 OFFCURVE",
"1194 1667 OFFCURVE",
"1194 1812 CURVE SMOOTH",
"1194 1956 OFFCURVE",
"1074 2045 OFFCURVE",
"903 2045 CURVE SMOOTH",
"732 2045 OFFCURVE",
"612 1956 OFFCURVE",
"612 1812 CURVE SMOOTH",
"612 1667 OFFCURVE",
"732 1578 OFFCURVE",
"903 1578 CURVE SMOOTH"
);
},
{
closed = 1;
nodes = (
"849 1688 OFFCURVE",
"812 1735 OFFCURVE",
"812 1812 CURVE SMOOTH",
"812 1888 OFFCURVE",
"849 1935 OFFCURVE",
"903 1935 CURVE SMOOTH",
"957 1935 OFFCURVE",
"994 1888 OFFCURVE",
"994 1812 CURVE SMOOTH",
"994 1735 OFFCURVE",
"957 1688 OFFCURVE",
"903 1688 CURVE SMOOTH"
);
},
{
closed = 1;
nodes = (
"988 2106 LINE",
"1288 2406 LINE",
"880 2406 LINE",
"750 2106 LINE"
);
}
);
width = 1805;
}
);
leftKerningGroup = A;
rightKerningGroup = A;
unicode = 01FA;
},
{
glyphname = Atilde;
lastChange = "2021-05-03 12:17:03 +0000";
layers = (
{
anchors = (
{
name = bottom;
position = "{845, 0}";
},
{
name = ogonek;
position = "{1590, 0}";
},
{
name = top;
position = "{845, 1824}";
}
);
layerId = "CA54B7DC-FBBB-40FE-ACF3-AABDD76D6A7B";
paths = (
{
closed = 1;
nodes = (
"520 0 LINE",
"520 42 LINE",
"250 42 LINE",
"851 1453 LINE",
"834 1453 LINE",
"1436 42 LINE",
"1166 42 LINE",
"1166 0 LINE",
"1662 0 LINE",
"1662 42 LINE",
"1488 42 LINE",
"864 1500 LINE",
"826 1500 LINE",
"202 42 LINE",
"28 42 LINE",
"28 0 LINE"
);
},
{
closed = 1;
nodes = (
"1252 516 LINE",
"1252 560 LINE",
"436 560 LINE",
"436 516 LINE"
);
},
{
closed = 1;
nodes = (
"1068 1638 OFFCURVE",
"1103 1700 OFFCURVE",
"1103 1805 CURVE SMOOTH",
"1103 1880 LINE",
"1063 1880 LINE",
"1063 1809 LINE SMOOTH",
"1063 1718 OFFCURVE",
"1040 1678 OFFCURVE",
"983 1678 CURVE SMOOTH",
"930 1678 OFFCURVE",
"903 1723 OFFCURVE",
"873 1763 CURVE SMOOTH",
"852 1791 LINE",
"817 1767 LINE",
"838 1739 LINE SMOOTH",
"872 1693 OFFCURVE",
"908 1638 OFFCURVE",
"983 1638 CURVE SMOOTH"
);
},
{
closed = 1;
nodes = (
"587 1650 LINE",
"627 1650 LINE",
"627 1721 LINE SMOOTH",
"627 1812 OFFCURVE",
"650 1852 OFFCURVE",
"707 1852 CURVE SMOOTH",
"760 1852 OFFCURVE",
"787 1807 OFFCURVE",
"817 1767 CURVE SMOOTH",
"838 1739 LINE",
"873 1763 LINE",
"852 1791 LINE SMOOTH",
"818 1837 OFFCURVE",
"782 1892 OFFCURVE",
"707 1892 CURVE SMOOTH",
"622 1892 OFFCURVE",
"587 1830 OFFCURVE",
"587 1725 CURVE SMOOTH"
);
}
);
width = 1690;
},
{
anchors = (
{
name = bottom;
position = "{827, 0}";
},
{
name = ogonek;
position = "{1543, 0}";
},
{
name = top;
position = "{827, 1878}";
}
);
layerId = "1E61A082-F045-49A7-AB52-DD1B03FD9B54";
paths = (
{
closed = 1;
nodes = (
"546 0 LINE",
"546 36 LINE",
"255 36 LINE",
"831 1453 LINE",
"814 1453 LINE",
"1390 36 LINE",
"1099 36 LINE",
"1099 0 LINE",
"1625 0 LINE",
"1625 36 LINE",
"1442 36 LINE",
"845 1500 LINE",
"809 1500 LINE",
"212 36 LINE",
"29 36 LINE",
"29 0 LINE"
);
},
{
closed = 1;
nodes = (
"1213 520 LINE",
"1213 558 LINE",
"437 558 LINE",
"437 520 LINE"
);
},
{
closed = 1;
nodes = (
"1050 1658 OFFCURVE",
"1089 1720 OFFCURVE",
"1089 1825 CURVE SMOOTH",
"1089 1900 LINE",
"1051 1900 LINE",
"1051 1829 LINE SMOOTH",
"1051 1738 OFFCURVE",
"1022 1698 OFFCURVE",
"965 1698 CURVE SMOOTH",
"914 1698 OFFCURVE",
"882 1742 OFFCURVE",
"853 1784 CURVE SMOOTH",
"834 1812 LINE",
"801 1786 LINE",
"820 1758 LINE SMOOTH",
"852 1710 OFFCURVE",
"894 1658 OFFCURVE",
"965 1658 CURVE SMOOTH"
);
},
{
closed = 1;
nodes = (
"565 1670 LINE",
"603 1670 LINE",
"603 1741 LINE SMOOTH",
"603 1832 OFFCURVE",
"632 1872 OFFCURVE",
"689 1872 CURVE SMOOTH",
"740 1872 OFFCURVE",
"772 1828 OFFCURVE",
"801 1786 CURVE SMOOTH",
"820 1758 LINE",
"853 1784 LINE",
"834 1812 LINE SMOOTH",
"802 1860 OFFCURVE",
"760 1912 OFFCURVE",
"689 1912 CURVE SMOOTH",
"604 1912 OFFCURVE",
"565 1850 OFFCURVE",
"565 1745 CURVE SMOOTH"
);
}
);
width = 1654;
},
{
anchors = (
{
name = bottom;
position = "{912, 0}";
},
{
name = ogonek;
position = "{1642, 0}";
},
{
name = top;
position = "{912, 1900}";
}
);
layerId = "219068EA-2B9B-40DC-949E-B60449C01B8A";
paths = (
{
closed = 1;
nodes = (
"660 0 LINE",
"660 214 LINE",
"454 214 LINE",
"895 1269 LINE",
"764 1270 LINE",
"1194 214 LINE",
"986 214 LINE",
"986 0 LINE",
"1790 0 LINE",
"1790 214 LINE",
"1651 214 LINE",
"1106 1500 LINE",
"718 1500 LINE",
"173 214 LINE",
"34 214 LINE",
"34 0 LINE"
);
},
{
closed = 1;
nodes = (
"1184 425 LINE",
"1184 649 LINE",
"486 649 LINE",
"486 425 LINE"
);
},
{
closed = 1;
nodes = (
"1200 1608 OFFCURVE",
"1268 1693 OFFCURVE",
"1268 1844 CURVE SMOOTH",
"1268 1930 LINE",
"1102 1930 LINE",
"1102 1894 LINE SMOOTH",
"1102 1845 OFFCURVE",
"1087 1818 OFFCURVE",
"1050 1818 CURVE SMOOTH",
"1021 1818 OFFCURVE",
"1002 1829 OFFCURVE",
"973 1850 CURVE SMOOTH",
"939 1875 LINE",
"851 1710 LINE",
"885 1685 LINE SMOOTH",
"943 1642 OFFCURVE",
"997 1608 OFFCURVE",
"1076 1608 CURVE SMOOTH"
);
},
{
closed = 1;
nodes = (
"556 1630 LINE",
"722 1630 LINE",
"722 1666 LINE SMOOTH",
"722 1715 OFFCURVE",
"737 1742 OFFCURVE",
"774 1742 CURVE SMOOTH",
"803 1742 OFFCURVE",
"822 1731 OFFCURVE",
"851 1710 CURVE SMOOTH",
"885 1685 LINE",
"973 1850 LINE",
"939 1875 LINE SMOOTH",
"881 1918 OFFCURVE",
"827 1952 OFFCURVE",
"748 1952 CURVE SMOOTH",
"624 1952 OFFCURVE",
"556 1867 OFFCURVE",
"556 1716 CURVE SMOOTH"
);
}
);
width = 1824;
},
{
anchors = (
{
name = bottom;
position = "{903, 0}";
},
{
name = ogonek;
position = "{1619, 0}";
},
{
name = top;
position = "{903, 1878}";
}
);
layerId = "0C29AA02-E021-4BD1-A2C4-87F681D64C35";
paths = (
{
closed = 1;
nodes = (
"656 0 LINE",
"656 196 LINE",
"433 196 LINE",
"870 1275 LINE",
"731 1276 LINE",
"1159 196 LINE",
"936 196 LINE",
"936 0 LINE",
"1759 0 LINE",
"1759 196 LINE",
"1613 196 LINE",
"1077 1506 LINE",
"728 1506 LINE",
"192 196 LINE",
"46 196 LINE",
"46 0 LINE"
);
},
{
closed = 1;
nodes = (
"1155 433 LINE",
"1155 633 LINE",
"457 633 LINE",
"457 433 LINE"
);
},
{
closed = 1;
nodes = (
"1195 1588 OFFCURVE",
"1259 1669 OFFCURVE",
"1259 1814 CURVE SMOOTH",
"1259 1910 LINE",
"1101 1910 LINE",
"1101 1874 LINE SMOOTH",
"1101 1824 OFFCURVE",
"1083 1796 OFFCURVE",
"1049 1796 CURVE SMOOTH",
"1019 1796 OFFCURVE",
"995 1809 OFFCURVE",
"965 1830 CURVE SMOOTH",
"929 1855 LINE",
"841 1690 LINE",
"877 1665 LINE SMOOTH",
"937 1623 OFFCURVE",
"992 1588 OFFCURVE",
"1071 1588 CURVE SMOOTH"
);
},
{
closed = 1;
nodes = (
"547 1610 LINE",
"705 1610 LINE",
"705 1646 LINE SMOOTH",
"705 1696 OFFCURVE",
"723 1724 OFFCURVE",
"757 1724 CURVE SMOOTH",
"787 1724 OFFCURVE",
"811 1711 OFFCURVE",
"841 1690 CURVE SMOOTH",
"877 1665 LINE",
"965 1830 LINE",
"929 1855 LINE SMOOTH",
"869 1897 OFFCURVE",
"814 1932 OFFCURVE",
"735 1932 CURVE SMOOTH",
"611 1932 OFFCURVE",
"547 1851 OFFCURVE",
"547 1706 CURVE SMOOTH"
);
}
);
width = 1805;
}
);
leftKerningGroup = A;
rightKerningGroup = A;
unicode = 00C3;
},
{
color = 8;
glyphname = AE;
lastChange = "2021-05-03 12:17:04 +0000";
layers = (
{
anchors = (
{
name = top;
position = "{1266, 1500}";
}
);
layerId = "CA54B7DC-FBBB-40FE-ACF3-AABDD76D6A7B";
paths = (
{
closed = 1;
nodes = (
"526 0 LINE",
"526 42 LINE",
"261 42 LINE",
"1249 1500 LINE",
"1198 1500 LINE",
"209 42 LINE",
"28 42 LINE",
"28 0 LINE"
);
},
{
closed = 1;
nodes = (
"1218 516 LINE",
"1218 560 LINE",
"571 560 LINE",
"571 516 LINE"
);
},
{
closed = 1;
nodes = (
"2270 0 LINE",
"2270 44 LINE",
"1266 44 LINE",
"1266 0 LINE"
);
},
{
closed = 1;
nodes = (
"1266 0 LINE",
"1266 1500 LINE",
"939 1500 LINE",
"939 1458 LINE",
"1218 1458 LINE",
"1218 42 LINE",
"980 42 LINE",
"980 0 LINE"
);
},
{
closed = 1;
nodes = (
"1774 364 LINE",
"1816 364 LINE",
"1816 770 LINE",
"1656 770 LINE SMOOTH",
"1750 770 OFFCURVE",
"1774 746 OFFCURVE",
"1774 648 CURVE SMOOTH"
);
},
{
closed = 1;
nodes = (
"1816 770 LINE",
"1816 814 LINE",
"1266 814 LINE",
"1266 770 LINE"
);
},
{
closed = 1;
nodes = (
"2270 44 LINE",
"2270 520 LINE",
"2226 520 LINE",
"2226 174 LINE SMOOTH",
"2226 70 OFFCURVE",
"2200 44 OFFCURVE",
"2100 44 CURVE SMOOTH"
);
},
{
closed = 1;
nodes = (
"1816 814 LINE",
"1816 1146 LINE",
"1774 1146 LINE",
"1774 936 LINE SMOOTH",
"1774 838 OFFCURVE",
"1750 814 OFFCURVE",
"1656 814 CURVE SMOOTH"
);
},
{
closed = 1;
nodes = (
"2252 1456 LINE",
"2252 1500 LINE",
"1266 1500 LINE",
"1266 1456 LINE"
);
},
{
closed = 1;
nodes = (
"2208 1000 LINE",
"2252 1000 LINE",
"2252 1456 LINE",
"2082 1456 LINE SMOOTH",
"2182 1456 OFFCURVE",
"2208 1430 OFFCURVE",
"2208 1326 CURVE SMOOTH"
);
}
);
width = 2408;
},
{
anchors = (
{
name = top;
position = "{1241, 1500}";
}
);
layerId = "1E61A082-F045-49A7-AB52-DD1B03FD9B54";
paths = (
{
closed = 1;
nodes = (
"550 0 LINE",
"550 36 LINE",
"264 36 LINE",
"1217 1500 LINE",
"1172 1500 LINE",
"216 36 LINE",
"29 36 LINE",
"29 0 LINE"
);
},
{
closed = 1;
nodes = (
"1193 520 LINE",
"1193 558 LINE",
"567 558 LINE",
"567 520 LINE"
);
},
{
closed = 1;
nodes = (
"2185 0 LINE",
"2185 38 LINE",
"1241 38 LINE",
"1241 0 LINE"
);
},
{
closed = 1;
nodes = (
"1241 0 LINE",
"1241 1500 LINE",
"899 1500 LINE",
"899 1464 LINE",
"1193 1464 LINE",
"1193 36 LINE",
"940 36 LINE",
"940 0 LINE"
);
},
{
closed = 1;
nodes = (
"1743 308 LINE",
"1781 308 LINE",
"1781 772 LINE",
"1625 772 LINE SMOOTH",
"1719 772 OFFCURVE",
"1743 748 OFFCURVE",
"1743 650 CURVE SMOOTH"
);
},
{
closed = 1;
nodes = (
"1781 772 LINE",
"1781 810 LINE",
"1241 810 LINE",
"1241 772 LINE"
);
},
{
closed = 1;
nodes = (
"2185 38 LINE",
"2185 580 LINE",
"2145 580 LINE",
"2145 168 LINE SMOOTH",
"2145 64 OFFCURVE",
"2119 38 OFFCURVE",
"2019 38 CURVE SMOOTH"
);
},
{
closed = 1;
nodes = (
"1781 810 LINE",
"1781 1202 LINE",
"1743 1202 LINE",
"1743 932 LINE SMOOTH",
"1743 834 OFFCURVE",
"1719 810 OFFCURVE",
"1625 810 CURVE SMOOTH"
);
},
{
closed = 1;
nodes = (
"2167 1462 LINE",
"2167 1500 LINE",
"1241 1500 LINE",
"1241 1462 LINE"
);
},
{
closed = 1;
nodes = (
"2127 940 LINE",
"2167 940 LINE",
"2167 1462 LINE",
"2001 1462 LINE SMOOTH",
"2101 1462 OFFCURVE",
"2127 1436 OFFCURVE",
"2127 1332 CURVE SMOOTH"
);
}
);
width = 2343;
},
{
anchors = (
{
name = top;
position = "{1329, 1500}";
}
);
layerId = "219068EA-2B9B-40DC-949E-B60449C01B8A";
paths = (
{
closed = 1;
nodes = (
"684 0 LINE",
"684 214 LINE",
"500 214 LINE",
"1289 1500 LINE",
"990 1500 LINE",
"195 214 LINE",
"34 214 LINE",
"34 0 LINE"
);
},
{
closed = 1;
nodes = (
"1119 425 LINE",
"1119 649 LINE",
"551 649 LINE",
"551 425 LINE"
);
},
{
closed = 1;
nodes = (
"2363 0 LINE",
"2363 224 LINE",
"1539 224 LINE",
"1539 0 LINE"
);
},
{
closed = 1;
nodes = (
"1539 0 LINE",
"1539 1500 LINE",
"684 1500 LINE",
"684 1286 LINE",
"1119 1286 LINE",
"1119 214 LINE",
"954 214 LINE",
"954 0 LINE"
);
},
{
closed = 1;
nodes = (
"1720 364 LINE",
"1944 364 LINE",
"1944 662 LINE",
"1548 662 LINE SMOOTH",
"1666 662 OFFCURVE",
"1720 592 OFFCURVE",
"1720 432 CURVE SMOOTH"
);
},
{
closed = 1;
nodes = (
"1944 662 LINE",
"1944 882 LINE",
"1539 882 LINE",
"1539 662 LINE"
);
},
{
closed = 1;
nodes = (
"2363 224 LINE",
"2363 560 LINE",
"2131 560 LINE",
"2131 464 LINE SMOOTH",
"2131 294 OFFCURVE",
"2071 224 OFFCURVE",
"1911 224 CURVE SMOOTH"
);
},
{
closed = 1;
nodes = (
"1944 882 LINE",
"1944 1136 LINE",
"1720 1136 LINE",
"1720 1112 LINE SMOOTH",
"1720 952 OFFCURVE",
"1666 882 OFFCURVE",
"1548 882 CURVE SMOOTH"
);
},
{
closed = 1;
nodes = (
"2345 1276 LINE",
"2345 1500 LINE",
"1539 1500 LINE",
"1539 1276 LINE"
);
},
{
closed = 1;
nodes = (
"2113 960 LINE",
"2345 960 LINE",
"2345 1276 LINE",
"1893 1276 LINE SMOOTH",
"2053 1276 OFFCURVE",
"2113 1206 OFFCURVE",
"2113 1036 CURVE SMOOTH"
);
}
);
width = 2458;
},
{
anchors = (
{
name = top;
position = "{1266, 1500}";
}
);
layerId = "0C29AA02-E021-4BD1-A2C4-87F681D64C35";
paths = (
{
closed = 1;
nodes = (
"674 0 LINE",
"674 196 LINE",
"473 196 LINE",
"1234 1500 LINE",
"980 1500 LINE",
"214 196 LINE",
"46 196 LINE",
"46 0 LINE"
);
},
{
closed = 1;
nodes = (
"1056 433 LINE",
"1056 641 LINE",
"542 641 LINE",
"542 433 LINE"
);
},
{
closed = 1;
nodes = (
"2226 0 LINE",
"2226 206 LINE",
"1476 206 LINE",
"1476 0 LINE"
);
},
{
closed = 1;
nodes = (
"1476 0 LINE",
"1476 1500 LINE",
"688 1500 LINE",
"688 1304 LINE",
"1056 1304 LINE",
"1056 196 LINE",
"880 196 LINE",
"880 0 LINE"
);
},
{
closed = 1;
nodes = (
"1681 326 LINE",
"1873 326 LINE",
"1873 670 LINE",
"1481 670 LINE SMOOTH",
"1624 670 OFFCURVE",
"1681 600 OFFCURVE",
"1681 440 CURVE SMOOTH"
);
},
{
closed = 1;
nodes = (
"1873 670 LINE",
"1873 874 LINE",
"1476 874 LINE",
"1476 670 LINE"
);
},
{
closed = 1;
nodes = (
"2226 206 LINE",
"2226 580 LINE",
"2028 580 LINE",
"2028 446 LINE SMOOTH",
"2028 276 OFFCURVE",
"1968 206 OFFCURVE",
"1808 206 CURVE SMOOTH"
);
},
{
closed = 1;
nodes = (
"1873 874 LINE",
"1873 1174 LINE",
"1681 1174 LINE",
"1681 1104 LINE SMOOTH",
"1681 944 OFFCURVE",
"1624 874 OFFCURVE",
"1481 874 CURVE SMOOTH"
);
},
{
closed = 1;
nodes = (
"2212 1294 LINE",
"2212 1500 LINE",
"1476 1500 LINE",
"1476 1294 LINE"
);
},
{
closed = 1;
nodes = (
"2014 940 LINE",
"2212 940 LINE",
"2212 1294 LINE",
"1794 1294 LINE SMOOTH",
"1954 1294 OFFCURVE",
"2014 1224 OFFCURVE",
"2014 1054 CURVE SMOOTH"
);
}
);
width = 2354;
}
);
leftKerningGroup = AE;
rightKerningGroup = E;
unicode = 00C6;
},
{
glyphname = AEacute;
lastChange = "2021-05-03 12:17:03 +0000";
layers = (
{
anchors = (
{
name = top;
position = "{1266, 1500}";
}
);
layerId = "CA54B7DC-FBBB-40FE-ACF3-AABDD76D6A7B";
paths = (
{
closed = 1;
nodes = (
"526 0 LINE",
"526 42 LINE",
"261 42 LINE",
"1249 1500 LINE",
"1198 1500 LINE",
"209 42 LINE",
"28 42 LINE",
"28 0 LINE"
);
},
{
closed = 1;
nodes = (
"1218 516 LINE",
"1218 560 LINE",
"571 560 LINE",
"571 516 LINE"
);
},
{
closed = 1;
nodes = (
"2270 0 LINE",
"2270 44 LINE",
"1266 44 LINE",
"1266 0 LINE"
);
},
{
closed = 1;
nodes = (
"1266 0 LINE",
"1266 1500 LINE",
"939 1500 LINE",
"939 1458 LINE",
"1218 1458 LINE",
"1218 42 LINE",
"980 42 LINE",
"980 0 LINE"
);
},
{
closed = 1;
nodes = (
"1774 364 LINE",
"1816 364 LINE",
"1816 770 LINE",
"1656 770 LINE SMOOTH",
"1750 770 OFFCURVE",
"1774 746 OFFCURVE",
"1774 648 CURVE SMOOTH"
);
},
{
closed = 1;
nodes = (
"1816 770 LINE",
"1816 814 LINE",
"1266 814 LINE",
"1266 770 LINE"
);
},
{
closed = 1;
nodes = (
"2270 44 LINE",
"2270 520 LINE",
"2226 520 LINE",
"2226 174 LINE SMOOTH",
"2226 70 OFFCURVE",
"2200 44 OFFCURVE",
"2100 44 CURVE SMOOTH"
);
},
{
closed = 1;
nodes = (
"1816 814 LINE",
"1816 1146 LINE",
"1774 1146 LINE",
"1774 936 LINE SMOOTH",
"1774 838 OFFCURVE",
"1750 814 OFFCURVE",
"1656 814 CURVE SMOOTH"
);
},
{
closed = 1;
nodes = (
"2252 1456 LINE",
"2252 1500 LINE",
"1266 1500 LINE",
"1266 1456 LINE"
);
},
{
closed = 1;
nodes = (
"2208 1000 LINE",
"2252 1000 LINE",
"2252 1456 LINE",
"2082 1456 LINE SMOOTH",
"2182 1456 OFFCURVE",
"2208 1430 OFFCURVE",
"2208 1326 CURVE SMOOTH"
);
},
{
closed = 1;
nodes = (
"1260 1650 LINE",
"1513 1960 LINE",
"1453 1960 LINE",
"1209 1650 LINE"
);
}
);
width = 2408;
},
{
anchors = (
{
name = top;
position = "{1241, 1500}";
}
);
layerId = "1E61A082-F045-49A7-AB52-DD1B03FD9B54";
paths = (
{
closed = 1;
nodes = (
"550 0 LINE",
"550 36 LINE",
"264 36 LINE",
"1217 1500 LINE",
"1172 1500 LINE",
"216 36 LINE",
"29 36 LINE",
"29 0 LINE"
);
},
{
closed = 1;
nodes = (
"1193 520 LINE",
"1193 558 LINE",
"567 558 LINE",
"567 520 LINE"
);
},
{
closed = 1;
nodes = (
"2185 0 LINE",
"2185 38 LINE",
"1241 38 LINE",
"1241 0 LINE"
);
},
{
closed = 1;
nodes = (
"1241 0 LINE",
"1241 1500 LINE",
"899 1500 LINE",
"899 1464 LINE",
"1193 1464 LINE",
"1193 36 LINE",
"940 36 LINE",
"940 0 LINE"
);
},
{
closed = 1;
nodes = (
"1743 308 LINE",
"1781 308 LINE",
"1781 772 LINE",
"1625 772 LINE SMOOTH",
"1719 772 OFFCURVE",
"1743 748 OFFCURVE",
"1743 650 CURVE SMOOTH"
);
},
{
closed = 1;
nodes = (
"1781 772 LINE",
"1781 810 LINE",
"1241 810 LINE",
"1241 772 LINE"
);
},
{
closed = 1;
nodes = (
"2185 38 LINE",
"2185 580 LINE",
"2145 580 LINE",
"2145 168 LINE SMOOTH",
"2145 64 OFFCURVE",
"2119 38 OFFCURVE",
"2019 38 CURVE SMOOTH"
);
},
{
closed = 1;
nodes = (
"1781 810 LINE",
"1781 1202 LINE",
"1743 1202 LINE",
"1743 932 LINE SMOOTH",
"1743 834 OFFCURVE",
"1719 810 OFFCURVE",
"1625 810 CURVE SMOOTH"
);
},
{
closed = 1;
nodes = (
"2167 1462 LINE",
"2167 1500 LINE",
"1241 1500 LINE",
"1241 1462 LINE"
);
},
{
closed = 1;
nodes = (
"2127 940 LINE",
"2167 940 LINE",
"2167 1462 LINE",
"2001 1462 LINE SMOOTH",
"2101 1462 OFFCURVE",
"2127 1436 OFFCURVE",
"2127 1332 CURVE SMOOTH"
);
},
{
closed = 1;
nodes = (
"1236 1650 LINE",
"1472 1960 LINE",
"1416 1960 LINE",
"1189 1650 LINE"
);
}
);
width = 2343;
},
{
anchors = (
{
name = top;
position = "{1329, 1500}";
}
);
layerId = "219068EA-2B9B-40DC-949E-B60449C01B8A";
paths = (
{
closed = 1;
nodes = (
"684 0 LINE",
"684 214 LINE",
"500 214 LINE",
"1289 1500 LINE",
"990 1500 LINE",
"195 214 LINE",
"34 214 LINE",
"34 0 LINE"
);
},
{
closed = 1;
nodes = (
"1119 425 LINE",
"1119 649 LINE",
"551 649 LINE",
"551 425 LINE"
);
},
{
closed = 1;
nodes = (
"2363 0 LINE",
"2363 224 LINE",
"1539 224 LINE",
"1539 0 LINE"
);
},
{
closed = 1;
nodes = (
"1539 0 LINE",
"1539 1500 LINE",
"684 1500 LINE",
"684 1286 LINE",
"1119 1286 LINE",
"1119 214 LINE",
"954 214 LINE",
"954 0 LINE"
);
},
{
closed = 1;
nodes = (
"1720 364 LINE",
"1944 364 LINE",
"1944 662 LINE",
"1548 662 LINE SMOOTH",
"1666 662 OFFCURVE",
"1720 592 OFFCURVE",
"1720 432 CURVE SMOOTH"
);
},
{
closed = 1;
nodes = (
"1944 662 LINE",
"1944 882 LINE",
"1539 882 LINE",
"1539 662 LINE"
);
},
{
closed = 1;
nodes = (
"2363 224 LINE",
"2363 560 LINE",
"2131 560 LINE",
"2131 464 LINE SMOOTH",
"2131 294 OFFCURVE",
"2071 224 OFFCURVE",
"1911 224 CURVE SMOOTH"
);
},
{
closed = 1;
nodes = (
"1944 882 LINE",
"1944 1136 LINE",
"1720 1136 LINE",
"1720 1112 LINE SMOOTH",
"1720 952 OFFCURVE",
"1666 882 OFFCURVE",
"1548 882 CURVE SMOOTH"
);
},
{
closed = 1;
nodes = (
"2345 1276 LINE",
"2345 1500 LINE",
"1539 1500 LINE",
"1539 1276 LINE"
);
},
{
closed = 1;
nodes = (
"2113 960 LINE",
"2345 960 LINE",
"2345 1276 LINE",
"1893 1276 LINE SMOOTH",
"2053 1276 OFFCURVE",
"2113 1206 OFFCURVE",
"2113 1036 CURVE SMOOTH"
);
},
{
closed = 1;
nodes = (
"1422 1630 LINE",
"1700 1930 LINE",
"1292 1930 LINE",
"1160 1630 LINE"
);
}
);
width = 2458;
},
{
anchors = (
{
name = top;
position = "{1266, 1500}";
}
);
layerId = "0C29AA02-E021-4BD1-A2C4-87F681D64C35";
paths = (
{
closed = 1;
nodes = (
"674 0 LINE",
"674 196 LINE",
"473 196 LINE",
"1234 1500 LINE",
"980 1500 LINE",
"214 196 LINE",
"46 196 LINE",
"46 0 LINE"
);
},
{
closed = 1;
nodes = (
"1056 433 LINE",
"1056 641 LINE",
"542 641 LINE",
"542 433 LINE"
);
},
{
closed = 1;
nodes = (
"2226 0 LINE",
"2226 206 LINE",
"1476 206 LINE",
"1476 0 LINE"
);
},
{
closed = 1;
nodes = (
"1476 0 LINE",
"1476 1500 LINE",
"688 1500 LINE",
"688 1304 LINE",
"1056 1304 LINE",
"1056 196 LINE",
"880 196 LINE",
"880 0 LINE"
);
},
{
closed = 1;
nodes = (
"1681 326 LINE",
"1873 326 LINE",
"1873 670 LINE",
"1481 670 LINE SMOOTH",
"1624 670 OFFCURVE",
"1681 600 OFFCURVE",
"1681 440 CURVE SMOOTH"
);
},
{
closed = 1;
nodes = (
"1873 670 LINE",
"1873 874 LINE",
"1476 874 LINE",
"1476 670 LINE"
);
},
{
closed = 1;
nodes = (
"2226 206 LINE",
"2226 580 LINE",
"2028 580 LINE",
"2028 446 LINE SMOOTH",
"2028 276 OFFCURVE",
"1968 206 OFFCURVE",
"1808 206 CURVE SMOOTH"
);
},
{
closed = 1;
nodes = (
"1873 874 LINE",
"1873 1174 LINE",
"1681 1174 LINE",
"1681 1104 LINE SMOOTH",
"1681 944 OFFCURVE",
"1624 874 OFFCURVE",
"1481 874 CURVE SMOOTH"
);
},
{
closed = 1;
nodes = (
"2212 1294 LINE",
"2212 1500 LINE",
"1476 1500 LINE",
"1476 1294 LINE"
);
},
{
closed = 1;
nodes = (
"2014 940 LINE",
"2212 940 LINE",
"2212 1294 LINE",
"1794 1294 LINE SMOOTH",
"1954 1294 OFFCURVE",
"2014 1224 OFFCURVE",
"2014 1054 CURVE SMOOTH"
);
},
{
closed = 1;
nodes = (
"1351 1610 LINE",
"1651 1910 LINE",
"1243 1910 LINE",
"1113 1610 LINE"
);
}
);
width = 2354;
}
);
leftKerningGroup = A;
rightKerningGroup = E;
unicode = 01FC;
},
{
color = 8;
glyphname = B;
lastChange = "2021-05-03 12:17:04 +0000";
layers = (
{
anchors = (
{
name = bottom;
position = "{769, 0}";
},
{
name = top;
position = "{769, 1500}";
}
);
layerId = "CA54B7DC-FBBB-40FE-ACF3-AABDD76D6A7B";
paths = (
{
closed = 1;
nodes = (
"358 0 LINE",
"358 1500 LINE",
"77 1500 LINE",
"77 1458 LINE",
"310 1458 LINE",
"310 42 LINE",
"72 42 LINE",
"72 0 LINE"
);
},
{
closed = 1;
nodes = (
"960 0 LINE SMOOTH",
"1232 0 OFFCURVE",
"1412 133 OFFCURVE",
"1412 391 CURVE SMOOTH",
"1412 646 OFFCURVE",
"1241 773 OFFCURVE",
"960 773 CURVE SMOOTH",
"358 773 LINE",
"358 741 LINE",
"948 741 LINE SMOOTH",
"1204 741 OFFCURVE",
"1364 622 OFFCURVE",
"1364 392 CURVE SMOOTH",
"1364 162 OFFCURVE",
"1204 44 OFFCURVE",
"948 44 CURVE SMOOTH",
"358 44 LINE",
"358 0 LINE"
);
},
{
closed = 1;
nodes = (
"916 756 LINE SMOOTH",
"1190 756 OFFCURVE",
"1356 880 OFFCURVE",
"1356 1121 CURVE SMOOTH",
"1356 1371 OFFCURVE",
"1180 1500 OFFCURVE",
"916 1500 CURVE SMOOTH",
"358 1500 LINE",
"358 1456 LINE",
"904 1456 LINE SMOOTH",
"1152 1456 OFFCURVE",
"1308 1343 OFFCURVE",
"1308 1121 CURVE SMOOTH",
"1308 899 OFFCURVE",
"1152 785 OFFCURVE",
"904 785 CURVE SMOOTH",
"358 785 LINE",
"358 756 LINE"
);
}
);
width = 1538;
},
{
anchors = (
{
name = bottom;
position = "{730, 0}";
},
{
name = top;
position = "{730, 1500}";
}
);
layerId = "1E61A082-F045-49A7-AB52-DD1B03FD9B54";
paths = (
{
closed = 1;
nodes = (
"347 0 LINE",
"347 1500 LINE",
"51 1500 LINE",
"51 1464 LINE",
"299 1464 LINE",
"299 36 LINE",
"46 36 LINE",
"46 0 LINE"
);
},
{
closed = 1;
nodes = (
"909 0 LINE SMOOTH",
"1181 0 OFFCURVE",
"1361 133 OFFCURVE",
"1361 391 CURVE SMOOTH",
"1361 643 OFFCURVE",
"1190 769 OFFCURVE",
"909 769 CURVE SMOOTH",
"347 769 LINE",
"347 743 LINE",
"897 743 LINE SMOOTH",
"1153 743 OFFCURVE",
"1313 623 OFFCURVE",
"1313 390 CURVE SMOOTH",
"1313 157 OFFCURVE",
"1153 38 OFFCURVE",
"897 38 CURVE SMOOTH",
"347 38 LINE",
"347 0 LINE"
);
},
{
closed = 1;
nodes = (
"865 758 LINE SMOOTH",
"1139 758 OFFCURVE",
"1305 881 OFFCURVE",
"1305 1121 CURVE SMOOTH",
"1305 1371 OFFCURVE",
"1129 1500 OFFCURVE",
"865 1500 CURVE SMOOTH",
"347 1500 LINE",
"347 1462 LINE",
"853 1462 LINE SMOOTH",
"1101 1462 OFFCURVE",
"1257 1347 OFFCURVE",
"1257 1122 CURVE SMOOTH",
"1257 897 OFFCURVE",
"1101 781 OFFCURVE",
"853 781 CURVE SMOOTH",
"347 781 LINE",
"347 758 LINE"
);
}
);
width = 1459;
},
{
anchors = (
{
name = bottom;
position = "{829, 0}";
},
{
name = top;
position = "{829, 1500}";
}
);
layerId = "219068EA-2B9B-40DC-949E-B60449C01B8A";
paths = (
{
closed = 1;
nodes = (
"647 0 LINE",
"647 1500 LINE",
"65 1500 LINE",
"65 1286 LINE",
"227 1286 LINE",
"227 214 LINE",
"62 214 LINE",
"62 0 LINE"
);
},
{
closed = 1;
nodes = (
"1076 0 LINE SMOOTH",
"1398 0 OFFCURVE",
"1608 128 OFFCURVE",
"1608 408 CURVE SMOOTH",
"1608 679 OFFCURVE",
"1398 792 OFFCURVE",
"1076 792 CURVE SMOOTH",
"647 792 LINE",
"647 653 LINE",
"938 653 LINE SMOOTH",
"1085 653 OFFCURVE",
"1178 579 OFFCURVE",
"1178 439 CURVE SMOOTH",
"1178 299 OFFCURVE",
"1085 224 OFFCURVE",
"938 224 CURVE SMOOTH",
"647 224 LINE",
"647 0 LINE"
);
},
{
closed = 1;
nodes = (
"1000 754 LINE SMOOTH",
"1312 754 OFFCURVE",
"1524 865 OFFCURVE",
"1524 1118 CURVE SMOOTH",
"1524 1380 OFFCURVE",
"1312 1500 OFFCURVE",
"1000 1500 CURVE SMOOTH",
"647 1500 LINE",
"647 1276 LINE",
"871 1276 LINE SMOOTH",
"1010 1276 OFFCURVE",
"1094 1209 OFFCURVE",
"1094 1076 CURVE SMOOTH",
"1094 943 OFFCURVE",
"1010 877 OFFCURVE",
"871 877 CURVE SMOOTH",
"647 877 LINE",
"647 754 LINE"
);
}
);
width = 1658;
},
{
anchors = (
{
name = bottom;
position = "{797, 0}";
},
{
name = top;
position = "{797, 1500}";
}
);
layerId = "0C29AA02-E021-4BD1-A2C4-87F681D64C35";
paths = (
{
closed = 1;
nodes = (
"650 0 LINE",
"650 1500 LINE",
"57 1500 LINE",
"57 1304 LINE",
"230 1304 LINE",
"230 196 LINE",
"54 196 LINE",
"54 0 LINE"
);
},
{
closed = 1;
nodes = (
"999 0 LINE SMOOTH",
"1321 0 OFFCURVE",
"1531 141 OFFCURVE",
"1531 420 CURVE SMOOTH",
"1531 682 OFFCURVE",
"1323 790 OFFCURVE",
"989 790 CURVE SMOOTH",
"650 790 LINE",
"650 666 LINE",
"852 666 LINE SMOOTH",
"1004 666 OFFCURVE",
"1101 583 OFFCURVE",
"1101 435 CURVE SMOOTH",
"1101 287 OFFCURVE",
"1004 204 OFFCURVE",
"852 204 CURVE SMOOTH",
"650 204 LINE",
"650 0 LINE"
);
},
{
closed = 1;
nodes = (
"953 776 LINE SMOOTH",
"1247 776 OFFCURVE",
"1447 889 OFFCURVE",
"1447 1138 CURVE SMOOTH",
"1447 1386 OFFCURVE",
"1235 1500 OFFCURVE",
"923 1500 CURVE SMOOTH",
"650 1500 LINE",
"650 1300 LINE",
"785 1300 LINE SMOOTH",
"934 1300 OFFCURVE",
"1023 1225 OFFCURVE",
"1023 1083 CURVE SMOOTH",
"1023 941 OFFCURVE",
"934 866 OFFCURVE",
"785 866 CURVE SMOOTH",
"650 866 LINE",
"650 776 LINE"
);
}
);
width = 1593;
}
);
leftKerningGroup = I;
rightKerningGroup = B;
unicode = 0042;
},
{
color = 8;
glyphname = C;
lastChange = "2021-05-03 12:17:04 +0000";
layers = (
{
anchors = (
{
name = bottom;
position = "{862, 0}";
},
{
name = top;
position = "{900, 1500}";
}
);
layerId = "CA54B7DC-FBBB-40FE-ACF3-AABDD76D6A7B";
paths = (
{
closed = 1;
nodes = (
"1325 -24 OFFCURVE",
"1558 243 OFFCURVE",
"1566 548 CURVE",
"1522 548 LINE",
"1509 264 OFFCURVE",
"1296 20 OFFCURVE",
"890 20 CURVE SMOOTH",
"493 20 OFFCURVE",
"186 306 OFFCURVE",
"186 750 CURVE SMOOTH",
"186 1194 OFFCURVE",
"489 1480 OFFCURVE",
"880 1480 CURVE SMOOTH",
"1299 1480 OFFCURVE",
"1489 1239 OFFCURVE",
"1512 980 CURVE",
"1543 980 LINE",
"1533 1303 OFFCURVE",
"1290 1524 OFFCURVE",
"880 1524 CURVE SMOOTH",
"463 1524 OFFCURVE",
"138 1239 OFFCURVE",
"138 750 CURVE SMOOTH",
"138 261 OFFCURVE",
"467 -24 OFFCURVE",
"890 -24 CURVE SMOOTH"
);
},
{
closed = 1;
nodes = (
"1556 980 LINE",
"1556 1500 LINE",
"1512 1500 LINE",
"1512 1054 LINE",
"1543 980 LINE"
);
}
);
width = 1724;
},
{
anchors = (
{
name = bottom;
position = "{806, 0}";
},
{
name = top;
position = "{848, 1500}";
}
);
layerId = "1E61A082-F045-49A7-AB52-DD1B03FD9B54";
paths = (
{
closed = 1;
nodes = (
"1237 -24 OFFCURVE",
"1452 262 OFFCURVE",
"1460 588 CURVE",
"1420 588 LINE",
"1408 279 OFFCURVE",
"1210 14 OFFCURVE",
"834 14 CURVE SMOOTH",
"465 14 OFFCURVE",
"180 302 OFFCURVE",
"180 750 CURVE SMOOTH",
"180 1198 OFFCURVE",
"461 1486 OFFCURVE",
"824 1486 CURVE SMOOTH",
"1210 1486 OFFCURVE",
"1385 1223 OFFCURVE",
"1406 940 CURVE",
"1432 940 LINE",
"1423 1287 OFFCURVE",
"1200 1524 OFFCURVE",
"824 1524 CURVE SMOOTH",
"435 1524 OFFCURVE",
"132 1239 OFFCURVE",
"132 750 CURVE SMOOTH",
"132 261 OFFCURVE",
"439 -24 OFFCURVE",
"834 -24 CURVE SMOOTH"
);
},
{
closed = 1;
nodes = (
"1450 940 LINE",
"1450 1500 LINE",
"1410 1500 LINE",
"1410 994 LINE",
"1432 940 LINE"
);
}
);
width = 1610;
},
{
anchors = (
{
name = bottom;
position = "{837, 0}";
},
{
name = top;
position = "{869, 1500}";
}
);
layerId = "219068EA-2B9B-40DC-949E-B60449C01B8A";
paths = (
{
closed = 1;
nodes = (
"1378 -32 OFFCURVE",
"1588 269 OFFCURVE",
"1605 603 CURVE",
"1363 603 LINE",
"1337 412 OFFCURVE",
"1216 262 OFFCURVE",
"969 262 CURVE SMOOTH",
"698 262 OFFCURVE",
"522 462 OFFCURVE",
"522 772 CURVE SMOOTH",
"522 1076 OFFCURVE",
"680 1278 OFFCURVE",
"957 1278 CURVE SMOOTH",
"1210 1278 OFFCURVE",
"1316 1120 OFFCURVE",
"1337 983 CURVE",
"1474 983 LINE",
"1458 1323 OFFCURVE",
"1212 1532 OFFCURVE",
"837 1532 CURVE SMOOTH",
"398 1532 OFFCURVE",
"64 1236 OFFCURVE",
"64 750 CURVE SMOOTH",
"64 264 OFFCURVE",
"398 -32 OFFCURVE",
"877 -32 CURVE SMOOTH"
);
},
{
closed = 1;
nodes = (
"1587 983 LINE",
"1587 1500 LINE",
"1343 1500 LINE",
"1343 1164 LINE",
"1474 983 LINE"
);
}
);
width = 1689;
},
{
anchors = (
{
name = bottom;
position = "{816, 0}";
},
{
name = top;
position = "{835, 1500}";
}
);
layerId = "0C29AA02-E021-4BD1-A2C4-87F681D64C35";
paths = (
{
closed = 1;
nodes = (
"1324 -32 OFFCURVE",
"1525 274 OFFCURVE",
"1537 663 CURVE",
"1349 663 LINE",
"1322 432 OFFCURVE",
"1204 252 OFFCURVE",
"951 252 CURVE SMOOTH",
"696 252 OFFCURVE",
"534 462 OFFCURVE",
"534 772 CURVE SMOOTH",
"534 1094 OFFCURVE",
"693 1308 OFFCURVE",
"951 1308 CURVE SMOOTH",
"1209 1308 OFFCURVE",
"1318 1124 OFFCURVE",
"1331 915 CURVE",
"1412 915 LINE",
"1408 1303 OFFCURVE",
"1208 1532 OFFCURVE",
"805 1532 CURVE SMOOTH",
"394 1532 OFFCURVE",
"74 1244 OFFCURVE",
"74 750 CURVE SMOOTH",
"74 256 OFFCURVE",
"399 -32 OFFCURVE",
"863 -32 CURVE SMOOTH"
);
},
{
closed = 1;
nodes = (
"1525 915 LINE",
"1525 1500 LINE",
"1309 1500 LINE",
"1309 1164 LINE",
"1412 915 LINE"
);
}
);
width = 1631;
}
);
leftKerningGroup = O;
rightKerningGroup = C;
unicode = 0043;
},
{
glyphname = Cacute;
lastChange = "2021-05-03 12:17:03 +0000";
layers = (
{
anchors = (
{
name = bottom;
position = "{862, 0}";
},
{
name = top;
position = "{900, 1500}";
}
);
layerId = "CA54B7DC-FBBB-40FE-ACF3-AABDD76D6A7B";
paths = (
{
closed = 1;
nodes = (
"1325 -24 OFFCURVE",
"1558 243 OFFCURVE",
"1566 548 CURVE",
"1522 548 LINE",
"1509 264 OFFCURVE",
"1296 20 OFFCURVE",
"890 20 CURVE SMOOTH",
"493 20 OFFCURVE",
"186 306 OFFCURVE",
"186 750 CURVE SMOOTH",
"186 1194 OFFCURVE",
"489 1480 OFFCURVE",
"880 1480 CURVE SMOOTH",
"1299 1480 OFFCURVE",
"1489 1239 OFFCURVE",
"1512 980 CURVE",
"1543 980 LINE",
"1533 1303 OFFCURVE",
"1290 1524 OFFCURVE",
"880 1524 CURVE SMOOTH",
"463 1524 OFFCURVE",
"138 1239 OFFCURVE",
"138 750 CURVE SMOOTH",
"138 261 OFFCURVE",
"467 -24 OFFCURVE",
"890 -24 CURVE SMOOTH"
);
},
{
closed = 1;
nodes = (
"1556 980 LINE",
"1556 1500 LINE",
"1512 1500 LINE",
"1512 1054 LINE",
"1543 980 LINE"
);
},
{
closed = 1;
nodes = (
"894 1650 LINE",
"1147 1960 LINE",
"1087 1960 LINE",
"843 1650 LINE"
);
}
);
width = 1724;
},
{
anchors = (
{
name = bottom;
position = "{806, 0}";
},
{
name = top;
position = "{848, 1500}";
}
);
layerId = "1E61A082-F045-49A7-AB52-DD1B03FD9B54";
paths = (
{
closed = 1;
nodes = (
"1237 -24 OFFCURVE",
"1452 262 OFFCURVE",
"1460 588 CURVE",
"1420 588 LINE",
"1408 279 OFFCURVE",
"1210 14 OFFCURVE",
"834 14 CURVE SMOOTH",
"465 14 OFFCURVE",
"180 302 OFFCURVE",
"180 750 CURVE SMOOTH",
"180 1198 OFFCURVE",
"461 1486 OFFCURVE",
"824 1486 CURVE SMOOTH",
"1210 1486 OFFCURVE",
"1385 1223 OFFCURVE",
"1406 940 CURVE",
"1432 940 LINE",
"1423 1287 OFFCURVE",
"1200 1524 OFFCURVE",
"824 1524 CURVE SMOOTH",
"435 1524 OFFCURVE",
"132 1239 OFFCURVE",
"132 750 CURVE SMOOTH",
"132 261 OFFCURVE",
"439 -24 OFFCURVE",
"834 -24 CURVE SMOOTH"
);
},
{
closed = 1;
nodes = (
"1450 940 LINE",
"1450 1500 LINE",
"1410 1500 LINE",
"1410 994 LINE",
"1432 940 LINE"
);
},
{
closed = 1;
nodes = (
"843 1650 LINE",
"1079 1960 LINE",
"1023 1960 LINE",
"796 1650 LINE"
);
}
);
width = 1610;
},
{
anchors = (
{
name = bottom;
position = "{837, 0}";
},
{
name = top;
position = "{869, 1500}";
}
);
layerId = "219068EA-2B9B-40DC-949E-B60449C01B8A";
paths = (
{
closed = 1;
nodes = (
"1378 -32 OFFCURVE",
"1588 269 OFFCURVE",
"1605 603 CURVE",
"1363 603 LINE",
"1337 412 OFFCURVE",
"1216 262 OFFCURVE",
"969 262 CURVE SMOOTH",
"698 262 OFFCURVE",
"522 462 OFFCURVE",
"522 772 CURVE SMOOTH",
"522 1076 OFFCURVE",
"680 1278 OFFCURVE",
"957 1278 CURVE SMOOTH",
"1210 1278 OFFCURVE",
"1316 1120 OFFCURVE",
"1337 983 CURVE",
"1474 983 LINE",
"1458 1323 OFFCURVE",
"1212 1532 OFFCURVE",
"837 1532 CURVE SMOOTH",
"398 1532 OFFCURVE",
"64 1236 OFFCURVE",
"64 750 CURVE SMOOTH",
"64 264 OFFCURVE",
"398 -32 OFFCURVE",
"877 -32 CURVE SMOOTH"
);
},
{
closed = 1;
nodes = (
"1587 983 LINE",
"1587 1500 LINE",
"1343 1500 LINE",
"1343 1164 LINE",
"1474 983 LINE"
);
},
{
closed = 1;
nodes = (
"962 1630 LINE",
"1240 1930 LINE",
"832 1930 LINE",
"700 1630 LINE"
);
}
);
width = 1689;
},
{
anchors = (
{
name = bottom;
position = "{816, 0}";
},
{
name = top;
position = "{835, 1500}";
}
);
layerId = "0C29AA02-E021-4BD1-A2C4-87F681D64C35";
paths = (
{
closed = 1;
nodes = (
"1324 -32 OFFCURVE",
"1525 274 OFFCURVE",
"1537 663 CURVE",
"1349 663 LINE",
"1322 432 OFFCURVE",
"1204 252 OFFCURVE",
"951 252 CURVE SMOOTH",
"696 252 OFFCURVE",
"534 462 OFFCURVE",
"534 772 CURVE SMOOTH",
"534 1094 OFFCURVE",
"693 1308 OFFCURVE",
"951 1308 CURVE SMOOTH",
"1209 1308 OFFCURVE",
"1318 1124 OFFCURVE",
"1331 915 CURVE",
"1412 915 LINE",
"1408 1303 OFFCURVE",
"1208 1532 OFFCURVE",
"805 1532 CURVE SMOOTH",
"394 1532 OFFCURVE",
"74 1244 OFFCURVE",
"74 750 CURVE SMOOTH",
"74 256 OFFCURVE",
"399 -32 OFFCURVE",
"863 -32 CURVE SMOOTH"
);
},
{
closed = 1;
nodes = (
"1525 915 LINE",
"1525 1500 LINE",
"1309 1500 LINE",
"1309 1164 LINE",
"1412 915 LINE"
);
},
{
closed = 1;
nodes = (
"920 1610 LINE",
"1220 1910 LINE",
"812 1910 LINE",
"682 1610 LINE"
);
}
);
width = 1631;
}
);
leftKerningGroup = O;
rightKerningGroup = C;
unicode = 0106;
},
{
glyphname = Ccaron;
lastChange = "2021-05-03 12:17:03 +0000";
layers = (
{
anchors = (
{
name = bottom;
position = "{862, 0}";
},
{
name = top;
position = "{900, 1500}";
}
);
layerId = "CA54B7DC-FBBB-40FE-ACF3-AABDD76D6A7B";
paths = (
{
closed = 1;
nodes = (
"1325 -24 OFFCURVE",
"1558 243 OFFCURVE",
"1566 548 CURVE",
"1522 548 LINE",
"1509 264 OFFCURVE",
"1296 20 OFFCURVE",
"890 20 CURVE SMOOTH",
"493 20 OFFCURVE",
"186 306 OFFCURVE",
"186 750 CURVE SMOOTH",
"186 1194 OFFCURVE",
"489 1480 OFFCURVE",
"880 1480 CURVE SMOOTH",
"1299 1480 OFFCURVE",
"1489 1239 OFFCURVE",
"1512 980 CURVE",
"1543 980 LINE",
"1533 1303 OFFCURVE",
"1290 1524 OFFCURVE",
"880 1524 CURVE SMOOTH",
"463 1524 OFFCURVE",
"138 1239 OFFCURVE",
"138 750 CURVE SMOOTH",
"138 261 OFFCURVE",
"467 -24 OFFCURVE",
"890 -24 CURVE SMOOTH"
);
},
{
closed = 1;
nodes = (
"1556 980 LINE",
"1556 1500 LINE",
"1512 1500 LINE",
"1512 1054 LINE",
"1543 980 LINE"
);
},
{
closed = 1;
nodes = (
"920 1650 LINE",
"1166 1960 LINE",
"1116 1960 LINE",
"889 1677 LINE",
"914 1677 LINE",
"685 1960 LINE",
"634 1960 LINE",
"880 1650 LINE"
);
}
);
width = 1724;
},
{
anchors = (
{
name = bottom;
position = "{806, 0}";
},
{
name = top;
position = "{848, 1500}";
}
);
layerId = "1E61A082-F045-49A7-AB52-DD1B03FD9B54";
paths = (
{
closed = 1;
nodes = (
"1237 -24 OFFCURVE",
"1452 262 OFFCURVE",
"1460 588 CURVE",
"1420 588 LINE",
"1408 279 OFFCURVE",
"1210 14 OFFCURVE",
"834 14 CURVE SMOOTH",
"465 14 OFFCURVE",
"180 302 OFFCURVE",
"180 750 CURVE SMOOTH",
"180 1198 OFFCURVE",
"461 1486 OFFCURVE",
"824 1486 CURVE SMOOTH",
"1210 1486 OFFCURVE",
"1385 1223 OFFCURVE",
"1406 940 CURVE",
"1432 940 LINE",
"1423 1287 OFFCURVE",
"1200 1524 OFFCURVE",
"824 1524 CURVE SMOOTH",
"435 1524 OFFCURVE",
"132 1239 OFFCURVE",
"132 750 CURVE SMOOTH",
"132 261 OFFCURVE",
"439 -24 OFFCURVE",
"834 -24 CURVE SMOOTH"
);
},
{
closed = 1;
nodes = (
"1450 940 LINE",
"1450 1500 LINE",
"1410 1500 LINE",
"1410 994 LINE",
"1432 940 LINE"
);
},
{
closed = 1;
nodes = (
"865 1650 LINE",
"1111 1960 LINE",
"1064 1960 LINE",
"837 1677 LINE",
"862 1677 LINE",
"634 1960 LINE",
"585 1960 LINE",
"831 1650 LINE"
);
}
);
width = 1610;
},
{
anchors = (
{
name = bottom;
position = "{837, 0}";
},
{
name = top;
position = "{869, 1500}";
}
);
layerId = "219068EA-2B9B-40DC-949E-B60449C01B8A";
paths = (
{
closed = 1;
nodes = (
"1378 -32 OFFCURVE",
"1588 269 OFFCURVE",
"1605 603 CURVE",
"1363 603 LINE",
"1337 412 OFFCURVE",
"1216 262 OFFCURVE",
"969 262 CURVE SMOOTH",
"698 262 OFFCURVE",
"522 462 OFFCURVE",
"522 772 CURVE SMOOTH",
"522 1076 OFFCURVE",
"680 1278 OFFCURVE",
"957 1278 CURVE SMOOTH",
"1210 1278 OFFCURVE",
"1316 1120 OFFCURVE",
"1337 983 CURVE",
"1474 983 LINE",
"1458 1323 OFFCURVE",
"1212 1532 OFFCURVE",
"837 1532 CURVE SMOOTH",
"398 1532 OFFCURVE",
"64 1236 OFFCURVE",
"64 750 CURVE SMOOTH",
"64 264 OFFCURVE",
"398 -32 OFFCURVE",
"877 -32 CURVE SMOOTH"
);
},
{
closed = 1;
nodes = (
"1587 983 LINE",
"1587 1500 LINE",
"1343 1500 LINE",
"1343 1164 LINE",
"1474 983 LINE"
);
},
{
closed = 1;
nodes = (
"1077 1630 LINE",
"1283 1930 LINE",
"1053 1930 LINE",
"809 1717 LINE",
"979 1717 LINE",
"739 1930 LINE",
"455 1930 LINE",
"661 1630 LINE"
);
}
);
width = 1689;
},
{
anchors = (
{
name = bottom;
position = "{816, 0}";
},
{
name = top;
position = "{835, 1500}";
}
);
layerId = "0C29AA02-E021-4BD1-A2C4-87F681D64C35";
paths = (
{
closed = 1;
nodes = (
"1324 -32 OFFCURVE",
"1525 274 OFFCURVE",
"1537 663 CURVE",
"1349 663 LINE",
"1322 432 OFFCURVE",
"1204 252 OFFCURVE",
"951 252 CURVE SMOOTH",
"696 252 OFFCURVE",
"534 462 OFFCURVE",
"534 772 CURVE SMOOTH",
"534 1094 OFFCURVE",
"693 1308 OFFCURVE",
"951 1308 CURVE SMOOTH",
"1209 1308 OFFCURVE",
"1318 1124 OFFCURVE",
"1331 915 CURVE",
"1412 915 LINE",
"1408 1303 OFFCURVE",
"1208 1532 OFFCURVE",
"805 1532 CURVE SMOOTH",
"394 1532 OFFCURVE",
"74 1244 OFFCURVE",
"74 750 CURVE SMOOTH",
"74 256 OFFCURVE",
"399 -32 OFFCURVE",
"863 -32 CURVE SMOOTH"
);
},
{
closed = 1;
nodes = (
"1525 915 LINE",
"1525 1500 LINE",
"1309 1500 LINE",
"1309 1164 LINE",
"1412 915 LINE"
);
},
{
closed = 1;
nodes = (
"1038 1610 LINE",
"1224 1910 LINE",
"1024 1910 LINE",
"780 1697 LINE",
"950 1697 LINE",
"710 1910 LINE",
"446 1910 LINE",
"632 1610 LINE"
);
}
);
width = 1631;
}
);
leftKerningGroup = O;
rightKerningGroup = C;
unicode = 010C;
},
{
glyphname = Ccedilla;
lastChange = "2021-05-03 12:17:03 +0000";
layers = (
{
anchors = (
{
name = bottom;
position = "{862, 0}";
},
{
name = top;
position = "{900, 1500}";
}
);
layerId = "CA54B7DC-FBBB-40FE-ACF3-AABDD76D6A7B";
paths = (
{
closed = 1;
nodes = (
"1325 -24 OFFCURVE",
"1558 243 OFFCURVE",
"1566 548 CURVE",
"1522 548 LINE",
"1509 264 OFFCURVE",
"1296 20 OFFCURVE",
"890 20 CURVE SMOOTH",
"493 20 OFFCURVE",
"186 306 OFFCURVE",
"186 750 CURVE SMOOTH",
"186 1194 OFFCURVE",
"489 1480 OFFCURVE",
"880 1480 CURVE SMOOTH",
"1299 1480 OFFCURVE",
"1489 1239 OFFCURVE",
"1512 980 CURVE",
"1543 980 LINE",
"1533 1303 OFFCURVE",
"1290 1524 OFFCURVE",
"880 1524 CURVE SMOOTH",
"463 1524 OFFCURVE",
"138 1239 OFFCURVE",
"138 750 CURVE SMOOTH",
"138 261 OFFCURVE",
"467 -24 OFFCURVE",
"890 -24 CURVE SMOOTH"
);
},
{
closed = 1;
nodes = (
"1556 980 LINE",
"1556 1500 LINE",
"1512 1500 LINE",
"1512 1054 LINE",
"1543 980 LINE"
);
},
{
closed = 1;
nodes = (
"973 -415 OFFCURVE",
"1044 -364 OFFCURVE",
"1044 -270 CURVE SMOOTH",
"1044 -174 OFFCURVE",
"962 -144 OFFCURVE",
"893 -144 CURVE SMOOTH",
"861 -144 LINE",
"885 10 LINE",
"839 10 LINE",
"808 -186 LINE",
"889 -186 LINE SMOOTH",
"951 -186 OFFCURVE",
"996 -213 OFFCURVE",
"996 -271 CURVE SMOOTH",
"996 -335 OFFCURVE",
"957 -375 OFFCURVE",
"859 -375 CURVE SMOOTH",
"804 -375 OFFCURVE",
"750 -357 OFFCURVE",
"708 -333 CURVE",
"690 -371 LINE",
"735 -397 OFFCURVE",
"794 -415 OFFCURVE",
"859 -415 CURVE SMOOTH"
);
}
);
width = 1724;
},
{
anchors = (
{
name = bottom;
position = "{806, 0}";
},
{
name = top;
position = "{848, 1500}";
}
);
layerId = "1E61A082-F045-49A7-AB52-DD1B03FD9B54";
paths = (
{
closed = 1;
nodes = (
"1237 -24 OFFCURVE",
"1452 262 OFFCURVE",
"1460 588 CURVE",
"1420 588 LINE",
"1408 279 OFFCURVE",
"1210 14 OFFCURVE",
"834 14 CURVE SMOOTH",
"465 14 OFFCURVE",
"180 302 OFFCURVE",
"180 750 CURVE SMOOTH",
"180 1198 OFFCURVE",
"461 1486 OFFCURVE",
"824 1486 CURVE SMOOTH",
"1210 1486 OFFCURVE",
"1385 1223 OFFCURVE",
"1406 940 CURVE",
"1432 940 LINE",
"1423 1287 OFFCURVE",
"1200 1524 OFFCURVE",
"824 1524 CURVE SMOOTH",
"435 1524 OFFCURVE",
"132 1239 OFFCURVE",
"132 750 CURVE SMOOTH",
"132 261 OFFCURVE",
"439 -24 OFFCURVE",
"834 -24 CURVE SMOOTH"
);
},
{
closed = 1;
nodes = (
"1450 940 LINE",
"1450 1500 LINE",
"1410 1500 LINE",
"1410 994 LINE",
"1432 940 LINE"
);
},
{
closed = 1;
nodes = (
"917 -415 OFFCURVE",
"988 -364 OFFCURVE",
"988 -270 CURVE SMOOTH",
"988 -174 OFFCURVE",
"906 -146 OFFCURVE",
"837 -146 CURVE SMOOTH",
"804 -146 LINE",
"828 10 LINE",
"784 10 LINE",
"753 -186 LINE",
"833 -186 LINE SMOOTH",
"895 -186 OFFCURVE",
"940 -213 OFFCURVE",
"940 -271 CURVE SMOOTH",
"940 -335 OFFCURVE",
"901 -375 OFFCURVE",
"803 -375 CURVE SMOOTH",
"748 -375 OFFCURVE",
"694 -357 OFFCURVE",
"652 -333 CURVE",
"634 -371 LINE",
"679 -397 OFFCURVE",
"738 -415 OFFCURVE",
"803 -415 CURVE SMOOTH"
);
}
);
width = 1610;
},
{
anchors = (
{
name = bottom;
position = "{837, 0}";
},
{
name = top;
position = "{869, 1500}";
}
);
layerId = "219068EA-2B9B-40DC-949E-B60449C01B8A";
paths = (
{
closed = 1;
nodes = (
"1378 -32 OFFCURVE",
"1588 269 OFFCURVE",
"1605 603 CURVE",
"1363 603 LINE",
"1337 412 OFFCURVE",
"1216 262 OFFCURVE",
"969 262 CURVE SMOOTH",
"698 262 OFFCURVE",
"522 462 OFFCURVE",
"522 772 CURVE SMOOTH",
"522 1076 OFFCURVE",
"680 1278 OFFCURVE",
"957 1278 CURVE SMOOTH",
"1210 1278 OFFCURVE",
"1316 1120 OFFCURVE",
"1337 983 CURVE",
"1474 983 LINE",
"1458 1323 OFFCURVE",
"1212 1532 OFFCURVE",
"837 1532 CURVE SMOOTH",
"398 1532 OFFCURVE",
"64 1236 OFFCURVE",
"64 750 CURVE SMOOTH",
"64 264 OFFCURVE",
"398 -32 OFFCURVE",
"877 -32 CURVE SMOOTH"
);
},
{
closed = 1;
nodes = (
"1587 983 LINE",
"1587 1500 LINE",
"1343 1500 LINE",
"1343 1164 LINE",
"1474 983 LINE"
);
},
{
closed = 1;
nodes = (
"999 -440 OFFCURVE",
"1102 -379 OFFCURVE",
"1102 -246 CURVE SMOOTH",
"1102 -124 OFFCURVE",
"997 -84 OFFCURVE",
"912 -84 CURVE SMOOTH",
"906 -84 LINE",
"915 10 LINE",
"761 10 LINE",
"736 -216 LINE",
"851 -216 LINE SMOOTH",
"879 -216 OFFCURVE",
"900 -228 OFFCURVE",
"900 -253 CURVE SMOOTH",
"900 -281 OFFCURVE",
"880 -297 OFFCURVE",
"831 -298 CURVE SMOOTH",
"769 -299 OFFCURVE",
"709 -272 OFFCURVE",
"658 -243 CURVE",
"600 -355 LINE",
"662 -405 OFFCURVE",
"759 -440 OFFCURVE",
"859 -440 CURVE SMOOTH"
);
}
);
width = 1689;
},
{
anchors = (
{
name = bottom;
position = "{816, 0}";
},
{
name = top;
position = "{835, 1500}";
}
);
layerId = "0C29AA02-E021-4BD1-A2C4-87F681D64C35";
paths = (
{
closed = 1;
nodes = (
"1324 -32 OFFCURVE",
"1525 274 OFFCURVE",
"1537 663 CURVE",
"1349 663 LINE",
"1322 432 OFFCURVE",
"1204 252 OFFCURVE",
"951 252 CURVE SMOOTH",
"696 252 OFFCURVE",
"534 462 OFFCURVE",
"534 772 CURVE SMOOTH",
"534 1094 OFFCURVE",
"693 1308 OFFCURVE",
"951 1308 CURVE SMOOTH",
"1209 1308 OFFCURVE",
"1318 1124 OFFCURVE",
"1331 915 CURVE",
"1412 915 LINE",
"1408 1303 OFFCURVE",
"1208 1532 OFFCURVE",
"805 1532 CURVE SMOOTH",
"394 1532 OFFCURVE",
"74 1244 OFFCURVE",
"74 750 CURVE SMOOTH",
"74 256 OFFCURVE",
"399 -32 OFFCURVE",
"863 -32 CURVE SMOOTH"
);
},
{
closed = 1;
nodes = (
"1525 915 LINE",
"1525 1500 LINE",
"1309 1500 LINE",
"1309 1164 LINE",
"1412 915 LINE"
);
},
{
closed = 1;
nodes = (
"980 -440 OFFCURVE",
"1083 -379 OFFCURVE",
"1083 -246 CURVE SMOOTH",
"1083 -124 OFFCURVE",
"977 -84 OFFCURVE",
"891 -84 CURVE SMOOTH",
"881 -84 LINE",
"890 10 LINE",
"744 10 LINE",
"719 -208 LINE",
"830 -208 LINE SMOOTH",
"860 -208 OFFCURVE",
"883 -222 OFFCURVE",
"883 -251 CURVE SMOOTH",
"883 -283 OFFCURVE",
"862 -301 OFFCURVE",
"810 -302 CURVE SMOOTH",
"748 -303 OFFCURVE",
"688 -275 OFFCURVE",
"637 -245 CURVE",
"579 -355 LINE",
"641 -405 OFFCURVE",
"738 -440 OFFCURVE",
"838 -440 CURVE SMOOTH"
);
}
);
width = 1631;
}
);
leftKerningGroup = O;
rightKerningGroup = C;
unicode = 00C7;
},
{
glyphname = Ccircumflex;
lastChange = "2021-05-03 12:17:03 +0000";
layers = (
{
anchors = (
{
name = bottom;
position = "{862, 0}";
},
{
name = side;
position = "{1196, 1730}";
},
{
name = top;
position = "{900, 1940}";
}
);
layerId = "CA54B7DC-FBBB-40FE-ACF3-AABDD76D6A7B";
paths = (
{
closed = 1;
nodes = (
"1325 -24 OFFCURVE",
"1558 243 OFFCURVE",
"1566 548 CURVE",
"1522 548 LINE",
"1509 264 OFFCURVE",
"1296 20 OFFCURVE",
"890 20 CURVE SMOOTH",
"493 20 OFFCURVE",
"186 306 OFFCURVE",
"186 750 CURVE SMOOTH",
"186 1194 OFFCURVE",
"489 1480 OFFCURVE",
"880 1480 CURVE SMOOTH",
"1299 1480 OFFCURVE",
"1489 1239 OFFCURVE",
"1512 980 CURVE",
"1543 980 LINE",
"1533 1303 OFFCURVE",
"1290 1524 OFFCURVE",
"880 1524 CURVE SMOOTH",
"463 1524 OFFCURVE",
"138 1239 OFFCURVE",
"138 750 CURVE SMOOTH",
"138 261 OFFCURVE",
"467 -24 OFFCURVE",
"890 -24 CURVE SMOOTH"
);
},
{
closed = 1;
nodes = (
"1556 980 LINE",
"1556 1500 LINE",
"1512 1500 LINE",
"1512 1054 LINE",
"1543 980 LINE"
);
},
{
closed = 1;
nodes = (
"684 1650 LINE",
"911 1933 LINE",
"886 1933 LINE",
"1115 1650 LINE",
"1166 1650 LINE",
"920 1960 LINE",
"880 1960 LINE",
"634 1650 LINE"
);
}
);
width = 1724;
},
{
anchors = (
{
name = bottom;
position = "{806, 0}";
},
{
name = side;
position = "{1141, 1730}";
},
{
name = top;
position = "{848, 1940}";
}
);
layerId = "1E61A082-F045-49A7-AB52-DD1B03FD9B54";
paths = (
{
closed = 1;
nodes = (
"1237 -24 OFFCURVE",
"1452 262 OFFCURVE",
"1460 588 CURVE",
"1420 588 LINE",
"1408 279 OFFCURVE",
"1210 14 OFFCURVE",
"834 14 CURVE SMOOTH",
"465 14 OFFCURVE",
"180 302 OFFCURVE",
"180 750 CURVE SMOOTH",
"180 1198 OFFCURVE",
"461 1486 OFFCURVE",
"824 1486 CURVE SMOOTH",
"1210 1486 OFFCURVE",
"1385 1223 OFFCURVE",
"1406 940 CURVE",
"1432 940 LINE",
"1423 1287 OFFCURVE",
"1200 1524 OFFCURVE",
"824 1524 CURVE SMOOTH",
"435 1524 OFFCURVE",
"132 1239 OFFCURVE",
"132 750 CURVE SMOOTH",
"132 261 OFFCURVE",
"439 -24 OFFCURVE",
"834 -24 CURVE SMOOTH"
);
},
{
closed = 1;
nodes = (
"1450 940 LINE",
"1450 1500 LINE",
"1410 1500 LINE",
"1410 994 LINE",
"1432 940 LINE"
);
},
{
closed = 1;
nodes = (
"632 1650 LINE",
"859 1933 LINE",
"834 1933 LINE",
"1062 1650 LINE",
"1111 1650 LINE",
"865 1960 LINE",
"831 1960 LINE",
"585 1650 LINE"
);
}
);
width = 1610;
},
{
anchors = (
{
name = bottom;
position = "{837, 0}";
},
{
name = side;
position = "{1343, 1700}";
},
{
name = top;
position = "{869, 1910}";
}
);
layerId = "219068EA-2B9B-40DC-949E-B60449C01B8A";
paths = (
{
closed = 1;
nodes = (
"1378 -32 OFFCURVE",
"1588 269 OFFCURVE",
"1605 603 CURVE",
"1363 603 LINE",
"1337 412 OFFCURVE",
"1216 262 OFFCURVE",
"969 262 CURVE SMOOTH",
"698 262 OFFCURVE",
"522 462 OFFCURVE",
"522 772 CURVE SMOOTH",
"522 1076 OFFCURVE",
"680 1278 OFFCURVE",
"957 1278 CURVE SMOOTH",
"1210 1278 OFFCURVE",
"1316 1120 OFFCURVE",
"1337 983 CURVE",
"1474 983 LINE",
"1458 1323 OFFCURVE",
"1212 1532 OFFCURVE",
"837 1532 CURVE SMOOTH",
"398 1532 OFFCURVE",
"64 1236 OFFCURVE",
"64 750 CURVE SMOOTH",
"64 264 OFFCURVE",
"398 -32 OFFCURVE",
"877 -32 CURVE SMOOTH"
);
},
{
closed = 1;
nodes = (
"1587 983 LINE",
"1587 1500 LINE",
"1343 1500 LINE",
"1343 1164 LINE",
"1474 983 LINE"
);
},
{
closed = 1;
nodes = (
"685 1630 LINE",
"929 1843 LINE",
"759 1843 LINE",
"999 1630 LINE",
"1283 1630 LINE",
"1077 1930 LINE",
"661 1930 LINE",
"455 1630 LINE"
);
}
);
width = 1689;
},
{
anchors = (
{
name = bottom;
position = "{816, 0}";
},
{
name = side;
position = "{1284, 1680}";
},
{
name = top;
position = "{835, 1890}";
}
);
layerId = "0C29AA02-E021-4BD1-A2C4-87F681D64C35";
paths = (
{
closed = 1;
nodes = (
"1324 -32 OFFCURVE",
"1525 274 OFFCURVE",
"1537 663 CURVE",
"1349 663 LINE",
"1322 432 OFFCURVE",
"1204 252 OFFCURVE",
"951 252 CURVE SMOOTH",
"696 252 OFFCURVE",
"534 462 OFFCURVE",
"534 772 CURVE SMOOTH",
"534 1094 OFFCURVE",
"693 1308 OFFCURVE",
"951 1308 CURVE SMOOTH",
"1209 1308 OFFCURVE",
"1318 1124 OFFCURVE",
"1331 915 CURVE",
"1412 915 LINE",
"1408 1303 OFFCURVE",
"1208 1532 OFFCURVE",
"805 1532 CURVE SMOOTH",
"394 1532 OFFCURVE",
"74 1244 OFFCURVE",
"74 750 CURVE SMOOTH",
"74 256 OFFCURVE",
"399 -32 OFFCURVE",
"863 -32 CURVE SMOOTH"
);
},
{
closed = 1;
nodes = (
"1525 915 LINE",
"1525 1500 LINE",
"1309 1500 LINE",
"1309 1164 LINE",
"1412 915 LINE"
);
},
{
closed = 1;
nodes = (
"646 1610 LINE",
"890 1823 LINE",
"720 1823 LINE",
"960 1610 LINE",
"1224 1610 LINE",
"1038 1910 LINE",
"632 1910 LINE",
"446 1610 LINE"
);
}
);
width = 1631;
}
);
leftKerningGroup = O;
rightKerningGroup = C;
unicode = 0108;
},
{
glyphname = Cdotaccent;
lastChange = "2021-05-03 12:17:03 +0000";
layers = (
{
anchors = (
{
name = bottom;
position = "{862, 0}";
},
{
name = top;
position = "{900, 1838}";
}
);
layerId = "CA54B7DC-FBBB-40FE-ACF3-AABDD76D6A7B";
paths = (
{
closed = 1;
nodes = (
"1325 -24 OFFCURVE",
"1558 243 OFFCURVE",
"1566 548 CURVE",
"1522 548 LINE",
"1509 264 OFFCURVE",
"1296 20 OFFCURVE",
"890 20 CURVE SMOOTH",
"493 20 OFFCURVE",
"186 306 OFFCURVE",
"186 750 CURVE SMOOTH",
"186 1194 OFFCURVE",
"489 1480 OFFCURVE",
"880 1480 CURVE SMOOTH",
"1299 1480 OFFCURVE",
"1489 1239 OFFCURVE",
"1512 980 CURVE",
"1543 980 LINE",
"1533 1303 OFFCURVE",
"1290 1524 OFFCURVE",
"880 1524 CURVE SMOOTH",
"463 1524 OFFCURVE",
"138 1239 OFFCURVE",
"138 750 CURVE SMOOTH",
"138 261 OFFCURVE",
"467 -24 OFFCURVE",
"890 -24 CURVE SMOOTH"
);
},
{
closed = 1;
nodes = (
"1556 980 LINE",
"1556 1500 LINE",
"1512 1500 LINE",
"1512 1054 LINE",
"1543 980 LINE"
);
},
{
closed = 1;
nodes = (
"936 1702 OFFCURVE",
"959 1728 OFFCURVE",
"959 1764 CURVE SMOOTH",
"959 1800 OFFCURVE",
"936 1826 OFFCURVE",
"900 1826 CURVE SMOOTH",
"864 1826 OFFCURVE",
"841 1800 OFFCURVE",
"841 1764 CURVE SMOOTH",
"841 1728 OFFCURVE",
"864 1702 OFFCURVE",
"900 1702 CURVE SMOOTH"
);
}
);
width = 1724;
},
{
anchors = (
{
name = bottom;
position = "{806, 0}";
},
{
name = top;
position = "{848, 1862}";
}
);
layerId = "1E61A082-F045-49A7-AB52-DD1B03FD9B54";
paths = (
{
closed = 1;
nodes = (
"1237 -24 OFFCURVE",
"1452 262 OFFCURVE",
"1460 588 CURVE",
"1420 588 LINE",
"1408 279 OFFCURVE",
"1210 14 OFFCURVE",
"834 14 CURVE SMOOTH",
"465 14 OFFCURVE",
"180 302 OFFCURVE",
"180 750 CURVE SMOOTH",
"180 1198 OFFCURVE",
"461 1486 OFFCURVE",
"824 1486 CURVE SMOOTH",
"1210 1486 OFFCURVE",
"1385 1223 OFFCURVE",
"1406 940 CURVE",
"1432 940 LINE",
"1423 1287 OFFCURVE",
"1200 1524 OFFCURVE",
"824 1524 CURVE SMOOTH",
"435 1524 OFFCURVE",
"132 1239 OFFCURVE",
"132 750 CURVE SMOOTH",
"132 261 OFFCURVE",
"439 -24 OFFCURVE",
"834 -24 CURVE SMOOTH"
);
},
{
closed = 1;
nodes = (
"1450 940 LINE",
"1450 1500 LINE",
"1410 1500 LINE",
"1410 994 LINE",
"1432 940 LINE"
);
},
{
closed = 1;
nodes = (
"884 1722 OFFCURVE",
"907 1748 OFFCURVE",
"907 1784 CURVE SMOOTH",
"907 1820 OFFCURVE",
"884 1846 OFFCURVE",
"848 1846 CURVE SMOOTH",
"812 1846 OFFCURVE",
"789 1820 OFFCURVE",
"789 1784 CURVE SMOOTH",
"789 1748 OFFCURVE",
"812 1722 OFFCURVE",
"848 1722 CURVE SMOOTH"
);
}
);
width = 1610;
},
{
anchors = (
{
name = bottom;
position = "{837, 0}";
},
{
name = top;
position = "{869, 1924}";
}
);
layerId = "219068EA-2B9B-40DC-949E-B60449C01B8A";
paths = (
{
closed = 1;
nodes = (
"1378 -32 OFFCURVE",
"1588 269 OFFCURVE",
"1605 603 CURVE",
"1363 603 LINE",
"1337 412 OFFCURVE",
"1216 262 OFFCURVE",
"969 262 CURVE SMOOTH",
"698 262 OFFCURVE",
"522 462 OFFCURVE",
"522 772 CURVE SMOOTH",
"522 1076 OFFCURVE",
"680 1278 OFFCURVE",
"957 1278 CURVE SMOOTH",
"1210 1278 OFFCURVE",
"1316 1120 OFFCURVE",
"1337 983 CURVE",
"1474 983 LINE",
"1458 1323 OFFCURVE",
"1212 1532 OFFCURVE",
"837 1532 CURVE SMOOTH",
"398 1532 OFFCURVE",
"64 1236 OFFCURVE",
"64 750 CURVE SMOOTH",
"64 264 OFFCURVE",
"398 -32 OFFCURVE",
"877 -32 CURVE SMOOTH"
);
},
{
closed = 1;
nodes = (
"1587 983 LINE",
"1587 1500 LINE",
"1343 1500 LINE",
"1343 1164 LINE",
"1474 983 LINE"
);
},
{
closed = 1;
nodes = (
"1013 1584 OFFCURVE",
"1113 1665 OFFCURVE",
"1113 1798 CURVE SMOOTH",
"1113 1930 OFFCURVE",
"1013 2012 OFFCURVE",
"869 2012 CURVE SMOOTH",
"725 2012 OFFCURVE",
"625 1930 OFFCURVE",
"625 1798 CURVE SMOOTH",
"625 1665 OFFCURVE",
"725 1584 OFFCURVE",
"869 1584 CURVE SMOOTH"
);
}
);
width = 1689;
},
{
anchors = (
{
name = bottom;
position = "{816, 0}";
},
{
name = top;
position = "{835, 1946}";
}
);
layerId = "0C29AA02-E021-4BD1-A2C4-87F681D64C35";
paths = (
{
closed = 1;
nodes = (
"1324 -32 OFFCURVE",
"1525 274 OFFCURVE",
"1537 663 CURVE",
"1349 663 LINE",
"1322 432 OFFCURVE",
"1204 252 OFFCURVE",
"951 252 CURVE SMOOTH",
"696 252 OFFCURVE",
"534 462 OFFCURVE",
"534 772 CURVE SMOOTH",
"534 1094 OFFCURVE",
"693 1308 OFFCURVE",
"951 1308 CURVE SMOOTH",
"1209 1308 OFFCURVE",
"1318 1124 OFFCURVE",
"1331 915 CURVE",
"1412 915 LINE",
"1408 1303 OFFCURVE",
"1208 1532 OFFCURVE",
"805 1532 CURVE SMOOTH",
"394 1532 OFFCURVE",
"74 1244 OFFCURVE",
"74 750 CURVE SMOOTH",
"74 256 OFFCURVE",
"399 -32 OFFCURVE",
"863 -32 CURVE SMOOTH"
);
},
{
closed = 1;
nodes = (
"1525 915 LINE",
"1525 1500 LINE",
"1309 1500 LINE",
"1309 1164 LINE",
"1412 915 LINE"
);
},
{
closed = 1;
nodes = (
"964 1584 OFFCURVE",
"1051 1667 OFFCURVE",
"1051 1798 CURVE SMOOTH",
"1051 1928 OFFCURVE",
"964 2012 OFFCURVE",
"835 2012 CURVE SMOOTH",
"706 2012 OFFCURVE",
"619 1928 OFFCURVE",
"619 1798 CURVE SMOOTH",
"619 1667 OFFCURVE",
"706 1584 OFFCURVE",
"835 1584 CURVE SMOOTH"
);
}
);
width = 1631;
}
);
leftKerningGroup = O;
rightKerningGroup = C;
unicode = 010A;
},
{
color = 8;
glyphname = D;
lastChange = "2021-05-03 12:17:04 +0000";
layers = (
{
anchors = (
{
name = bottom;
position = "{790, 0}";
},
{
name = stroke;
position = "{310, 750}";
},
{
name = top;
position = "{790, 1500}";
}
);
layerId = "CA54B7DC-FBBB-40FE-ACF3-AABDD76D6A7B";
paths = (
{
closed = 1;
nodes = (
"756 0 LINE SMOOTH",
"1230 0 OFFCURVE",
"1542 275 OFFCURVE",
"1542 750 CURVE SMOOTH",
"1542 1225 OFFCURVE",
"1230 1500 OFFCURVE",
"756 1500 CURVE SMOOTH",
"358 1500 LINE",
"358 1456 LINE",
"756 1456 LINE SMOOTH",
"1202 1456 OFFCURVE",
"1494 1181 OFFCURVE",
"1494 750 CURVE SMOOTH",
"1494 319 OFFCURVE",
"1202 44 OFFCURVE",
"756 44 CURVE SMOOTH",
"358 44 LINE",
"358 0 LINE"
);
},
{
closed = 1;
nodes = (
"358 0 LINE",
"358 1500 LINE",
"77 1500 LINE",
"77 1458 LINE",
"310 1458 LINE",
"310 42 LINE",
"72 42 LINE",
"72 0 LINE"
);
}
);
width = 1680;
},
{
anchors = (
{
name = bottom;
position = "{746, 0}";
},
{
name = stroke;
position = "{299, 750}";
},
{
name = top;
position = "{746, 1500}";
}
);
layerId = "1E61A082-F045-49A7-AB52-DD1B03FD9B54";
paths = (
{
closed = 1;
nodes = (
"695 0 LINE SMOOTH",
"1157 0 OFFCURVE",
"1461 275 OFFCURVE",
"1461 750 CURVE SMOOTH",
"1461 1225 OFFCURVE",
"1157 1500 OFFCURVE",
"695 1500 CURVE SMOOTH",
"347 1500 LINE",
"347 1462 LINE",
"695 1462 LINE SMOOTH",
"1129 1462 OFFCURVE",
"1413 1185 OFFCURVE",
"1413 750 CURVE SMOOTH",
"1413 315 OFFCURVE",
"1129 38 OFFCURVE",
"695 38 CURVE SMOOTH",
"347 38 LINE",
"347 0 LINE"
);
},
{
closed = 1;
nodes = (
"347 0 LINE",
"347 1500 LINE",
"51 1500 LINE",
"51 1464 LINE",
"299 1464 LINE",
"299 36 LINE",
"46 36 LINE",
"46 0 LINE"
);
}
);
width = 1593;
},
{
anchors = (
{
name = bottom;
position = "{834, 0}";
},
{
name = stroke;
position = "{227, 750}";
},
{
name = top;
position = "{834, 1500}";
}
);
layerId = "219068EA-2B9B-40DC-949E-B60449C01B8A";
paths = (
{
closed = 1;
nodes = (
"883 0 LINE SMOOTH",
"1385 0 OFFCURVE",
"1719 270 OFFCURVE",
"1719 750 CURVE SMOOTH",
"1719 1230 OFFCURVE",
"1385 1500 OFFCURVE",
"883 1500 CURVE SMOOTH",
"647 1500 LINE",
"647 1276 LINE",
"821 1276 LINE SMOOTH",
"1084 1276 OFFCURVE",
"1257 1074 OFFCURVE",
"1257 750 CURVE SMOOTH",
"1257 426 OFFCURVE",
"1084 224 OFFCURVE",
"821 224 CURVE SMOOTH",
"647 224 LINE",
"647 0 LINE"
);
},
{
closed = 1;
nodes = (
"647 0 LINE",
"647 1500 LINE",
"65 1500 LINE",
"65 1286 LINE",
"227 1286 LINE",
"227 214 LINE",
"62 214 LINE",
"62 0 LINE"
);
}
);
width = 1783;
},
{
anchors = (
{
name = bottom;
position = "{793, 0}";
},
{
name = stroke;
position = "{230, 750}";
},
{
name = top;
position = "{793, 1500}";
}
);
layerId = "0C29AA02-E021-4BD1-A2C4-87F681D64C35";
paths = (
{
closed = 1;
nodes = (
"846 0 LINE SMOOTH",
"1324 0 OFFCURVE",
"1642 270 OFFCURVE",
"1642 750 CURVE SMOOTH",
"1642 1230 OFFCURVE",
"1324 1500 OFFCURVE",
"846 1500 CURVE SMOOTH",
"650 1500 LINE",
"650 1294 LINE",
"784 1294 LINE SMOOTH",
"1023 1294 OFFCURVE",
"1180 1085 OFFCURVE",
"1180 750 CURVE SMOOTH",
"1180 415 OFFCURVE",
"1023 206 OFFCURVE",
"784 206 CURVE SMOOTH",
"650 206 LINE",
"650 0 LINE"
);
},
{
closed = 1;
nodes = (
"650 0 LINE",
"650 1500 LINE",
"57 1500 LINE",
"57 1304 LINE",
"230 1304 LINE",
"230 196 LINE",
"54 196 LINE",
"54 0 LINE"
);
}
);
width = 1716;
}
);
leftKerningGroup = I;
rightKerningGroup = O;
unicode = 0044;
},
{
glyphname = DZcaron;
lastChange = "2021-05-03 12:17:03 +0000";
layers = (
{
anchors = (
{
name = bottom;
position = "{2431, 0}";
},
{
name = center;
position = "{2431, 750}";
},
{
name = stroke;
position = "{310, 750}";
},
{
name = top;
position = "{2431, 1500}";
}
);
layerId = "CA54B7DC-FBBB-40FE-ACF3-AABDD76D6A7B";
paths = (
{
closed = 1;
nodes = (
"756 0 LINE SMOOTH",
"1230 0 OFFCURVE",
"1542 275 OFFCURVE",
"1542 750 CURVE SMOOTH",
"1542 1225 OFFCURVE",
"1230 1500 OFFCURVE",
"756 1500 CURVE SMOOTH",
"358 1500 LINE",
"358 1456 LINE",
"756 1456 LINE SMOOTH",
"1202 1456 OFFCURVE",
"1494 1181 OFFCURVE",
"1494 750 CURVE SMOOTH",
"1494 319 OFFCURVE",
"1202 44 OFFCURVE",
"756 44 CURVE SMOOTH",
"358 44 LINE",
"358 0 LINE"
);
},
{
closed = 1;
nodes = (
"358 0 LINE",
"358 1500 LINE",
"77 1500 LINE",
"77 1458 LINE",
"310 1458 LINE",
"310 42 LINE",
"72 42 LINE",
"72 0 LINE"
);
},
{
closed = 1;
nodes = (
"1877 44 LINE",
"3040 1460 LINE",
"2975 1456 LINE",
"1812 40 LINE"
);
},
{
closed = 1;
nodes = (
"3032 0 LINE",
"3032 44 LINE",
"1877 44 LINE",
"1812 40 LINE",
"1812 0 LINE"
);
},
{
closed = 1;
nodes = (
"1900 1020 LINE",
"1900 1326 LINE SMOOTH",
"1900 1430 OFFCURVE",
"1926 1456 OFFCURVE",
"2026 1456 CURVE SMOOTH",
"1856 1456 LINE",
"1856 1020 LINE"
);
},
{
closed = 1;
nodes = (
"3032 44 LINE",
"3032 500 LINE",
"2988 500 LINE",
"2988 174 LINE SMOOTH",
"2988 70 OFFCURVE",
"2962 44 OFFCURVE",
"2862 44 CURVE SMOOTH"
);
},
{
closed = 1;
nodes = (
"2975 1456 LINE",
"3040 1460 LINE",
"3040 1500 LINE",
"1856 1500 LINE",
"1856 1456 LINE"
);
},
{
closed = 1;
nodes = (
"2451 1650 LINE",
"2697 1960 LINE",
"2647 1960 LINE",
"2420 1677 LINE",
"2445 1677 LINE",
"2216 1960 LINE",
"2165 1960 LINE",
"2411 1650 LINE"
);
}
);
width = 3182;
},
{
anchors = (
{
name = bottom;
position = "{2329, 0}";
},
{
name = center;
position = "{2329, 750}";
},
{
name = stroke;
position = "{299, 750}";
},
{
name = top;
position = "{2329, 1500}";
}
);
layerId = "1E61A082-F045-49A7-AB52-DD1B03FD9B54";
paths = (
{
closed = 1;
nodes = (
"695 0 LINE SMOOTH",
"1157 0 OFFCURVE",
"1461 275 OFFCURVE",
"1461 750 CURVE SMOOTH",
"1461 1225 OFFCURVE",
"1157 1500 OFFCURVE",
"695 1500 CURVE SMOOTH",
"347 1500 LINE",
"347 1462 LINE",
"695 1462 LINE SMOOTH",
"1129 1462 OFFCURVE",
"1413 1185 OFFCURVE",
"1413 750 CURVE SMOOTH",
"1413 315 OFFCURVE",
"1129 38 OFFCURVE",
"695 38 CURVE SMOOTH",
"347 38 LINE",
"347 0 LINE"
);
},
{
closed = 1;
nodes = (
"347 0 LINE",
"347 1500 LINE",
"51 1500 LINE",
"51 1464 LINE",
"299 1464 LINE",
"299 36 LINE",
"46 36 LINE",
"46 0 LINE"
);
},
{
closed = 1;
nodes = (
"1809 38 LINE",
"2913 1466 LINE",
"2849 1462 LINE",
"1745 34 LINE"
);
},
{
closed = 1;
nodes = (
"2905 0 LINE",
"2905 38 LINE",
"1809 38 LINE",
"1745 34 LINE",
"1745 0 LINE"
);
},
{
closed = 1;
nodes = (
"1829 960 LINE",
"1829 1332 LINE SMOOTH",
"1829 1436 OFFCURVE",
"1855 1462 OFFCURVE",
"1955 1462 CURVE SMOOTH",
"1789 1462 LINE",
"1789 960 LINE"
);
},
{
closed = 1;
nodes = (
"2905 38 LINE",
"2905 560 LINE",
"2865 560 LINE",
"2865 168 LINE SMOOTH",
"2865 64 OFFCURVE",
"2839 38 OFFCURVE",
"2739 38 CURVE SMOOTH"
);
},
{
closed = 1;
nodes = (
"2849 1462 LINE",
"2913 1466 LINE",
"2913 1500 LINE",
"1789 1500 LINE",
"1789 1462 LINE"
);
},
{
closed = 1;
nodes = (
"2346 1650 LINE",
"2592 1960 LINE",
"2545 1960 LINE",
"2318 1677 LINE",
"2343 1677 LINE",
"2115 1960 LINE",
"2066 1960 LINE",
"2312 1650 LINE"
);
}
);
width = 3065;
},
{
anchors = (
{
name = bottom;
position = "{2571, 0}";
},
{
name = center;
position = "{2571, 750}";
},
{
name = stroke;
position = "{227, 750}";
},
{
name = top;
position = "{2585, 1500}";
}
);
layerId = "219068EA-2B9B-40DC-949E-B60449C01B8A";
paths = (
{
closed = 1;
nodes = (
"883 0 LINE SMOOTH",
"1385 0 OFFCURVE",
"1719 270 OFFCURVE",
"1719 750 CURVE SMOOTH",
"1719 1230 OFFCURVE",
"1385 1500 OFFCURVE",
"883 1500 CURVE SMOOTH",
"647 1500 LINE",
"647 1276 LINE",
"821 1276 LINE SMOOTH",
"1084 1276 OFFCURVE",
"1257 1074 OFFCURVE",
"1257 750 CURVE SMOOTH",
"1257 426 OFFCURVE",
"1084 224 OFFCURVE",
"821 224 CURVE SMOOTH",
"647 224 LINE",
"647 0 LINE"
);
},
{
closed = 1;
nodes = (
"647 0 LINE",
"647 1500 LINE",
"65 1500 LINE",
"65 1286 LINE",
"227 1286 LINE",
"227 214 LINE",
"62 214 LINE",
"62 0 LINE"
);
},
{
closed = 1;
nodes = (
"2409 218 LINE",
"3274 1296 LINE",
"2728 1282 LINE",
"1863 204 LINE"
);
},
{
closed = 1;
nodes = (
"3264 0 LINE",
"3264 218 LINE",
"2409 218 LINE",
"1863 204 LINE",
"1863 0 LINE"
);
},
{
closed = 1;
nodes = (
"2145 920 LINE",
"2145 1042 LINE SMOOTH",
"2145 1212 OFFCURVE",
"2205 1282 OFFCURVE",
"2365 1282 CURVE SMOOTH",
"1913 1282 LINE",
"1913 920 LINE"
);
},
{
closed = 1;
nodes = (
"3264 218 LINE",
"3264 600 LINE",
"3032 600 LINE",
"3032 458 LINE SMOOTH",
"3032 288 OFFCURVE",
"2972 218 OFFCURVE",
"2812 218 CURVE SMOOTH"
);
},
{
closed = 1;
nodes = (
"2728 1282 LINE",
"3274 1296 LINE",
"3274 1500 LINE",
"1913 1500 LINE",
"1913 1282 LINE"
);
},
{
closed = 1;
nodes = (
"2793 1630 LINE",
"2999 1930 LINE",
"2769 1930 LINE",
"2525 1717 LINE",
"2695 1717 LINE",
"2455 1930 LINE",
"2171 1930 LINE",
"2377 1630 LINE"
);
}
);
width = 3358;
},
{
anchors = (
{
name = bottom;
position = "{2464, 0}";
},
{
name = center;
position = "{2464, 750}";
},
{
name = stroke;
position = "{230, 750}";
},
{
name = top;
position = "{2482, 1500}";
}
);
layerId = "0C29AA02-E021-4BD1-A2C4-87F681D64C35";
paths = (
{
closed = 1;
nodes = (
"846 0 LINE SMOOTH",
"1324 0 OFFCURVE",
"1642 270 OFFCURVE",
"1642 750 CURVE SMOOTH",
"1642 1230 OFFCURVE",
"1324 1500 OFFCURVE",
"846 1500 CURVE SMOOTH",
"650 1500 LINE",
"650 1294 LINE",
"784 1294 LINE SMOOTH",
"1023 1294 OFFCURVE",
"1180 1085 OFFCURVE",
"1180 750 CURVE SMOOTH",
"1180 415 OFFCURVE",
"1023 206 OFFCURVE",
"784 206 CURVE SMOOTH",
"650 206 LINE",
"650 0 LINE"
);
},
{
closed = 1;
nodes = (
"650 0 LINE",
"650 1500 LINE",
"57 1500 LINE",
"57 1304 LINE",
"230 1304 LINE",
"230 196 LINE",
"54 196 LINE",
"54 0 LINE"
);
},
{
closed = 1;
nodes = (
"2326 200 LINE",
"3115 1314 LINE",
"2595 1300 LINE",
"1806 186 LINE"
);
},
{
closed = 1;
nodes = (
"3105 0 LINE",
"3105 200 LINE",
"2326 200 LINE",
"1806 186 LINE",
"1806 0 LINE"
);
},
{
closed = 1;
nodes = (
"2054 900 LINE",
"2054 1060 LINE SMOOTH",
"2054 1230 OFFCURVE",
"2114 1300 OFFCURVE",
"2274 1300 CURVE SMOOTH",
"1856 1300 LINE",
"1856 900 LINE"
);
},
{
closed = 1;
nodes = (
"3105 200 LINE",
"3105 620 LINE",
"2907 620 LINE",
"2907 440 LINE SMOOTH",
"2907 270 OFFCURVE",
"2847 200 OFFCURVE",
"2687 200 CURVE SMOOTH"
);
},
{
closed = 1;
nodes = (
"2595 1300 LINE",
"3115 1314 LINE",
"3115 1500 LINE",
"1856 1500 LINE",
"1856 1300 LINE"
);
},
{
closed = 1;
nodes = (
"2685 1610 LINE",
"2871 1910 LINE",
"2671 1910 LINE",
"2427 1697 LINE",
"2597 1697 LINE",
"2357 1910 LINE",
"2093 1910 LINE",
"2279 1610 LINE"
);
}
);
width = 3209;
}
);
leftKerningGroup = I;
rightKerningGroup = Z;
unicode = 01C4;
},
{
glyphname = Eth;
lastChange = "2021-05-03 12:17:03 +0000";
layers = (
{
anchors = (
{
name = bottom;
position = "{790, 0}";
},
{
name = stroke;
position = "{310, 750}";
},
{
name = top;
position = "{790, 1500}";
}
);
layerId = "CA54B7DC-FBBB-40FE-ACF3-AABDD76D6A7B";
paths = (
{
closed = 1;
nodes = (
"756 0 LINE SMOOTH",
"1230 0 OFFCURVE",
"1542 275 OFFCURVE",
"1542 750 CURVE SMOOTH",
"1542 1225 OFFCURVE",
"1230 1500 OFFCURVE",
"756 1500 CURVE SMOOTH",
"358 1500 LINE",
"358 1456 LINE",
"756 1456 LINE SMOOTH",
"1202 1456 OFFCURVE",
"1494 1181 OFFCURVE",
"1494 750 CURVE SMOOTH",
"1494 319 OFFCURVE",
"1202 44 OFFCURVE",
"756 44 CURVE SMOOTH",
"358 44 LINE",
"358 0 LINE"
);
},
{
closed = 1;
nodes = (
"358 0 LINE",
"358 1500 LINE",
"77 1500 LINE",
"77 1458 LINE",
"310 1458 LINE",
"310 42 LINE",
"72 42 LINE",
"72 0 LINE"
);
},
{
closed = 1;
nodes = (
"722 730 LINE",
"722 770 LINE",
"72 770 LINE",
"72 730 LINE"
);
}
);
width = 1680;
},
{
anchors = (
{
name = bottom;
position = "{746, 0}";
},
{
name = stroke;
position = "{299, 750}";
},
{
name = top;
position = "{746, 1500}";
}
);
layerId = "1E61A082-F045-49A7-AB52-DD1B03FD9B54";
paths = (
{
closed = 1;
nodes = (
"695 0 LINE SMOOTH",
"1157 0 OFFCURVE",
"1461 275 OFFCURVE",
"1461 750 CURVE SMOOTH",
"1461 1225 OFFCURVE",
"1157 1500 OFFCURVE",
"695 1500 CURVE SMOOTH",
"347 1500 LINE",
"347 1462 LINE",
"695 1462 LINE SMOOTH",
"1129 1462 OFFCURVE",
"1413 1185 OFFCURVE",
"1413 750 CURVE SMOOTH",
"1413 315 OFFCURVE",
"1129 38 OFFCURVE",
"695 38 CURVE SMOOTH",
"347 38 LINE",
"347 0 LINE"
);
},
{
closed = 1;
nodes = (
"347 0 LINE",
"347 1500 LINE",
"51 1500 LINE",
"51 1464 LINE",
"299 1464 LINE",
"299 36 LINE",
"46 36 LINE",
"46 0 LINE"
);
},
{
closed = 1;
nodes = (
"716 730 LINE",
"716 770 LINE",
"46 770 LINE",
"46 730 LINE"
);
}
);
width = 1593;
},
{
anchors = (
{
name = bottom;
position = "{834, 0}";
},
{
name = stroke;
position = "{227, 750}";
},
{
name = top;
position = "{834, 1500}";
}
);
layerId = "219068EA-2B9B-40DC-949E-B60449C01B8A";
paths = (
{
closed = 1;
nodes = (
"883 0 LINE SMOOTH",
"1385 0 OFFCURVE",
"1719 270 OFFCURVE",
"1719 750 CURVE SMOOTH",
"1719 1230 OFFCURVE",
"1385 1500 OFFCURVE",
"883 1500 CURVE SMOOTH",
"647 1500 LINE",
"647 1276 LINE",
"821 1276 LINE SMOOTH",
"1084 1276 OFFCURVE",
"1257 1074 OFFCURVE",
"1257 750 CURVE SMOOTH",
"1257 426 OFFCURVE",
"1084 224 OFFCURVE",
"821 224 CURVE SMOOTH",
"647 224 LINE",
"647 0 LINE"
);
},
{
closed = 1;
nodes = (
"647 0 LINE",
"647 1500 LINE",
"65 1500 LINE",
"65 1286 LINE",
"227 1286 LINE",
"227 214 LINE",
"62 214 LINE",
"62 0 LINE"
);
},
{
closed = 1;
nodes = (
"912 662 LINE",
"912 840 LINE",
"62 840 LINE",
"62 662 LINE"
);
}
);
width = 1783;
},
{
anchors = (
{
name = bottom;
position = "{793, 0}";
},
{
name = stroke;
position = "{230, 750}";
},
{
name = top;
position = "{793, 1500}";
}
);
layerId = "0C29AA02-E021-4BD1-A2C4-87F681D64C35";
paths = (
{
closed = 1;
nodes = (
"846 0 LINE SMOOTH",
"1324 0 OFFCURVE",
"1642 270 OFFCURVE",
"1642 750 CURVE SMOOTH",
"1642 1230 OFFCURVE",
"1324 1500 OFFCURVE",
"846 1500 CURVE SMOOTH",
"650 1500 LINE",
"650 1294 LINE",
"784 1294 LINE SMOOTH",
"1023 1294 OFFCURVE",
"1180 1085 OFFCURVE",
"1180 750 CURVE SMOOTH",
"1180 415 OFFCURVE",
"1023 206 OFFCURVE",
"784 206 CURVE SMOOTH",
"650 206 LINE",
"650 0 LINE"
);
},
{
closed = 1;
nodes = (
"650 0 LINE",
"650 1500 LINE",
"57 1500 LINE",
"57 1304 LINE",
"230 1304 LINE",
"230 196 LINE",
"54 196 LINE",
"54 0 LINE"
);
},
{
closed = 1;
nodes = (
"915 662 LINE",
"915 840 LINE",
"65 840 LINE",
"65 662 LINE"
);
}
);
width = 1716;
}
);
leftKerningGroup = I;
rightKerningGroup = O;
unicode = 00D0;
},
{
glyphname = Dcaron;
lastChange = "2021-05-03 12:17:03 +0000";
layers = (
{
anchors = (
{
name = bottom;
position = "{790, 0}";
},
{
name = stroke;
position = "{310, 750}";
},
{
name = top;
position = "{790, 1500}";
}
);
layerId = "CA54B7DC-FBBB-40FE-ACF3-AABDD76D6A7B";
paths = (
{
closed = 1;
nodes = (
"756 0 LINE SMOOTH",
"1230 0 OFFCURVE",
"1542 275 OFFCURVE",
"1542 750 CURVE SMOOTH",
"1542 1225 OFFCURVE",
"1230 1500 OFFCURVE",
"756 1500 CURVE SMOOTH",
"358 1500 LINE",
"358 1456 LINE",
"756 1456 LINE SMOOTH",
"1202 1456 OFFCURVE",
"1494 1181 OFFCURVE",
"1494 750 CURVE SMOOTH",
"1494 319 OFFCURVE",
"1202 44 OFFCURVE",
"756 44 CURVE SMOOTH",
"358 44 LINE",
"358 0 LINE"
);
},
{
closed = 1;
nodes = (
"358 0 LINE",
"358 1500 LINE",
"77 1500 LINE",
"77 1458 LINE",
"310 1458 LINE",
"310 42 LINE",
"72 42 LINE",
"72 0 LINE"
);
},
{
closed = 1;
nodes = (
"810 1650 LINE",
"1056 1960 LINE",
"1006 1960 LINE",
"779 1677 LINE",
"804 1677 LINE",
"575 1960 LINE",
"524 1960 LINE",
"770 1650 LINE"
);
}
);
width = 1680;
},
{
anchors = (
{
name = bottom;
position = "{746, 0}";
},
{
name = stroke;
position = "{299, 750}";
},
{
name = top;
position = "{746, 1500}";
}
);
layerId = "1E61A082-F045-49A7-AB52-DD1B03FD9B54";
paths = (
{
closed = 1;
nodes = (
"695 0 LINE SMOOTH",
"1157 0 OFFCURVE",
"1461 275 OFFCURVE",
"1461 750 CURVE SMOOTH",
"1461 1225 OFFCURVE",
"1157 1500 OFFCURVE",
"695 1500 CURVE SMOOTH",
"347 1500 LINE",
"347 1462 LINE",
"695 1462 LINE SMOOTH",
"1129 1462 OFFCURVE",
"1413 1185 OFFCURVE",
"1413 750 CURVE SMOOTH",
"1413 315 OFFCURVE",
"1129 38 OFFCURVE",
"695 38 CURVE SMOOTH",
"347 38 LINE",
"347 0 LINE"
);
},
{
closed = 1;
nodes = (
"347 0 LINE",
"347 1500 LINE",
"51 1500 LINE",
"51 1464 LINE",
"299 1464 LINE",
"299 36 LINE",
"46 36 LINE",
"46 0 LINE"
);
},
{
closed = 1;
nodes = (
"763 1650 LINE",
"1009 1960 LINE",
"962 1960 LINE",
"735 1677 LINE",
"760 1677 LINE",
"532 1960 LINE",
"483 1960 LINE",
"729 1650 LINE"
);
}
);
width = 1593;
},
{
anchors = (
{
name = bottom;
position = "{834, 0}";
},
{
name = stroke;
position = "{227, 750}";
},
{
name = top;
position = "{834, 1500}";
}
);
layerId = "219068EA-2B9B-40DC-949E-B60449C01B8A";
paths = (
{
closed = 1;
nodes = (
"883 0 LINE SMOOTH",
"1385 0 OFFCURVE",
"1719 270 OFFCURVE",
"1719 750 CURVE SMOOTH",
"1719 1230 OFFCURVE",
"1385 1500 OFFCURVE",
"883 1500 CURVE SMOOTH",
"647 1500 LINE",
"647 1276 LINE",
"821 1276 LINE SMOOTH",
"1084 1276 OFFCURVE",
"1257 1074 OFFCURVE",
"1257 750 CURVE SMOOTH",
"1257 426 OFFCURVE",
"1084 224 OFFCURVE",
"821 224 CURVE SMOOTH",
"647 224 LINE",
"647 0 LINE"
);
},
{
closed = 1;
nodes = (
"647 0 LINE",
"647 1500 LINE",
"65 1500 LINE",
"65 1286 LINE",
"227 1286 LINE",
"227 214 LINE",
"62 214 LINE",
"62 0 LINE"
);
},
{
closed = 1;
nodes = (
"1042 1630 LINE",
"1248 1930 LINE",
"1018 1930 LINE",
"774 1717 LINE",
"944 1717 LINE",
"704 1930 LINE",
"420 1930 LINE",
"626 1630 LINE"
);
}
);
width = 1783;
},
{
anchors = (
{
name = bottom;
position = "{793, 0}";
},
{
name = stroke;
position = "{230, 750}";
},
{
name = top;
position = "{793, 1500}";
}
);
layerId = "0C29AA02-E021-4BD1-A2C4-87F681D64C35";
paths = (
{
closed = 1;
nodes = (
"846 0 LINE SMOOTH",
"1324 0 OFFCURVE",
"1642 270 OFFCURVE",
"1642 750 CURVE SMOOTH",
"1642 1230 OFFCURVE",
"1324 1500 OFFCURVE",
"846 1500 CURVE SMOOTH",
"650 1500 LINE",
"650 1294 LINE",
"784 1294 LINE SMOOTH",
"1023 1294 OFFCURVE",
"1180 1085 OFFCURVE",
"1180 750 CURVE SMOOTH",
"1180 415 OFFCURVE",
"1023 206 OFFCURVE",
"784 206 CURVE SMOOTH",
"650 206 LINE",
"650 0 LINE"
);
},
{
closed = 1;
nodes = (
"650 0 LINE",
"650 1500 LINE",
"57 1500 LINE",
"57 1304 LINE",
"230 1304 LINE",
"230 196 LINE",
"54 196 LINE",
"54 0 LINE"
);
},
{
closed = 1;
nodes = (
"996 1610 LINE",
"1182 1910 LINE",
"982 1910 LINE",
"738 1697 LINE",
"908 1697 LINE",
"668 1910 LINE",
"404 1910 LINE",
"590 1610 LINE"
);
}
);
width = 1716;
}
);
leftKerningGroup = I;
rightKerningGroup = O;
unicode = 010E;
},
{
glyphname = Dcroat;
lastChange = "2021-05-03 12:17:03 +0000";
layers = (
{
anchors = (
{
name = bottom;
position = "{790, 0}";
},
{
name = stroke;
position = "{310, 750}";
},
{
name = top;
position = "{790, 1500}";
}
);
layerId = "CA54B7DC-FBBB-40FE-ACF3-AABDD76D6A7B";
paths = (
{
closed = 1;
nodes = (
"756 0 LINE SMOOTH",
"1230 0 OFFCURVE",
"1542 275 OFFCURVE",
"1542 750 CURVE SMOOTH",
"1542 1225 OFFCURVE",
"1230 1500 OFFCURVE",
"756 1500 CURVE SMOOTH",
"358 1500 LINE",
"358 1456 LINE",
"756 1456 LINE SMOOTH",
"1202 1456 OFFCURVE",
"1494 1181 OFFCURVE",
"1494 750 CURVE SMOOTH",
"1494 319 OFFCURVE",
"1202 44 OFFCURVE",
"756 44 CURVE SMOOTH",
"358 44 LINE",
"358 0 LINE"
);
},
{
closed = 1;
nodes = (
"358 0 LINE",
"358 1500 LINE",
"77 1500 LINE",
"77 1458 LINE",
"310 1458 LINE",
"310 42 LINE",
"72 42 LINE",
"72 0 LINE"
);
},
{
closed = 1;
nodes = (
"722 730 LINE",
"722 770 LINE",
"72 770 LINE",
"72 730 LINE"
);
}
);
width = 1680;
},
{
anchors = (
{
name = bottom;
position = "{746, 0}";
},
{
name = stroke;
position = "{299, 750}";
},
{
name = top;
position = "{746, 1500}";
}
);
layerId = "1E61A082-F045-49A7-AB52-DD1B03FD9B54";
paths = (
{
closed = 1;
nodes = (
"695 0 LINE SMOOTH",
"1157 0 OFFCURVE",
"1461 275 OFFCURVE",
"1461 750 CURVE SMOOTH",
"1461 1225 OFFCURVE",
"1157 1500 OFFCURVE",
"695 1500 CURVE SMOOTH",
"347 1500 LINE",
"347 1462 LINE",
"695 1462 LINE SMOOTH",
"1129 1462 OFFCURVE",
"1413 1185 OFFCURVE",
"1413 750 CURVE SMOOTH",
"1413 315 OFFCURVE",
"1129 38 OFFCURVE",
"695 38 CURVE SMOOTH",
"347 38 LINE",
"347 0 LINE"
);
},
{
closed = 1;
nodes = (
"347 0 LINE",
"347 1500 LINE",
"51 1500 LINE",
"51 1464 LINE",
"299 1464 LINE",
"299 36 LINE",
"46 36 LINE",
"46 0 LINE"
);
},
{
closed = 1;
nodes = (
"716 730 LINE",
"716 770 LINE",
"46 770 LINE",
"46 730 LINE"
);
}
);
width = 1593;
},
{
anchors = (
{
name = bottom;
position = "{834, 0}";
},
{
name = stroke;
position = "{227, 750}";
},
{
name = top;
position = "{834, 1500}";
}
);
layerId = "219068EA-2B9B-40DC-949E-B60449C01B8A";
paths = (
{
closed = 1;
nodes = (
"883 0 LINE SMOOTH",
"1385 0 OFFCURVE",
"1719 270 OFFCURVE",
"1719 750 CURVE SMOOTH",
"1719 1230 OFFCURVE",
"1385 1500 OFFCURVE",
"883 1500 CURVE SMOOTH",
"647 1500 LINE",
"647 1276 LINE",
"821 1276 LINE SMOOTH",
"1084 1276 OFFCURVE",
"1257 1074 OFFCURVE",
"1257 750 CURVE SMOOTH",
"1257 426 OFFCURVE",
"1084 224 OFFCURVE",
"821 224 CURVE SMOOTH",
"647 224 LINE",
"647 0 LINE"
);
},
{
closed = 1;
nodes = (
"647 0 LINE",
"647 1500 LINE",
"65 1500 LINE",
"65 1286 LINE",
"227 1286 LINE",
"227 214 LINE",
"62 214 LINE",
"62 0 LINE"
);
},
{
closed = 1;
nodes = (
"912 662 LINE",
"912 840 LINE",
"62 840 LINE",
"62 662 LINE"
);
}
);
width = 1783;
},
{
anchors = (
{
name = bottom;
position = "{793, 0}";
},
{
name = stroke;
position = "{230, 750}";
},
{
name = top;
position = "{793, 1500}";
}
);
layerId = "0C29AA02-E021-4BD1-A2C4-87F681D64C35";
paths = (
{
closed = 1;
nodes = (
"846 0 LINE SMOOTH",
"1324 0 OFFCURVE",
"1642 270 OFFCURVE",
"1642 750 CURVE SMOOTH",
"1642 1230 OFFCURVE",
"1324 1500 OFFCURVE",
"846 1500 CURVE SMOOTH",
"650 1500 LINE",
"650 1294 LINE",
"784 1294 LINE SMOOTH",
"1023 1294 OFFCURVE",
"1180 1085 OFFCURVE",
"1180 750 CURVE SMOOTH",
"1180 415 OFFCURVE",
"1023 206 OFFCURVE",
"784 206 CURVE SMOOTH",
"650 206 LINE",
"650 0 LINE"
);
},
{
closed = 1;
nodes = (
"650 0 LINE",
"650 1500 LINE",
"57 1500 LINE",
"57 1304 LINE",
"230 1304 LINE",
"230 196 LINE",
"54 196 LINE",
"54 0 LINE"
);
},
{
closed = 1;
nodes = (
"915 662 LINE",
"915 840 LINE",
"65 840 LINE",
"65 662 LINE"
);
}
);
width = 1716;
}
);
leftKerningGroup = I;
rightKerningGroup = O;
unicode = 0110;
},
{
glyphname = Ddotbelow;
lastChange = "2021-05-03 12:17:03 +0000";
layers = (
{
anchors = (
{
name = bottom;
position = "{790, 0}";
},
{
name = stroke;
position = "{310, 750}";
},
{
name = top;
position = "{790, 1500}";
}
);
layerId = "CA54B7DC-FBBB-40FE-ACF3-AABDD76D6A7B";
paths = (
{
closed = 1;
nodes = (
"756 0 LINE SMOOTH",
"1230 0 OFFCURVE",
"1542 275 OFFCURVE",
"1542 750 CURVE SMOOTH",
"1542 1225 OFFCURVE",
"1230 1500 OFFCURVE",
"756 1500 CURVE SMOOTH",
"358 1500 LINE",
"358 1456 LINE",
"756 1456 LINE SMOOTH",
"1202 1456 OFFCURVE",
"1494 1181 OFFCURVE",
"1494 750 CURVE SMOOTH",
"1494 319 OFFCURVE",
"1202 44 OFFCURVE",
"756 44 CURVE SMOOTH",
"358 44 LINE",
"358 0 LINE"
);
},
{
closed = 1;
nodes = (
"358 0 LINE",
"358 1500 LINE",
"77 1500 LINE",
"77 1458 LINE",
"310 1458 LINE",
"310 42 LINE",
"72 42 LINE",
"72 0 LINE"
);
},
{
closed = 1;
nodes = (
"826 -326 OFFCURVE",
"849 -300 OFFCURVE",
"849 -264 CURVE SMOOTH",
"849 -228 OFFCURVE",
"826 -202 OFFCURVE",
"790 -202 CURVE SMOOTH",
"754 -202 OFFCURVE",
"731 -228 OFFCURVE",
"731 -264 CURVE SMOOTH",
"731 -300 OFFCURVE",
"754 -326 OFFCURVE",
"790 -326 CURVE SMOOTH"
);
}
);
width = 1680;
},
{
anchors = (
{
name = bottom;
position = "{746, 0}";
},
{
name = stroke;
position = "{299, 750}";
},
{
name = top;
position = "{746, 1500}";
}
);
layerId = "1E61A082-F045-49A7-AB52-DD1B03FD9B54";
paths = (
{
closed = 1;
nodes = (
"695 0 LINE SMOOTH",
"1157 0 OFFCURVE",
"1461 275 OFFCURVE",
"1461 750 CURVE SMOOTH",
"1461 1225 OFFCURVE",
"1157 1500 OFFCURVE",
"695 1500 CURVE SMOOTH",
"347 1500 LINE",
"347 1462 LINE",
"695 1462 LINE SMOOTH",
"1129 1462 OFFCURVE",
"1413 1185 OFFCURVE",
"1413 750 CURVE SMOOTH",
"1413 315 OFFCURVE",
"1129 38 OFFCURVE",
"695 38 CURVE SMOOTH",
"347 38 LINE",
"347 0 LINE"
);
},
{
closed = 1;
nodes = (
"347 0 LINE",
"347 1500 LINE",
"51 1500 LINE",
"51 1464 LINE",
"299 1464 LINE",
"299 36 LINE",
"46 36 LINE",
"46 0 LINE"
);
},
{
closed = 1;
nodes = (
"782 -346 OFFCURVE",
"805 -320 OFFCURVE",
"805 -284 CURVE SMOOTH",
"805 -248 OFFCURVE",
"782 -222 OFFCURVE",
"746 -222 CURVE SMOOTH",
"710 -222 OFFCURVE",
"687 -248 OFFCURVE",
"687 -284 CURVE SMOOTH",
"687 -320 OFFCURVE",
"710 -346 OFFCURVE",
"746 -346 CURVE SMOOTH"
);
}
);
width = 1593;
},
{
anchors = (
{
name = bottom;
position = "{834, 0}";
},
{
name = stroke;
position = "{227, 750}";
},
{
name = top;
position = "{834, 1500}";
}
);
layerId = "219068EA-2B9B-40DC-949E-B60449C01B8A";
paths = (
{
closed = 1;
nodes = (
"883 0 LINE SMOOTH",
"1385 0 OFFCURVE",
"1719 270 OFFCURVE",
"1719 750 CURVE SMOOTH",
"1719 1230 OFFCURVE",
"1385 1500 OFFCURVE",
"883 1500 CURVE SMOOTH",
"647 1500 LINE",
"647 1276 LINE",
"821 1276 LINE SMOOTH",
"1084 1276 OFFCURVE",
"1257 1074 OFFCURVE",
"1257 750 CURVE SMOOTH",
"1257 426 OFFCURVE",
"1084 224 OFFCURVE",
"821 224 CURVE SMOOTH",
"647 224 LINE",
"647 0 LINE"
);
},
{
closed = 1;
nodes = (
"647 0 LINE",
"647 1500 LINE",
"65 1500 LINE",
"65 1286 LINE",
"227 1286 LINE",
"227 214 LINE",
"62 214 LINE",
"62 0 LINE"
);
},
{
closed = 1;
nodes = (
"978 -512 OFFCURVE",
"1078 -431 OFFCURVE",
"1078 -298 CURVE SMOOTH",
"1078 -166 OFFCURVE",
"978 -84 OFFCURVE",
"834 -84 CURVE SMOOTH",
"690 -84 OFFCURVE",
"590 -166 OFFCURVE",
"590 -298 CURVE SMOOTH",
"590 -431 OFFCURVE",
"690 -512 OFFCURVE",
"834 -512 CURVE SMOOTH"
);
}
);
width = 1783;
},
{
anchors = (
{
name = bottom;
position = "{793, 0}";
},
{
name = stroke;
position = "{230, 750}";
},
{
name = top;
position = "{793, 1500}";
}
);
layerId = "0C29AA02-E021-4BD1-A2C4-87F681D64C35";
paths = (
{
closed = 1;
nodes = (
"846 0 LINE SMOOTH",
"1324 0 OFFCURVE",
"1642 270 OFFCURVE",
"1642 750 CURVE SMOOTH",
"1642 1230 OFFCURVE",
"1324 1500 OFFCURVE",
"846 1500 CURVE SMOOTH",
"650 1500 LINE",
"650 1294 LINE",
"784 1294 LINE SMOOTH",
"1023 1294 OFFCURVE",
"1180 1085 OFFCURVE",
"1180 750 CURVE SMOOTH",
"1180 415 OFFCURVE",
"1023 206 OFFCURVE",
"784 206 CURVE SMOOTH",
"650 206 LINE",
"650 0 LINE"
);
},
{
closed = 1;
nodes = (
"650 0 LINE",
"650 1500 LINE",
"57 1500 LINE",
"57 1304 LINE",
"230 1304 LINE",
"230 196 LINE",
"54 196 LINE",
"54 0 LINE"
);
},
{
closed = 1;
nodes = (
"928 -498 OFFCURVE",
"1021 -419 OFFCURVE",
"1021 -288 CURVE SMOOTH",
"1021 -158 OFFCURVE",
"928 -78 OFFCURVE",
"793 -78 CURVE SMOOTH",
"658 -78 OFFCURVE",
"565 -158 OFFCURVE",
"565 -288 CURVE SMOOTH",
"565 -419 OFFCURVE",
"658 -498 OFFCURVE",
"793 -498 CURVE SMOOTH"
);
}
);
width = 1716;
}
);
leftKerningGroup = I;
rightKerningGroup = O;
unicode = 1E0C;
},
{
glyphname = Dlinebelow;
lastChange = "2021-05-03 12:17:03 +0000";
layers = (
{
anchors = (
{
name = bottom;
position = "{790, 0}";
},
{
name = stroke;
position = "{310, 750}";
},
{
name = top;
position = "{790, 1500}";
}
);
layerId = "CA54B7DC-FBBB-40FE-ACF3-AABDD76D6A7B";
paths = (
{
closed = 1;
nodes = (
"756 0 LINE SMOOTH",
"1230 0 OFFCURVE",
"1542 275 OFFCURVE",
"1542 750 CURVE SMOOTH",
"1542 1225 OFFCURVE",
"1230 1500 OFFCURVE",
"756 1500 CURVE SMOOTH",
"358 1500 LINE",
"358 1456 LINE",
"756 1456 LINE SMOOTH",
"1202 1456 OFFCURVE",
"1494 1181 OFFCURVE",
"1494 750 CURVE SMOOTH",
"1494 319 OFFCURVE",
"1202 44 OFFCURVE",
"756 44 CURVE SMOOTH",
"358 44 LINE",
"358 0 LINE"
);
},
{
closed = 1;
nodes = (
"358 0 LINE",
"358 1500 LINE",
"77 1500 LINE",
"77 1458 LINE",
"310 1458 LINE",
"310 42 LINE",
"72 42 LINE",
"72 0 LINE"
);
},
{
closed = 1;
nodes = (
"1080 -242 LINE",
"1080 -200 LINE",
"500 -200 LINE",
"500 -242 LINE"
);
}
);
width = 1680;
},
{
anchors = (
{
name = bottom;
position = "{746, 0}";
},
{
name = stroke;
position = "{299, 750}";
},
{
name = top;
position = "{746, 1500}";
}
);
layerId = "1E61A082-F045-49A7-AB52-DD1B03FD9B54";
paths = (
{
closed = 1;
nodes = (
"695 0 LINE SMOOTH",
"1157 0 OFFCURVE",
"1461 275 OFFCURVE",
"1461 750 CURVE SMOOTH",
"1461 1225 OFFCURVE",
"1157 1500 OFFCURVE",
"695 1500 CURVE SMOOTH",
"347 1500 LINE",
"347 1462 LINE",
"695 1462 LINE SMOOTH",
"1129 1462 OFFCURVE",
"1413 1185 OFFCURVE",
"1413 750 CURVE SMOOTH",
"1413 315 OFFCURVE",
"1129 38 OFFCURVE",
"695 38 CURVE SMOOTH",
"347 38 LINE",
"347 0 LINE"
);
},
{
closed = 1;
nodes = (
"347 0 LINE",
"347 1500 LINE",
"51 1500 LINE",
"51 1464 LINE",
"299 1464 LINE",
"299 36 LINE",
"46 36 LINE",
"46 0 LINE"
);
},
{
closed = 1;
nodes = (
"1036 -240 LINE",
"1036 -200 LINE",
"456 -200 LINE",
"456 -240 LINE"
);
}
);
width = 1593;
},
{
anchors = (
{
name = bottom;
position = "{834, 0}";
},
{
name = stroke;
position = "{227, 750}";
},
{
name = top;
position = "{834, 1500}";
}
);
layerId = "219068EA-2B9B-40DC-949E-B60449C01B8A";
paths = (
{
closed = 1;
nodes = (
"883 0 LINE SMOOTH",
"1385 0 OFFCURVE",
"1719 270 OFFCURVE",
"1719 750 CURVE SMOOTH",
"1719 1230 OFFCURVE",
"1385 1500 OFFCURVE",
"883 1500 CURVE SMOOTH",
"647 1500 LINE",
"647 1276 LINE",
"821 1276 LINE SMOOTH",
"1084 1276 OFFCURVE",
"1257 1074 OFFCURVE",
"1257 750 CURVE SMOOTH",
"1257 426 OFFCURVE",
"1084 224 OFFCURVE",
"821 224 CURVE SMOOTH",
"647 224 LINE",
"647 0 LINE"
);
},
{
closed = 1;
nodes = (
"647 0 LINE",
"647 1500 LINE",
"65 1500 LINE",
"65 1286 LINE",
"227 1286 LINE",
"227 214 LINE",
"62 214 LINE",
"62 0 LINE"
);
},
{
closed = 1;
nodes = (
"1204 -350 LINE",
"1204 -150 LINE",
"464 -150 LINE",
"464 -350 LINE"
);
}
);
width = 1783;
},
{
anchors = (
{
name = bottom;
position = "{793, 0}";
},
{
name = stroke;
position = "{230, 750}";
},
{
name = top;
position = "{793, 1500}";
}
);
layerId = "0C29AA02-E021-4BD1-A2C4-87F681D64C35";
paths = (
{
closed = 1;
nodes = (
"846 0 LINE SMOOTH",
"1324 0 OFFCURVE",
"1642 270 OFFCURVE",
"1642 750 CURVE SMOOTH",
"1642 1230 OFFCURVE",
"1324 1500 OFFCURVE",
"846 1500 CURVE SMOOTH",
"650 1500 LINE",
"650 1294 LINE",
"784 1294 LINE SMOOTH",
"1023 1294 OFFCURVE",
"1180 1085 OFFCURVE",
"1180 750 CURVE SMOOTH",
"1180 415 OFFCURVE",
"1023 206 OFFCURVE",
"784 206 CURVE SMOOTH",
"650 206 LINE",
"650 0 LINE"
);
},
{
closed = 1;
nodes = (
"650 0 LINE",
"650 1500 LINE",
"57 1500 LINE",
"57 1304 LINE",
"230 1304 LINE",
"230 196 LINE",
"54 196 LINE",
"54 0 LINE"
);
},
{
closed = 1;
nodes = (
"1163 -330 LINE",
"1163 -130 LINE",
"423 -130 LINE",
"423 -330 LINE"
);
}
);
width = 1716;
}
);
leftKerningGroup = I;
rightKerningGroup = O;
unicode = 1E0E;
},
{
glyphname = Dzcaron;
lastChange = "2021-05-03 12:17:03 +0000";
layers = (
{
anchors = (
{
name = bottom;
position = "{2301, 0}";
},
{
name = center;
position = "{2301, 550}";
},
{
name = stroke;
position = "{310, 750}";
},
{
name = top;
position = "{2320, 1100}";
}
);
layerId = "CA54B7DC-FBBB-40FE-ACF3-AABDD76D6A7B";
paths = (
{
closed = 1;
nodes = (
"756 0 LINE SMOOTH",
"1230 0 OFFCURVE",
"1542 275 OFFCURVE",
"1542 750 CURVE SMOOTH",
"1542 1225 OFFCURVE",
"1230 1500 OFFCURVE",
"756 1500 CURVE SMOOTH",
"358 1500 LINE",
"358 1456 LINE",
"756 1456 LINE SMOOTH",
"1202 1456 OFFCURVE",
"1494 1181 OFFCURVE",
"1494 750 CURVE SMOOTH",
"1494 319 OFFCURVE",
"1202 44 OFFCURVE",
"756 44 CURVE SMOOTH",
"358 44 LINE",
"358 0 LINE"
);
},
{
closed = 1;
nodes = (
"358 0 LINE",
"358 1500 LINE",
"77 1500 LINE",
"77 1458 LINE",
"310 1458 LINE",
"310 42 LINE",
"72 42 LINE",
"72 0 LINE"
);
},
{
closed = 1;
nodes = (
"1918 44 LINE",
"2746 1062 LINE",
"2680 1056 LINE",
"1852 38 LINE"
);
},
{
closed = 1;
nodes = (
"2744 0 LINE",
"2744 44 LINE",
"1918 44 LINE",
"1852 38 LINE",
"1852 0 LINE"
);
},
{
closed = 1;
nodes = (
"1949 790 LINE",
"1949 916 LINE SMOOTH",
"1949 1028 OFFCURVE",
"1969 1056 OFFCURVE",
"2081 1056 CURVE SMOOTH",
"1906 1056 LINE",
"1906 790 LINE"
);
},
{
closed = 1;
nodes = (
"2744 44 LINE",
"2744 320 LINE",
"2701 320 LINE",
"2701 184 LINE SMOOTH",
"2701 72 OFFCURVE",
"2681 44 OFFCURVE",
"2569 44 CURVE SMOOTH"
);
},
{
closed = 1;
nodes = (
"2680 1056 LINE",
"2746 1062 LINE",
"2746 1100 LINE",
"1906 1100 LINE",
"1906 1056 LINE"
);
},
{
closed = 1;
nodes = (
"2340 1250 LINE",
"2586 1560 LINE",
"2536 1560 LINE",
"2309 1277 LINE",
"2334 1277 LINE",
"2105 1560 LINE",
"2054 1560 LINE",
"2300 1250 LINE"
);
}
);
width = 2934;
},
{
anchors = (
{
name = bottom;
position = "{2159, 0}";
},
{
name = center;
position = "{2159, 540}";
},
{
name = stroke;
position = "{299, 750}";
},
{
name = top;
position = "{2175, 1080}";
}
);
layerId = "1E61A082-F045-49A7-AB52-DD1B03FD9B54";
paths = (
{
closed = 1;
nodes = (
"695 0 LINE SMOOTH",
"1157 0 OFFCURVE",
"1461 275 OFFCURVE",
"1461 750 CURVE SMOOTH",
"1461 1225 OFFCURVE",
"1157 1500 OFFCURVE",
"695 1500 CURVE SMOOTH",
"347 1500 LINE",
"347 1462 LINE",
"695 1462 LINE SMOOTH",
"1129 1462 OFFCURVE",
"1413 1185 OFFCURVE",
"1413 750 CURVE SMOOTH",
"1413 315 OFFCURVE",
"1129 38 OFFCURVE",
"695 38 CURVE SMOOTH",
"347 38 LINE",
"347 0 LINE"
);
},
{
closed = 1;
nodes = (
"347 0 LINE",
"347 1500 LINE",
"51 1500 LINE",
"51 1464 LINE",
"299 1464 LINE",
"299 36 LINE",
"46 36 LINE",
"46 0 LINE"
);
},
{
closed = 1;
nodes = (
"1794 38 LINE",
"2581 1046 LINE",
"2518 1042 LINE",
"1731 34 LINE"
);
},
{
closed = 1;
nodes = (
"2583 0 LINE",
"2583 38 LINE",
"1794 38 LINE",
"1731 34 LINE",
"1731 0 LINE"
);
},
{
closed = 1;
nodes = (
"1819 710 LINE",
"1819 902 LINE SMOOTH",
"1819 1014 OFFCURVE",
"1839 1042 OFFCURVE",
"1951 1042 CURVE SMOOTH",
"1779 1042 LINE",
"1779 710 LINE"
);
},
{
closed = 1;
nodes = (
"2583 38 LINE",
"2583 390 LINE",
"2543 390 LINE",
"2543 178 LINE SMOOTH",
"2543 66 OFFCURVE",
"2523 38 OFFCURVE",
"2411 38 CURVE SMOOTH"
);
},
{
closed = 1;
nodes = (
"2518 1042 LINE",
"2581 1046 LINE",
"2581 1080 LINE",
"1779 1080 LINE",
"1779 1042 LINE"
);
},
{
closed = 1;
nodes = (
"2192 1230 LINE",
"2438 1540 LINE",
"2391 1540 LINE",
"2164 1257 LINE",
"2189 1257 LINE",
"1961 1540 LINE",
"1912 1540 LINE",
"2158 1230 LINE"
);
}
);
width = 2727;
},
{
anchors = (
{
name = bottom;
position = "{2431, 0}";
},
{
name = center;
position = "{2431, 580}";
},
{
name = stroke;
position = "{227, 750}";
},
{
name = top;
position = "{2448, 1160}";
}
);
layerId = "219068EA-2B9B-40DC-949E-B60449C01B8A";
paths = (
{
closed = 1;
nodes = (
"883 0 LINE SMOOTH",
"1385 0 OFFCURVE",
"1719 270 OFFCURVE",
"1719 750 CURVE SMOOTH",
"1719 1230 OFFCURVE",
"1385 1500 OFFCURVE",
"883 1500 CURVE SMOOTH",
"647 1500 LINE",
"647 1276 LINE",
"821 1276 LINE SMOOTH",
"1084 1276 OFFCURVE",
"1257 1074 OFFCURVE",
"1257 750 CURVE SMOOTH",
"1257 426 OFFCURVE",
"1084 224 OFFCURVE",
"821 224 CURVE SMOOTH",
"647 224 LINE",
"647 0 LINE"
);
},
{
closed = 1;
nodes = (
"647 0 LINE",
"647 1500 LINE",
"65 1500 LINE",
"65 1286 LINE",
"227 1286 LINE",
"227 214 LINE",
"62 214 LINE",
"62 0 LINE"
);
},
{
closed = 1;
nodes = (
"2372 210 LINE",
"2971 970 LINE",
"2476 950 LINE",
"1877 190 LINE"
);
},
{
closed = 1;
nodes = (
"2957 0 LINE",
"2957 210 LINE",
"2372 210 LINE",
"1877 190 LINE",
"1877 0 LINE"
);
},
{
closed = 1;
nodes = (
"2153 700 LINE",
"2153 750 LINE SMOOTH",
"2153 900 OFFCURVE",
"2193 950 OFFCURVE",
"2333 950 CURVE SMOOTH",
"1925 950 LINE",
"1925 700 LINE"
);
},
{
closed = 1;
nodes = (
"2957 210 LINE",
"2957 480 LINE",
"2729 480 LINE",
"2729 410 LINE SMOOTH",
"2729 260 OFFCURVE",
"2689 210 OFFCURVE",
"2549 210 CURVE SMOOTH"
);
},
{
closed = 1;
nodes = (
"2476 950 LINE",
"2971 970 LINE",
"2971 1160 LINE",
"1925 1160 LINE",
"1925 950 LINE"
);
},
{
closed = 1;
nodes = (
"2656 1290 LINE",
"2862 1590 LINE",
"2632 1590 LINE",
"2388 1377 LINE",
"2558 1377 LINE",
"2318 1590 LINE",
"2034 1590 LINE",
"2240 1290 LINE"
);
}
);
width = 3075;
},
{
anchors = (
{
name = bottom;
position = "{2320, 0}";
},
{
name = center;
position = "{2320, 570}";
},
{
name = stroke;
position = "{230, 750}";
},
{
name = top;
position = "{2340, 1140}";
}
);
layerId = "0C29AA02-E021-4BD1-A2C4-87F681D64C35";
paths = (
{
closed = 1;
nodes = (
"846 0 LINE SMOOTH",
"1324 0 OFFCURVE",
"1642 270 OFFCURVE",
"1642 750 CURVE SMOOTH",
"1642 1230 OFFCURVE",
"1324 1500 OFFCURVE",
"846 1500 CURVE SMOOTH",
"650 1500 LINE",
"650 1294 LINE",
"784 1294 LINE SMOOTH",
"1023 1294 OFFCURVE",
"1180 1085 OFFCURVE",
"1180 750 CURVE SMOOTH",
"1180 415 OFFCURVE",
"1023 206 OFFCURVE",
"784 206 CURVE SMOOTH",
"650 206 LINE",
"650 0 LINE"
);
},
{
closed = 1;
nodes = (
"650 0 LINE",
"650 1500 LINE",
"57 1500 LINE",
"57 1304 LINE",
"230 1304 LINE",
"230 196 LINE",
"54 196 LINE",
"54 0 LINE"
);
},
{
closed = 1;
nodes = (
"2277 194 LINE",
"2846 974 LINE",
"2357 946 LINE",
"1788 166 LINE"
);
},
{
closed = 1;
nodes = (
"2834 0 LINE",
"2834 194 LINE",
"2277 194 LINE",
"1788 166 LINE",
"1788 0 LINE"
);
},
{
closed = 1;
nodes = (
"2032 660 LINE",
"2032 746 LINE SMOOTH",
"2032 896 OFFCURVE",
"2072 946 OFFCURVE",
"2212 946 CURVE SMOOTH",
"1834 946 LINE",
"1834 660 LINE"
);
},
{
closed = 1;
nodes = (
"2834 194 LINE",
"2834 500 LINE",
"2636 500 LINE",
"2636 394 LINE SMOOTH",
"2636 244 OFFCURVE",
"2596 194 OFFCURVE",
"2456 194 CURVE SMOOTH"
);
},
{
closed = 1;
nodes = (
"2357 946 LINE",
"2846 974 LINE",
"2846 1140 LINE",
"1834 1140 LINE",
"1834 946 LINE"
);
},
{
closed = 1;
nodes = (
"2543 1250 LINE",
"2729 1550 LINE",
"2529 1550 LINE",
"2285 1337 LINE",
"2455 1337 LINE",
"2215 1550 LINE",
"1951 1550 LINE",
"2137 1250 LINE"
);
}
);
width = 2930;
}
);
leftKerningGroup = I;
rightKerningGroup = z;
unicode = 01C5;
},
